{"glyphs":{"0":{"ha":886,"x_min":0,"x_max":0,"o":"m 443 -19 b 797 375 661 -19 797 114 l 797 597 b 443 992 797 858 661 992 b 89 597 225 992 89 858 l 89 375 b 443 -19 89 114 225 -19 z m 443 58 b 175 369 265 58 175 175 l 175 603 b 443 914 175 797 265 914 b 711 603 621 914 711 797 l 711 369 b 443 58 711 175 621 58 z "},"1":{"ha":561,"x_min":0,"x_max":0,"o":"m 356 0 l 442 0 l 442 972 l 274 972 l 28 558 l 125 558 l 338 919 l 356 919 z "},"2":{"ha":842,"x_min":0,"x_max":0,"o":"m 81 0 l 760 0 l 760 78 l 167 78 l 167 110 b 401 344 167 260 251 297 l 471 365 b 768 686 651 422 768 497 l 768 699 b 433 992 768 874 633 992 b 88 664 233 992 88 875 l 88 646 l 171 646 l 171 664 b 433 914 171 832 279 914 b 682 696 578 914 682 831 l 682 690 b 451 443 682 544 588 485 l 382 421 b 81 96 199 364 81 304 z "},"3":{"ha":838,"x_min":0,"x_max":0,"o":"m 421 -19 b 760 281 626 -19 760 100 l 760 294 b 444 568 760 474 624 568 l 368 568 l 368 582 l 758 847 l 758 972 l 92 972 l 92 894 l 672 894 l 672 881 l 278 613 l 278 496 l 421 496 b 674 292 560 496 674 435 l 674 283 b 421 58 674 154 579 58 b 156 311 263 58 156 154 l 156 339 l 69 339 l 69 313 b 421 -19 69 100 217 -19 z "},"4":{"ha":861,"x_min":0,"x_max":0,"o":"m 567 0 l 653 0 l 653 200 l 822 200 l 822 278 l 653 278 l 653 972 l 486 972 l 47 303 l 47 200 l 567 200 z m 138 278 l 138 292 l 550 922 l 567 922 l 567 278 z "},"5":{"ha":831,"x_min":0,"x_max":0,"o":"m 418 -19 b 757 314 628 -19 757 119 l 757 328 b 456 653 757 528 624 653 b 210 518 308 653 239 581 l 193 518 l 193 894 l 735 894 l 735 972 l 107 972 l 107 454 l 235 454 b 436 578 261 506 313 578 b 671 326 576 578 671 481 l 671 315 b 417 58 671 154 575 58 b 164 308 268 58 164 142 l 164 322 l 78 322 l 78 304 b 418 -19 78 111 213 -19 z "},"6":{"ha":847,"x_min":0,"x_max":0,"o":"m 429 -19 b 769 301 621 -19 769 103 l 769 318 b 450 639 769 514 629 639 b 192 513 306 639 226 575 l 175 513 l 175 661 b 432 914 175 818 268 914 b 675 701 590 914 675 829 l 761 701 b 432 992 761 864 646 992 b 89 651 215 992 89 861 l 89 308 b 429 -19 89 101 236 -19 z m 429 58 b 175 303 279 58 175 151 l 175 314 b 429 564 175 465 281 564 b 683 314 578 564 683 465 l 683 303 b 429 58 683 151 579 58 z "},"7":{"ha":789,"x_min":0,"x_max":0,"o":"m 222 0 l 308 0 l 308 33 b 336 143 308 82 315 106 l 742 871 l 742 972 l 49 972 l 49 894 l 650 894 l 650 882 l 263 188 b 222 33 231 128 222 96 z "},"8":{"ha":878,"x_min":0,"x_max":0,"o":"m 439 -19 b 803 254 665 -19 803 90 l 803 268 b 603 497 803 418 685 485 l 603 514 b 783 726 685 533 783 597 l 783 740 b 439 992 783 900 636 992 b 94 740 242 992 94 900 l 94 726 b 275 514 94 597 193 533 l 275 497 b 75 268 193 485 75 418 l 75 254 b 439 -19 75 90 211 -19 z m 439 542 b 181 722 279 542 181 607 l 181 733 b 439 914 181 849 279 914 b 697 733 599 914 697 849 l 697 722 b 439 542 697 607 599 542 z m 439 58 b 161 256 271 58 161 125 l 161 267 b 439 464 161 397 269 464 b 717 267 607 464 717 397 l 717 256 b 439 58 717 125 607 58 z "},"9":{"ha":847,"x_min":0,"x_max":0,"o":"m 415 -19 b 758 321 632 -19 758 111 l 758 664 b 418 992 758 871 611 992 b 78 671 226 992 78 869 l 78 654 b 397 333 78 458 218 333 b 656 460 542 333 621 397 l 672 460 l 672 311 b 415 58 672 154 579 58 b 172 271 257 58 172 143 l 86 271 b 415 -19 86 108 201 -19 z m 418 408 b 164 658 269 408 164 507 l 164 669 b 418 914 164 821 268 914 b 672 669 568 914 672 821 l 672 658 b 418 408 672 507 567 408 z "},"\r":{"ha":833,"x_min":0,"x_max":0,"o":""}," ":{"ha":358,"x_min":0,"x_max":0,"o":""},"A":{"ha":872,"x_min":0,"x_max":0,"o":"m 39 0 l 132 0 l 215 258 l 657 258 l 740 0 l 833 0 l 515 972 l 357 972 z m 240 339 l 428 919 l 444 919 l 632 339 z "},"B":{"ha":917,"x_min":0,"x_max":0,"o":"m 67 0 l 544 0 b 836 253 710 0 836 94 l 836 267 b 672 483 836 403 744 465 l 672 500 b 836 718 743 521 836 582 l 836 729 b 549 972 836 874 715 972 l 67 972 l 67 892 l 206 892 l 206 81 l 67 81 z m 294 531 l 294 892 l 542 892 b 747 718 669 892 747 822 l 747 704 b 542 531 747 600 669 531 z m 294 81 l 294 450 l 536 450 b 747 271 675 450 747 381 l 747 260 b 536 81 747 150 675 81 z "},"C":{"ha":890,"x_min":0,"x_max":0,"o":"m 464 -19 b 813 335 689 -19 813 117 l 813 353 l 724 353 l 724 332 b 464 61 724 172 642 61 b 178 374 283 61 178 175 l 178 599 b 464 911 178 797 283 911 b 724 640 642 911 724 800 l 724 631 l 813 631 l 813 638 b 464 992 813 856 689 992 b 89 596 236 992 89 856 l 89 376 b 464 -19 89 117 236 -19 z "},"D":{"ha":919,"x_min":0,"x_max":0,"o":"m 67 0 l 436 0 b 839 396 689 0 839 124 l 839 575 b 436 972 839 847 689 972 l 67 972 l 67 892 l 206 892 l 206 81 l 67 81 z m 294 81 l 294 890 l 436 890 b 750 579 639 890 750 799 l 750 392 b 436 81 750 172 639 81 z "},"E":{"ha":788,"x_min":0,"x_max":0,"o":"m 119 0 l 713 0 l 713 81 l 208 81 l 208 447 l 668 447 l 668 528 l 208 528 l 208 892 l 707 892 l 707 972 l 119 972 z "},"F":{"ha":753,"x_min":0,"x_max":0,"o":"m 119 0 l 208 0 l 208 447 l 657 447 l 657 528 l 208 528 l 208 892 l 697 892 l 697 972 l 119 972 z "},"G":{"ha":915,"x_min":0,"x_max":0,"o":"m 458 -19 b 710 110 608 -19 676 42 l 726 110 l 726 0 l 807 0 l 807 449 l 400 449 l 400 371 l 721 371 l 721 343 b 464 61 721 171 639 61 b 178 374 283 61 178 175 l 178 599 b 464 911 178 797 283 911 b 718 649 642 911 718 800 l 718 639 l 807 639 l 807 646 b 464 992 807 856 689 992 b 89 596 236 992 89 856 l 89 376 b 458 -19 89 117 236 -19 z "},"H":{"ha":911,"x_min":0,"x_max":0,"o":"m 119 0 l 208 0 l 208 447 l 703 447 l 703 0 l 792 0 l 792 972 l 703 972 l 703 528 l 208 528 l 208 972 l 119 972 z "},"I":{"ha":328,"x_min":0,"x_max":0,"o":"m 119 0 l 208 0 l 208 972 l 119 972 z "},"J":{"ha":817,"x_min":0,"x_max":0,"o":"m 363 -19 b 650 292 554 -19 650 89 l 650 892 l 753 892 l 753 972 l 389 972 l 389 892 l 561 892 l 561 292 b 364 61 561 156 511 61 b 150 292 219 61 150 156 l 150 360 l 61 360 l 61 292 b 363 -19 61 89 176 -19 z "},"K":{"ha":839,"x_min":0,"x_max":0,"o":"m 119 0 l 208 0 l 208 447 l 225 447 l 690 0 l 817 0 l 297 492 l 800 972 l 675 972 l 225 533 l 208 533 l 208 972 l 119 972 z "},"L":{"ha":760,"x_min":0,"x_max":0,"o":"m 119 0 l 719 0 l 719 81 l 208 81 l 208 972 l 119 972 z "},"M":{"ha":1192,"x_min":0,"x_max":0,"o":"m 119 0 l 206 0 l 206 919 l 222 919 l 517 0 l 675 0 l 969 919 l 986 919 l 986 0 l 1072 0 l 1072 972 l 899 972 l 604 53 l 588 53 l 293 972 l 119 972 z "},"N":{"ha":918,"x_min":0,"x_max":0,"o":"m 119 0 l 208 0 l 208 921 l 225 921 l 622 0 l 799 0 l 799 972 l 710 972 l 710 53 l 693 53 l 296 972 l 119 972 z "},"O":{"ha":925,"x_min":0,"x_max":0,"o":"m 463 -19 b 836 376 690 -19 836 117 l 836 596 b 463 992 836 856 690 992 b 89 596 235 992 89 856 l 89 376 b 463 -19 89 117 235 -19 z m 463 61 b 178 374 282 61 178 175 l 178 599 b 463 911 178 797 282 911 b 747 599 643 911 747 797 l 747 374 b 463 61 747 175 643 61 z "},"P":{"ha":833,"x_min":0,"x_max":0,"o":"m 119 0 l 208 0 l 208 406 l 479 406 b 783 681 647 406 783 506 l 783 697 b 479 972 783 872 650 972 l 119 972 z m 208 486 l 208 892 l 469 892 b 694 696 611 892 694 821 l 694 682 b 469 486 694 557 608 486 z "},"Q":{"ha":925,"x_min":0,"x_max":0,"o":"m 515 -214 l 640 -214 l 640 -137 l 544 -137 b 506 -96 519 -137 506 -124 l 506 -18 b 836 376 708 -1 836 133 l 836 596 b 463 992 836 856 690 992 b 89 596 235 992 89 856 l 89 376 b 418 -18 89 133 215 -1 l 418 -114 b 515 -214 418 -176 456 -214 z m 463 61 b 178 374 282 61 178 175 l 178 599 b 463 911 178 797 282 911 b 747 599 643 911 747 797 l 747 374 b 463 61 747 175 643 61 z "},"R":{"ha":876,"x_min":0,"x_max":0,"o":"m 119 0 l 208 0 l 208 413 l 578 413 b 675 321 643 413 675 381 l 675 0 l 764 0 l 764 331 b 649 454 764 415 713 451 l 649 471 b 807 700 733 494 807 568 l 807 714 b 500 972 807 878 679 972 l 119 972 z m 208 493 l 208 892 l 492 892 b 718 696 639 892 718 822 l 718 689 b 492 493 718 563 636 493 z "},"S":{"ha":856,"x_min":0,"x_max":0,"o":"m 438 -19 b 778 258 643 -19 778 89 b 496 525 778 428 647 488 l 407 547 b 188 733 272 581 188 617 b 421 914 188 850 285 914 b 672 699 563 914 672 850 l 672 633 l 761 633 l 761 699 b 421 992 761 892 611 992 b 99 733 231 992 99 892 b 375 469 99 575 215 510 l 464 447 b 689 258 597 414 689 375 b 438 58 689 142 599 58 b 164 322 278 58 164 142 l 164 349 l 75 349 l 75 322 b 438 -19 75 89 231 -19 z "},"T":{"ha":817,"x_min":0,"x_max":0,"o":"m 364 0 l 453 0 l 453 892 l 778 892 l 778 972 l 39 972 l 39 892 l 364 892 z "},"U":{"ha":922,"x_min":0,"x_max":0,"o":"m 461 -19 b 811 318 669 -19 811 90 l 811 972 l 722 972 l 722 318 b 461 61 722 144 626 61 b 200 318 296 61 200 144 l 200 972 l 111 972 l 111 318 b 461 -19 111 90 253 -19 z "},"V":{"ha":861,"x_min":0,"x_max":0,"o":"m 351 0 l 510 0 l 822 972 l 729 972 l 439 51 l 422 51 l 132 972 l 39 972 z "},"W":{"ha":1203,"x_min":0,"x_max":0,"o":"m 226 0 l 392 0 l 593 919 l 610 919 l 811 0 l 976 0 l 1147 972 l 1057 972 l 901 53 l 885 53 l 683 972 l 519 972 l 318 53 l 301 53 l 146 972 l 56 972 z "},"X":{"ha":882,"x_min":0,"x_max":0,"o":"m 50 0 l 157 0 l 432 429 l 449 429 l 725 0 l 832 0 l 507 490 l 826 972 l 719 972 l 449 551 l 432 551 l 163 972 l 56 972 l 375 490 z "},"Y":{"ha":839,"x_min":0,"x_max":0,"o":"m 375 0 l 464 0 l 464 385 l 817 972 l 711 972 l 428 486 l 411 486 l 128 972 l 22 972 l 375 385 z "},"Z":{"ha":803,"x_min":0,"x_max":0,"o":"m 72 0 l 736 0 l 736 81 l 156 81 l 156 94 l 722 850 l 722 972 l 89 972 l 89 892 l 639 892 l 639 878 l 72 122 z "},"a":{"ha":797,"x_min":0,"x_max":0,"o":"m 329 -19 b 565 106 468 -19 529 43 l 579 106 l 579 96 b 672 0 579 36 615 0 l 761 0 l 761 72 l 696 72 b 657 114 671 72 657 86 l 657 442 b 389 694 657 600 558 694 b 97 482 221 694 129 600 l 178 458 b 389 619 201 556 269 619 b 574 446 510 619 574 554 l 574 392 l 326 392 b 76 190 186 392 76 325 b 329 -19 76 56 186 -19 z m 335 56 b 160 192 232 56 160 104 b 328 319 160 278 232 319 l 574 319 l 574 303 b 335 56 574 146 478 56 z "},"b":{"ha":897,"x_min":0,"x_max":0,"o":"m 483 -19 b 808 329 664 -19 808 114 l 808 346 b 483 694 808 560 665 694 b 222 557 335 694 258 625 l 206 557 l 206 972 l 122 972 l 122 0 l 203 0 l 203 124 l 219 124 b 483 -19 258 50 335 -19 z m 464 56 b 206 332 311 56 206 160 l 206 343 b 464 619 206 515 311 619 b 722 343 617 619 722 515 l 722 332 b 464 56 722 160 617 56 z "},"c":{"ha":838,"x_min":0,"x_max":0,"o":"m 431 -19 b 754 238 625 -19 729 106 l 672 254 b 431 56 654 143 578 56 b 172 332 283 56 172 163 l 172 343 b 431 619 172 513 283 619 b 667 421 578 619 653 528 l 749 438 b 431 694 729 568 625 694 b 89 344 233 694 89 560 l 89 331 b 431 -19 89 115 233 -19 z "},"d":{"ha":897,"x_min":0,"x_max":0,"o":"m 414 -19 b 678 124 563 -19 639 50 l 694 124 l 694 0 l 775 0 l 775 972 l 692 972 l 692 557 l 675 557 b 414 694 639 625 563 694 b 89 346 232 694 89 560 l 89 329 b 414 -19 89 114 233 -19 z m 433 56 b 175 332 281 56 175 160 l 175 343 b 433 619 175 515 281 619 b 692 343 586 619 692 515 l 692 332 b 433 56 692 160 586 56 z "},"e":{"ha":831,"x_min":0,"x_max":0,"o":"m 433 -19 b 735 171 613 -19 692 79 l 660 204 b 433 56 622 121 560 56 b 172 319 285 56 178 151 l 747 319 l 747 364 b 424 694 747 569 613 694 b 89 346 229 694 89 553 l 89 329 b 433 -19 89 122 225 -19 z m 174 392 b 424 619 193 538 289 619 b 663 392 560 619 656 538 z "},"f":{"ha":617,"x_min":0,"x_max":0,"o":"m 264 0 l 347 0 l 347 600 l 575 600 l 575 675 l 347 675 l 347 856 b 389 897 347 883 358 897 l 539 897 l 539 972 l 372 972 b 264 867 300 972 264 933 l 264 675 l 42 675 l 42 600 l 264 600 z "},"g":{"ha":894,"x_min":0,"x_max":0,"o":"m 89 335 b 414 -8 89 124 232 -8 b 675 129 563 -8 639 61 l 692 129 l 692 -161 b 649 -203 692 -189 679 -203 l 204 -203 l 204 -278 l 665 -278 b 772 -172 738 -278 772 -239 l 772 675 l 694 675 l 694 551 l 678 551 b 414 694 639 625 563 694 b 89 351 233 694 89 564 z m 433 67 b 175 338 281 67 175 168 l 175 349 b 433 619 175 518 281 619 b 692 349 586 619 692 518 l 692 338 b 433 67 692 168 586 67 z "},"h":{"ha":850,"x_min":0,"x_max":0,"o":"m 122 0 l 206 0 l 206 338 b 449 613 206 522 310 613 b 653 406 572 613 653 553 l 653 0 l 736 0 l 736 411 b 467 688 736 597 613 688 b 222 557 322 688 256 622 l 206 557 l 206 972 l 122 972 z "},"i":{"ha":328,"x_min":0,"x_max":0,"o":"m 164 792 b 236 864 206 792 236 822 b 164 936 236 906 206 936 b 92 864 122 936 92 906 b 164 792 92 822 122 792 z m 122 0 l 206 0 l 206 675 l 122 675 z "},"j":{"ha":331,"x_min":0,"x_max":0,"o":"m 167 792 b 239 864 208 792 239 822 b 167 936 239 906 208 936 b 94 864 125 936 94 906 b 167 792 94 822 125 792 z m -14 -278 l 100 -278 b 208 -172 172 -278 208 -239 l 208 675 l 125 675 l 125 -161 b 83 -203 125 -189 114 -203 l -14 -203 z "},"k":{"ha":732,"x_min":0,"x_max":0,"o":"m 122 0 l 206 0 l 206 304 l 222 304 l 581 0 l 701 0 l 290 346 l 690 675 l 568 675 l 222 386 l 206 386 l 206 972 l 122 972 z "},"l":{"ha":328,"x_min":0,"x_max":0,"o":"m 122 0 l 206 0 l 206 972 l 122 972 z "},"m":{"ha":1197,"x_min":0,"x_max":0,"o":"m 122 0 l 206 0 l 206 410 b 394 614 206 543 288 614 b 561 454 500 614 561 550 l 561 0 l 644 0 l 644 410 b 833 614 644 543 726 614 b 1000 454 939 614 1000 550 l 1000 0 l 1083 0 l 1083 463 b 853 689 1083 597 990 689 b 639 561 732 689 669 632 l 622 561 b 417 689 592 631 525 689 b 219 586 303 689 247 636 l 203 586 l 203 675 l 122 675 z "},"n":{"ha":850,"x_min":0,"x_max":0,"o":"m 122 0 l 206 0 l 206 338 b 449 614 206 522 310 614 b 653 406 572 614 653 553 l 653 0 l 736 0 l 736 411 b 467 689 736 597 613 689 b 219 550 322 689 253 622 l 203 550 l 203 675 l 122 675 z "},"o":{"ha":861,"x_min":0,"x_max":0,"o":"m 431 -19 b 772 329 636 -19 772 121 l 772 346 b 431 694 772 554 636 694 b 89 346 225 694 89 554 l 89 329 b 431 -19 89 121 225 -19 z m 431 56 b 172 332 272 56 172 165 l 172 343 b 431 619 172 510 272 619 b 689 343 589 619 689 510 l 689 332 b 431 56 689 165 589 56 z "},"p":{"ha":897,"x_min":0,"x_max":0,"o":"m 122 -278 l 206 -278 l 206 118 l 222 118 b 483 -19 258 50 335 -19 b 808 329 665 -19 808 115 l 808 346 b 483 694 808 561 664 694 b 219 551 335 694 258 625 l 203 551 l 203 675 l 122 675 z m 464 56 b 206 332 311 56 206 160 l 206 343 b 464 619 206 515 311 619 b 722 343 617 619 722 515 l 722 332 b 464 56 722 160 617 56 z "},"q":{"ha":897,"x_min":0,"x_max":0,"o":"m 692 -278 l 775 -278 l 775 675 l 694 675 l 694 551 l 678 551 b 414 694 639 625 563 694 b 89 346 233 694 89 561 l 89 329 b 414 -19 89 115 232 -19 b 675 118 563 -19 639 50 l 692 118 z m 433 56 b 175 332 281 56 175 160 l 175 343 b 433 619 175 515 281 619 b 692 343 586 619 692 515 l 692 332 b 433 56 692 160 586 56 z "},"r":{"ha":513,"x_min":0,"x_max":0,"o":"m 122 0 l 206 0 l 206 422 b 374 600 206 544 271 600 l 463 600 l 463 678 l 383 678 b 219 590 293 678 244 651 l 203 590 l 203 675 l 122 675 z "},"s":{"ha":733,"x_min":0,"x_max":0,"o":"m 390 -19 b 658 181 554 -19 658 53 b 413 376 658 308 550 353 l 349 388 b 193 507 253 404 193 432 b 361 622 193 582 258 622 b 557 475 464 622 539 582 l 635 492 b 361 694 610 624 514 694 b 110 507 208 694 110 624 b 336 314 110 390 207 336 l 400 303 b 575 181 506 285 575 261 b 390 53 575 100 501 53 b 157 247 279 53 178 100 l 75 232 b 390 -19 100 53 226 -19 z "},"t":{"ha":642,"x_min":0,"x_max":0,"o":"m 367 0 l 542 0 l 542 75 l 383 75 b 342 117 353 75 342 89 l 342 600 l 578 600 l 578 675 l 342 675 l 342 928 l 258 928 l 258 675 l 42 675 l 42 600 l 258 600 l 258 106 b 367 0 258 39 294 0 z "},"u":{"ha":849,"x_min":0,"x_max":0,"o":"m 382 -14 b 629 125 526 -14 596 53 l 646 125 l 646 0 l 726 0 l 726 675 l 643 675 l 643 338 b 400 61 643 153 539 61 b 196 269 276 61 196 122 l 196 675 l 113 675 l 113 264 b 382 -14 113 78 236 -14 z "},"v":{"ha":744,"x_min":0,"x_max":0,"o":"m 306 0 l 439 0 l 692 675 l 603 675 l 381 64 l 364 64 l 142 675 l 53 675 z "},"w":{"ha":1122,"x_min":0,"x_max":0,"o":"m 233 0 l 379 0 l 553 619 l 569 619 l 743 0 l 889 0 l 1042 675 l 956 675 l 822 56 l 806 56 l 632 675 l 490 675 l 317 56 l 300 56 l 167 675 l 81 675 z "},"x":{"ha":825,"x_min":0,"x_max":0,"o":"m 69 0 l 175 0 l 404 288 l 421 288 l 650 0 l 756 0 l 474 343 l 746 675 l 642 675 l 421 399 l 404 399 l 183 675 l 79 675 l 351 343 z "},"y":{"ha":849,"x_min":0,"x_max":0,"o":"m 207 -278 l 618 -278 b 726 -172 690 -278 726 -239 l 726 675 l 643 675 l 643 336 b 400 61 643 151 539 61 b 196 268 276 61 196 121 l 196 675 l 113 675 l 113 263 b 382 -14 113 76 236 -14 b 626 117 526 -14 593 51 l 643 117 l 643 -161 b 601 -203 643 -189 632 -203 l 207 -203 z "},"z":{"ha":725,"x_min":0,"x_max":0,"o":"m 89 0 l 639 0 l 639 75 l 172 75 l 172 89 l 628 561 l 628 675 l 103 675 l 103 600 l 543 600 l 543 586 l 89 114 z "},"[":{"ha":453,"x_min":0,"x_max":0,"o":"m 217 -319 l 425 -319 l 425 -247 l 240 -247 b 203 -206 215 -247 203 -233 l 203 914 b 240 956 203 942 215 956 l 425 956 l 425 1028 l 217 1028 b 122 932 161 1028 122 986 l 122 -224 b 217 -319 122 -278 161 -319 z "},"]":{"ha":453,"x_min":0,"x_max":0,"o":"m 28 -319 l 236 -319 b 331 -224 292 -319 331 -278 l 331 932 b 236 1028 331 986 292 1028 l 28 1028 l 28 956 l 213 956 b 250 914 238 956 250 942 l 250 -206 b 213 -247 250 -233 238 -247 l 28 -247 z "},"{":{"ha":581,"x_min":0,"x_max":0,"o":"m 344 -319 l 553 -319 l 553 -247 l 368 -247 b 331 -206 343 -247 331 -233 l 331 235 b 229 346 331 303 296 346 l 225 346 l 225 363 l 229 363 b 331 474 296 363 331 406 l 331 914 b 368 956 331 942 343 956 l 553 956 l 553 1028 l 344 1028 b 250 932 290 1028 250 986 l 250 476 b 160 394 250 422 221 394 l 56 394 l 56 314 l 160 314 b 250 232 221 314 250 286 l 250 -224 b 344 -319 250 -278 290 -319 z "},"}":{"ha":581,"x_min":0,"x_max":0,"o":"m 28 -319 l 236 -319 b 331 -224 290 -319 331 -278 l 331 232 b 421 314 331 286 360 314 l 525 314 l 525 394 l 421 394 b 331 476 360 394 331 422 l 331 932 b 236 1028 331 986 290 1028 l 28 1028 l 28 956 l 213 956 b 250 914 238 956 250 942 l 250 474 b 351 363 250 406 285 363 l 356 363 l 356 346 l 351 346 b 250 235 285 346 250 303 l 250 -206 b 213 -247 250 -233 238 -247 l 28 -247 z "},"(":{"ha":515,"x_min":0,"x_max":0,"o":"m 501 -319 l 501 -247 b 169 124 271 -243 169 -124 l 169 585 b 501 956 169 832 271 951 l 501 1028 b 89 592 249 1028 89 904 l 89 117 b 501 -319 89 -196 249 -319 z "},")":{"ha":515,"x_min":0,"x_max":0,"o":"m 14 -319 b 426 117 267 -319 426 -196 l 426 592 b 14 1028 426 904 267 1028 l 14 956 b 346 585 244 951 346 832 l 346 124 b 14 -247 346 -124 244 -243 z "},"/":{"ha":504,"x_min":0,"x_max":0,"o":"m 8 -278 l 93 -278 l 501 972 l 417 972 z "},"|":{"ha":322,"x_min":0,"x_max":0,"o":"m 119 -342 l 203 -342 l 203 1119 l 119 1119 z "},"¦":{"ha":322,"x_min":0,"x_max":0,"o":"m 119 508 l 203 508 l 203 1119 l 119 1119 z m 119 -342 l 203 -342 l 203 269 l 119 269 z "},"\\":{"ha":504,"x_min":0,"x_max":0,"o":"m 411 -278 l 496 -278 l 88 972 l 3 972 z "},"'":{"ha":325,"x_min":0,"x_max":0,"o":"m 103 692 l 138 692 b 242 797 208 692 242 725 l 242 913 b 163 992 242 957 207 992 b 83 915 118 992 83 960 b 163 839 83 871 118 839 l 181 839 l 181 794 b 136 750 181 764 167 750 l 103 750 z "},"\"":{"ha":539,"x_min":0,"x_max":0,"o":"m 103 692 l 138 692 b 242 797 208 692 242 725 l 242 913 b 163 992 242 957 207 992 b 83 915 118 992 83 960 b 163 839 83 871 118 839 l 181 839 l 181 794 b 136 750 181 764 167 750 l 103 750 z m 317 692 l 351 692 b 456 797 422 692 456 725 l 456 913 b 376 992 456 957 421 992 b 297 915 332 992 297 960 b 376 839 297 871 332 839 l 394 839 l 394 794 b 350 750 394 764 381 750 l 317 750 z "},"‘":{"ha":325,"x_min":0,"x_max":0,"o":"m 222 992 l 188 992 b 83 886 117 992 83 958 l 83 771 b 163 692 83 726 118 692 b 242 768 207 692 242 724 b 163 844 242 813 207 844 l 144 844 l 144 889 b 189 933 144 919 158 933 l 222 933 z "},"’":{"ha":325,"x_min":0,"x_max":0,"o":"m 103 692 l 138 692 b 242 797 208 692 242 725 l 242 913 b 163 992 242 957 207 992 b 83 915 118 992 83 960 b 163 839 83 871 118 839 l 181 839 l 181 794 b 136 750 181 764 167 750 l 103 750 z "},"“":{"ha":539,"x_min":0,"x_max":0,"o":"m 436 992 l 401 992 b 297 886 331 992 297 958 l 297 771 b 376 692 297 726 332 692 b 456 768 421 692 456 724 b 376 844 456 813 421 844 l 358 844 l 358 889 b 403 933 358 919 372 933 l 436 933 z m 222 992 l 188 992 b 83 886 117 992 83 958 l 83 771 b 163 692 83 726 118 692 b 242 768 207 692 242 724 b 163 844 242 813 207 844 l 144 844 l 144 889 b 189 933 144 919 158 933 l 222 933 z "},"”":{"ha":539,"x_min":0,"x_max":0,"o":"m 103 692 l 138 692 b 242 797 208 692 242 725 l 242 913 b 163 992 242 957 207 992 b 83 915 118 992 83 960 b 163 839 83 871 118 839 l 181 839 l 181 794 b 136 750 181 764 167 750 l 103 750 z m 317 692 l 351 692 b 456 797 422 692 456 725 l 456 913 b 376 992 456 957 421 992 b 297 915 332 992 297 960 b 376 839 297 871 332 839 l 394 839 l 394 794 b 350 750 394 764 381 750 l 317 750 z "},"‚":{"ha":325,"x_min":0,"x_max":0,"o":"m 103 -161 l 138 -161 b 242 -56 208 -161 242 -128 l 242 60 b 163 139 242 104 207 139 b 83 63 118 139 83 107 b 163 -14 83 18 118 -14 l 181 -14 l 181 -58 b 136 -103 181 -89 167 -103 l 103 -103 z "},"„":{"ha":539,"x_min":0,"x_max":0,"o":"m 103 -161 l 138 -161 b 242 -56 208 -161 242 -128 l 242 60 b 163 139 242 104 207 139 b 83 63 118 139 83 107 b 163 -14 83 18 118 -14 l 181 -14 l 181 -58 b 136 -103 181 -89 167 -103 l 103 -103 z m 317 -161 l 351 -161 b 456 -56 422 -161 456 -128 l 456 60 b 376 139 456 104 421 139 b 297 63 332 139 297 107 b 376 -14 297 18 332 -14 l 394 -14 l 394 -58 b 350 -103 394 -89 381 -103 l 317 -103 z "},".":{"ha":325,"x_min":0,"x_max":0,"o":"m 163 -19 b 242 60 208 -19 242 14 b 163 139 242 106 208 139 b 83 60 117 139 83 106 b 163 -19 83 14 117 -19 z "},",":{"ha":325,"x_min":0,"x_max":0,"o":"m 103 -161 l 138 -161 b 242 -56 208 -161 242 -128 l 242 60 b 163 139 242 104 207 139 b 83 63 118 139 83 107 b 163 -14 83 18 118 -14 l 181 -14 l 181 -58 b 136 -103 181 -89 167 -103 l 103 -103 z "},":":{"ha":325,"x_min":0,"x_max":0,"o":"m 163 536 b 242 615 208 536 242 569 b 163 694 242 661 208 694 b 83 615 117 694 83 661 b 163 536 83 569 117 536 z m 163 -19 b 242 60 208 -19 242 14 b 163 139 242 106 208 139 b 83 60 117 139 83 106 b 163 -19 83 14 117 -19 z "},";":{"ha":325,"x_min":0,"x_max":0,"o":"m 163 536 b 242 615 208 536 242 569 b 163 694 242 661 208 694 b 83 615 117 694 83 661 b 163 536 83 569 117 536 z m 103 -161 l 138 -161 b 242 -56 208 -161 242 -128 l 242 60 b 163 139 242 104 207 139 b 83 63 118 139 83 107 b 163 -14 83 18 118 -14 l 181 -14 l 181 -58 b 136 -103 181 -89 167 -103 l 103 -103 z "},"…":{"ha":875,"x_min":0,"x_max":0,"o":"m 163 -19 b 242 60 208 -19 242 14 b 163 139 242 106 208 139 b 83 60 117 139 83 106 b 163 -19 83 14 117 -19 z m 438 -19 b 517 60 483 -19 517 14 b 438 139 517 106 483 139 b 358 60 392 139 358 106 b 438 -19 358 14 392 -19 z m 713 -19 b 792 60 758 -19 792 14 b 713 139 792 106 758 139 b 633 60 667 139 633 106 b 713 -19 633 14 667 -19 z "},"!":{"ha":325,"x_min":0,"x_max":0,"o":"m 119 236 l 206 236 l 206 972 l 119 972 z m 163 -19 b 242 60 208 -19 242 14 b 163 139 242 106 208 139 b 83 60 117 139 83 106 b 163 -19 83 14 117 -19 z "},"¡":{"ha":325,"x_min":0,"x_max":0,"o":"m 163 694 b 83 615 117 694 83 661 b 163 536 83 569 117 536 b 242 615 208 536 242 569 b 163 694 242 661 208 694 z m 119 -278 l 206 -278 l 206 439 l 119 439 z "},"?":{"ha":807,"x_min":0,"x_max":0,"o":"m 346 236 l 432 236 l 432 342 b 482 425 432 389 446 410 l 526 444 b 740 719 644 493 740 567 b 408 992 740 876 606 992 b 64 701 208 992 64 889 l 64 643 l 150 643 l 150 700 b 408 917 150 846 272 917 b 654 719 543 917 654 846 b 492 513 654 606 592 553 l 447 493 b 346 340 368 460 346 422 z m 389 -19 b 468 60 435 -19 468 14 b 389 139 468 106 435 139 b 310 60 343 139 310 106 b 389 -19 310 14 343 -19 z "},"¿":{"ha":807,"x_min":0,"x_max":0,"o":"m 417 694 b 338 615 371 694 338 661 b 417 536 338 569 371 536 b 496 615 463 536 496 569 b 417 694 496 661 463 694 z m 399 -300 b 743 -10 599 -300 743 -197 l 743 49 l 657 49 l 657 -8 b 399 -225 657 -154 535 -225 b 153 -28 264 -225 153 -154 b 315 179 153 86 217 136 l 360 199 b 461 351 439 233 461 269 l 461 439 l 375 439 l 375 350 b 325 267 375 303 361 282 l 281 247 b 67 -28 164 196 67 125 b 399 -300 67 -185 201 -300 z "},"‹":{"ha":631,"x_min":0,"x_max":0,"o":"m 525 39 l 533 39 l 533 126 l 153 336 l 153 350 l 533 560 l 533 647 l 525 647 l 72 394 l 72 292 z "},"›":{"ha":631,"x_min":0,"x_max":0,"o":"m 97 39 l 106 39 l 558 292 l 558 394 l 106 647 l 97 647 l 97 560 l 478 350 l 478 336 l 97 126 z "},"-":{"ha":644,"x_min":0,"x_max":0,"o":"m 117 319 l 528 319 l 528 397 l 117 397 z "},"–":{"ha":856,"x_min":0,"x_max":0,"o":"m 117 319 l 739 319 l 739 397 l 117 397 z "},"—":{"ha":1278,"x_min":0,"x_max":0,"o":"m 117 319 l 1161 319 l 1161 397 l 117 397 z "},"·":{"ha":242,"x_min":0,"x_max":0,"o":"m 121 321 b 200 400 167 321 200 354 b 121 479 200 446 167 479 b 42 400 75 479 42 446 b 121 321 42 354 75 321 z "},"•":{"ha":478,"x_min":0,"x_max":0,"o":"m 239 208 b 392 358 325 208 392 272 b 239 508 392 444 325 508 b 86 358 153 508 86 444 b 239 208 86 272 153 208 z "},"_":{"ha":861,"x_min":0,"x_max":0,"o":"m 114 -147 l 747 -147 l 747 -69 l 114 -69 z "},"@":{"ha":1432,"x_min":0,"x_max":0,"o":"m 743 -278 l 1013 -278 l 1013 -203 l 746 -203 b 197 336 425 -203 197 -19 l 197 358 b 718 897 197 714 406 897 l 743 897 b 1240 392 1044 897 1240 715 l 1240 376 b 1065 72 1240 156 1190 72 l 1044 72 b 1013 104 1022 72 1013 79 l 1013 664 l 932 664 l 932 560 l 915 560 b 697 683 888 615 832 683 b 410 344 536 683 410 542 l 410 319 b 699 -19 410 124 536 -19 b 918 111 836 -19 893 54 l 935 111 l 935 93 b 1042 0 935 35 971 0 l 1074 0 b 1324 368 1231 0 1324 117 l 1324 394 b 743 972 1324 758 1086 972 l 715 972 b 114 361 361 972 114 756 l 114 333 b 743 -278 114 -61 381 -278 z m 713 57 b 493 324 585 57 493 161 l 493 340 b 713 607 493 503 585 607 b 932 339 840 607 932 507 l 932 325 b 713 57 932 157 840 57 z "},"&":{"ha":847,"x_min":0,"x_max":0,"o":"m 356 0 l 667 0 l 667 453 l 806 453 l 806 528 l 667 528 l 667 688 l 583 688 l 583 528 l 368 528 b 167 711 258 528 167 583 b 368 897 167 839 257 897 l 546 897 l 546 972 l 361 972 b 81 715 211 972 81 882 b 238 499 81 592 156 525 l 238 485 b 69 256 154 454 69 378 b 356 0 69 92 199 0 z m 363 75 b 156 264 249 75 156 133 b 363 453 156 393 247 453 l 583 453 l 583 75 z "},"*":{"ha":711,"x_min":0,"x_max":0,"o":"m 67 651 l 189 651 l 283 661 l 290 647 l 215 588 l 129 501 l 174 457 l 260 543 l 319 618 l 333 611 l 324 517 l 324 394 l 388 394 l 388 517 l 378 611 l 392 618 l 451 543 l 538 457 l 582 501 l 496 588 l 421 647 l 428 661 l 522 651 l 644 651 l 644 715 l 522 715 l 428 706 l 421 719 l 496 779 l 582 865 l 538 910 l 451 824 l 392 749 l 378 756 l 388 850 l 388 972 l 324 972 l 324 850 l 333 756 l 319 749 l 260 824 l 174 910 l 129 865 l 215 779 l 290 719 l 283 706 l 189 715 l 67 715 z "},"À":{"ha":872,"x_min":0,"x_max":0,"o":"m 415 1058 l 501 1058 l 410 1222 l 301 1222 z m 39 0 l 132 0 l 215 258 l 657 258 l 740 0 l 833 0 l 515 972 l 357 972 z m 240 339 l 428 919 l 444 919 l 632 339 z "},"Á":{"ha":872,"x_min":0,"x_max":0,"o":"m 371 1053 l 457 1053 l 571 1217 l 463 1217 z m 39 0 l 132 0 l 215 258 l 657 258 l 740 0 l 833 0 l 515 972 l 357 972 z m 240 339 l 428 919 l 444 919 l 632 339 z "},"Â":{"ha":872,"x_min":0,"x_max":0,"o":"m 204 1053 l 317 1053 l 428 1158 l 444 1158 l 556 1053 l 668 1053 l 485 1217 l 388 1217 z m 39 0 l 132 0 l 215 258 l 657 258 l 740 0 l 833 0 l 515 972 l 357 972 z m 240 339 l 428 919 l 444 919 l 632 339 z "},"Ã":{"ha":872,"x_min":0,"x_max":0,"o":"m 269 1060 l 310 1125 b 353 1156 321 1143 333 1156 b 411 1115 372 1156 385 1144 b 521 1053 449 1075 478 1053 b 614 1111 568 1053 596 1081 l 658 1185 l 603 1218 l 561 1151 b 519 1122 550 1133 539 1122 b 461 1163 500 1122 488 1133 b 351 1225 424 1203 394 1225 b 258 1167 304 1225 276 1197 l 214 1093 z m 39 0 l 132 0 l 215 258 l 657 258 l 740 0 l 833 0 l 515 972 l 357 972 z m 240 339 l 428 919 l 444 919 l 632 339 z "},"Ä":{"ha":872,"x_min":0,"x_max":0,"o":"m 567 1058 b 638 1129 608 1058 638 1088 b 567 1200 638 1171 608 1200 b 496 1129 525 1200 496 1171 b 567 1058 496 1088 525 1058 z m 306 1058 b 376 1129 347 1058 376 1088 b 306 1200 376 1171 347 1200 b 235 1129 264 1200 235 1171 b 306 1058 235 1088 264 1058 z m 39 0 l 132 0 l 215 258 l 657 258 l 740 0 l 833 0 l 515 972 l 357 972 z m 240 339 l 428 919 l 444 919 l 632 339 z "},"Ā":{"ha":872,"x_min":0,"x_max":0,"o":"m 228 1075 l 644 1075 l 644 1147 l 228 1147 z m 39 0 l 132 0 l 215 258 l 657 258 l 740 0 l 833 0 l 515 972 l 357 972 z m 240 339 l 428 919 l 444 919 l 632 339 z "},"Ă":{"ha":872,"x_min":0,"x_max":0,"o":"m 436 1044 b 636 1215 563 1044 636 1115 l 636 1219 l 558 1219 l 558 1215 b 436 1111 558 1153 518 1111 b 315 1215 356 1111 315 1153 l 315 1219 l 238 1219 l 238 1215 b 436 1044 238 1115 310 1044 z m 39 0 l 132 0 l 215 258 l 657 258 l 740 0 l 833 0 l 515 972 l 357 972 z m 240 339 l 428 919 l 444 919 l 632 339 z "},"Å":{"ha":872,"x_min":0,"x_max":0,"o":"m 436 1039 b 571 1169 513 1039 571 1092 b 436 1300 571 1247 513 1300 b 303 1169 361 1300 303 1247 b 436 1039 303 1092 361 1039 z m 436 1103 b 369 1169 396 1103 369 1131 b 436 1236 369 1208 396 1236 b 504 1169 478 1236 504 1208 b 436 1103 504 1131 478 1103 z m 39 0 l 132 0 l 215 258 l 657 258 l 740 0 l 833 0 l 515 972 l 357 972 z m 240 339 l 428 919 l 444 919 l 632 339 z "},"Ą":{"ha":872,"x_min":0,"x_max":0,"o":"m 39 0 l 132 0 l 215 258 l 657 258 l 740 0 l 753 0 l 740 -56 b 728 -136 733 -85 728 -110 b 822 -225 728 -194 763 -225 l 889 -225 l 889 -153 l 832 -153 b 801 -126 813 -153 801 -143 b 807 -90 801 -114 804 -107 l 824 0 l 833 0 l 515 972 l 357 972 z m 240 339 l 428 919 l 444 919 l 632 339 z "},"Æ":{"ha":1160,"x_min":0,"x_max":0,"o":"m 39 0 l 136 0 l 247 258 l 547 258 l 547 0 l 1085 0 l 1085 81 l 636 81 l 636 447 l 1040 447 l 1040 528 l 636 528 l 636 892 l 1079 892 l 1079 972 l 464 972 z m 547 339 l 282 339 l 532 919 l 547 919 z "},"Ç":{"ha":890,"x_min":0,"x_max":0,"o":"m 465 -281 b 604 -172 542 -281 604 -244 b 486 -67 604 -104 558 -67 l 490 -19 b 813 335 699 -8 813 125 l 813 353 l 724 353 l 724 332 b 464 61 724 172 642 61 b 178 374 283 61 178 175 l 178 599 b 464 911 178 797 283 911 b 724 640 642 911 724 800 l 724 631 l 813 631 l 813 638 b 464 992 813 856 689 992 b 89 596 236 992 89 856 l 89 376 b 425 -18 89 132 219 -3 l 415 -118 l 465 -118 b 535 -167 507 -118 535 -135 b 465 -217 535 -201 504 -217 b 361 -178 424 -217 390 -200 l 325 -233 b 465 -281 361 -261 410 -281 z "},"Ć":{"ha":890,"x_min":0,"x_max":0,"o":"m 399 1053 l 485 1053 l 599 1217 l 490 1217 z m 464 -19 b 813 335 689 -19 813 117 l 813 353 l 724 353 l 724 332 b 464 61 724 172 642 61 b 178 374 283 61 178 175 l 178 599 b 464 911 178 797 283 911 b 724 640 642 911 724 800 l 724 631 l 813 631 l 813 638 b 464 992 813 856 689 992 b 89 596 236 992 89 856 l 89 376 b 464 -19 89 117 236 -19 z "},"Ĉ":{"ha":890,"x_min":0,"x_max":0,"o":"m 232 1053 l 344 1053 l 456 1158 l 472 1158 l 583 1053 l 696 1053 l 513 1217 l 415 1217 z m 464 -19 b 813 335 689 -19 813 117 l 813 353 l 724 353 l 724 332 b 464 61 724 172 642 61 b 178 374 283 61 178 175 l 178 599 b 464 911 178 797 283 911 b 724 640 642 911 724 800 l 724 631 l 813 631 l 813 638 b 464 992 813 856 689 992 b 89 596 236 992 89 856 l 89 376 b 464 -19 89 117 236 -19 z "},"Č":{"ha":890,"x_min":0,"x_max":0,"o":"m 415 1053 l 513 1053 l 696 1217 l 583 1217 l 472 1111 l 456 1111 l 344 1217 l 232 1217 z m 464 -19 b 813 335 689 -19 813 117 l 813 353 l 724 353 l 724 332 b 464 61 724 172 642 61 b 178 374 283 61 178 175 l 178 599 b 464 911 178 797 283 911 b 724 640 642 911 724 800 l 724 631 l 813 631 l 813 638 b 464 992 813 856 689 992 b 89 596 236 992 89 856 l 89 376 b 464 -19 89 117 236 -19 z "},"Ċ":{"ha":890,"x_min":0,"x_max":0,"o":"m 464 1058 b 536 1131 506 1058 536 1089 b 464 1203 536 1172 506 1203 b 392 1131 422 1203 392 1172 b 464 1058 392 1089 422 1058 z m 464 -19 b 813 335 689 -19 813 117 l 813 353 l 724 353 l 724 332 b 464 61 724 172 642 61 b 178 374 283 61 178 175 l 178 599 b 464 911 178 797 283 911 b 724 640 642 911 724 800 l 724 631 l 813 631 l 813 638 b 464 992 813 856 689 992 b 89 596 236 992 89 856 l 89 376 b 464 -19 89 117 236 -19 z "},"Ð":{"ha":919,"x_min":0,"x_max":0,"o":"m 67 0 l 436 0 b 839 396 689 0 839 124 l 839 575 b 436 972 839 847 689 972 l 67 972 l 67 892 l 206 892 l 206 514 l 67 514 l 67 444 l 206 444 l 206 81 l 67 81 z m 294 81 l 294 444 l 467 444 l 467 514 l 294 514 l 294 890 l 436 890 b 750 579 639 890 750 799 l 750 392 b 436 81 750 172 639 81 z "},"Ď":{"ha":919,"x_min":0,"x_max":0,"o":"m 392 1053 l 489 1053 l 672 1217 l 560 1217 l 449 1111 l 432 1111 l 321 1217 l 208 1217 z m 67 0 l 436 0 b 839 396 689 0 839 124 l 839 575 b 436 972 839 847 689 972 l 67 972 l 67 892 l 206 892 l 206 81 l 67 81 z m 294 81 l 294 890 l 436 890 b 750 579 639 890 750 799 l 750 392 b 436 81 750 172 639 81 z "},"Đ":{"ha":919,"x_min":0,"x_max":0,"o":"m 67 0 l 436 0 b 839 396 689 0 839 124 l 839 575 b 436 972 839 847 689 972 l 67 972 l 67 892 l 206 892 l 206 514 l 67 514 l 67 444 l 206 444 l 206 81 l 67 81 z m 294 81 l 294 444 l 467 444 l 467 514 l 294 514 l 294 890 l 436 890 b 750 579 639 890 750 799 l 750 392 b 436 81 750 172 639 81 z "},"È":{"ha":788,"x_min":0,"x_max":0,"o":"m 401 1058 l 488 1058 l 396 1222 l 288 1222 z m 119 0 l 713 0 l 713 81 l 208 81 l 208 447 l 668 447 l 668 528 l 208 528 l 208 892 l 707 892 l 707 972 l 119 972 z "},"É":{"ha":788,"x_min":0,"x_max":0,"o":"m 357 1053 l 443 1053 l 557 1217 l 449 1217 z m 119 0 l 713 0 l 713 81 l 208 81 l 208 447 l 668 447 l 668 528 l 208 528 l 208 892 l 707 892 l 707 972 l 119 972 z "},"Ê":{"ha":788,"x_min":0,"x_max":0,"o":"m 190 1053 l 303 1053 l 414 1158 l 431 1158 l 542 1053 l 654 1053 l 471 1217 l 374 1217 z m 119 0 l 713 0 l 713 81 l 208 81 l 208 447 l 668 447 l 668 528 l 208 528 l 208 892 l 707 892 l 707 972 l 119 972 z "},"Ě":{"ha":788,"x_min":0,"x_max":0,"o":"m 374 1053 l 471 1053 l 654 1217 l 542 1217 l 431 1111 l 414 1111 l 303 1217 l 190 1217 z m 119 0 l 713 0 l 713 81 l 208 81 l 208 447 l 668 447 l 668 528 l 208 528 l 208 892 l 707 892 l 707 972 l 119 972 z "},"Ë":{"ha":788,"x_min":0,"x_max":0,"o":"m 553 1058 b 624 1129 594 1058 624 1088 b 553 1200 624 1171 594 1200 b 482 1129 511 1200 482 1171 b 553 1058 482 1088 511 1058 z m 292 1058 b 363 1129 333 1058 363 1088 b 292 1200 363 1171 333 1200 b 221 1129 250 1200 221 1171 b 292 1058 221 1088 250 1058 z m 119 0 l 713 0 l 713 81 l 208 81 l 208 447 l 668 447 l 668 528 l 208 528 l 208 892 l 707 892 l 707 972 l 119 972 z "},"Ē":{"ha":788,"x_min":0,"x_max":0,"o":"m 214 1075 l 631 1075 l 631 1147 l 214 1147 z m 119 0 l 713 0 l 713 81 l 208 81 l 208 447 l 668 447 l 668 528 l 208 528 l 208 892 l 707 892 l 707 972 l 119 972 z "},"Ĕ":{"ha":788,"x_min":0,"x_max":0,"o":"m 422 1044 b 622 1215 549 1044 622 1115 l 622 1219 l 544 1219 l 544 1215 b 422 1111 544 1153 504 1111 b 301 1215 342 1111 301 1153 l 301 1219 l 224 1219 l 224 1215 b 422 1044 224 1115 296 1044 z m 119 0 l 713 0 l 713 81 l 208 81 l 208 447 l 668 447 l 668 528 l 208 528 l 208 892 l 707 892 l 707 972 l 119 972 z "},"Ė":{"ha":788,"x_min":0,"x_max":0,"o":"m 422 1058 b 494 1131 464 1058 494 1089 b 422 1203 494 1172 464 1203 b 350 1131 381 1203 350 1172 b 422 1058 350 1089 381 1058 z m 119 0 l 713 0 l 713 81 l 208 81 l 208 447 l 668 447 l 668 528 l 208 528 l 208 892 l 707 892 l 707 972 l 119 972 z "},"Ę":{"ha":788,"x_min":0,"x_max":0,"o":"m 119 0 l 575 0 l 563 -56 b 550 -136 556 -85 550 -110 b 644 -225 550 -194 585 -225 l 711 -225 l 711 -153 l 654 -153 b 624 -126 635 -153 624 -143 b 629 -90 624 -114 626 -107 l 646 0 l 713 0 l 713 81 l 208 81 l 208 447 l 668 447 l 668 528 l 208 528 l 208 892 l 707 892 l 707 972 l 119 972 z "},"Ĝ":{"ha":915,"x_min":0,"x_max":0,"o":"m 233 1053 l 346 1053 l 457 1158 l 474 1158 l 585 1053 l 697 1053 l 514 1217 l 417 1217 z m 458 -19 b 710 110 608 -19 676 42 l 726 110 l 726 0 l 807 0 l 807 449 l 400 449 l 400 371 l 721 371 l 721 343 b 464 61 721 171 639 61 b 178 374 283 61 178 175 l 178 599 b 464 911 178 797 283 911 b 718 649 642 911 718 800 l 718 639 l 807 639 l 807 646 b 464 992 807 856 689 992 b 89 596 236 992 89 856 l 89 376 b 458 -19 89 117 236 -19 z "},"Ğ":{"ha":915,"x_min":0,"x_max":0,"o":"m 465 1044 b 665 1215 592 1044 665 1115 l 665 1219 l 588 1219 l 588 1215 b 465 1111 588 1153 547 1111 b 344 1215 385 1111 344 1153 l 344 1219 l 267 1219 l 267 1215 b 465 1044 267 1115 339 1044 z m 458 -19 b 710 110 608 -19 676 42 l 726 110 l 726 0 l 807 0 l 807 449 l 400 449 l 400 371 l 721 371 l 721 343 b 464 61 721 171 639 61 b 178 374 283 61 178 175 l 178 599 b 464 911 178 797 283 911 b 718 649 642 911 718 800 l 718 639 l 807 639 l 807 646 b 464 992 807 856 689 992 b 89 596 236 992 89 856 l 89 376 b 458 -19 89 117 236 -19 z "},"Ġ":{"ha":915,"x_min":0,"x_max":0,"o":"m 465 1058 b 538 1131 507 1058 538 1089 b 465 1203 538 1172 507 1203 b 393 1131 424 1203 393 1172 b 465 1058 393 1089 424 1058 z m 458 -19 b 710 110 608 -19 676 42 l 726 110 l 726 0 l 807 0 l 807 449 l 400 449 l 400 371 l 721 371 l 721 343 b 464 61 721 171 639 61 b 178 374 283 61 178 175 l 178 599 b 464 911 178 797 283 911 b 718 649 642 911 718 800 l 718 639 l 807 639 l 807 646 b 464 992 807 856 689 992 b 89 596 236 992 89 856 l 89 376 b 458 -19 89 117 236 -19 z "},"Ĥ":{"ha":911,"x_min":0,"x_max":0,"o":"m 224 1053 l 336 1053 l 447 1158 l 464 1158 l 575 1053 l 688 1053 l 504 1217 l 407 1217 z m 119 0 l 208 0 l 208 447 l 703 447 l 703 0 l 792 0 l 792 972 l 703 972 l 703 528 l 208 528 l 208 972 l 119 972 z "},"Ħ":{"ha":911,"x_min":0,"x_max":0,"o":"m 119 0 l 208 0 l 208 447 l 703 447 l 703 0 l 792 0 l 792 708 l 882 708 l 882 776 l 792 776 l 792 972 l 703 972 l 703 776 l 208 776 l 208 972 l 119 972 l 119 776 l 31 776 l 31 708 l 119 708 z m 208 528 l 208 708 l 703 708 l 703 528 z "},"Ì":{"ha":328,"x_min":0,"x_max":0,"o":"m 143 1058 l 229 1058 l 138 1222 l 29 1222 z m 119 0 l 208 0 l 208 972 l 119 972 z "},"Í":{"ha":328,"x_min":0,"x_max":0,"o":"m 99 1053 l 185 1053 l 299 1217 l 190 1217 z m 119 0 l 208 0 l 208 972 l 119 972 z "},"Î":{"ha":328,"x_min":0,"x_max":0,"o":"m -68 1053 l 44 1053 l 156 1158 l 172 1158 l 283 1053 l 396 1053 l 213 1217 l 115 1217 z m 119 0 l 208 0 l 208 972 l 119 972 z "},"Ĩ":{"ha":328,"x_min":0,"x_max":0,"o":"m -3 1060 l 38 1125 b 81 1156 49 1143 61 1156 b 139 1115 100 1156 113 1144 b 249 1053 176 1075 206 1053 b 342 1111 296 1053 324 1081 l 386 1185 l 331 1218 l 289 1151 b 247 1122 278 1133 267 1122 b 189 1163 228 1122 215 1133 b 79 1225 151 1203 122 1225 b -14 1167 32 1225 4 1197 l -58 1093 z m 119 0 l 208 0 l 208 972 l 119 972 z "},"Ï":{"ha":328,"x_min":0,"x_max":0,"o":"m 294 1058 b 365 1129 336 1058 365 1088 b 294 1200 365 1171 336 1200 b 224 1129 253 1200 224 1171 b 294 1058 224 1088 253 1058 z m 33 1058 b 104 1129 75 1058 104 1088 b 33 1200 104 1171 75 1200 b -37 1129 -8 1200 -37 1171 b 33 1058 -37 1088 -8 1058 z m 119 0 l 208 0 l 208 972 l 119 972 z "},"Ī":{"ha":328,"x_min":0,"x_max":0,"o":"m -44 1075 l 372 1075 l 372 1147 l -44 1147 z m 119 0 l 208 0 l 208 972 l 119 972 z "},"İ":{"ha":328,"x_min":0,"x_max":0,"o":"m 164 1058 b 236 1131 206 1058 236 1089 b 164 1203 236 1172 206 1203 b 92 1131 122 1203 92 1172 b 164 1058 92 1089 122 1058 z m 119 0 l 208 0 l 208 972 l 119 972 z "},"Į":{"ha":328,"x_min":0,"x_max":0,"o":"m 119 0 l 129 0 l 117 -56 b 104 -136 110 -85 104 -110 b 199 -225 104 -194 139 -225 l 265 -225 l 265 -153 l 208 -153 b 178 -126 189 -153 178 -143 b 183 -90 178 -114 181 -107 l 200 0 l 208 0 l 208 972 l 119 972 z "},"Ĭ":{"ha":328,"x_min":0,"x_max":0,"o":"m 164 1044 b 364 1215 290 1044 364 1115 l 364 1219 l 286 1219 l 286 1215 b 164 1111 286 1153 246 1111 b 43 1215 83 1111 43 1153 l 43 1219 l -35 1219 l -35 1215 b 164 1044 -35 1115 38 1044 z m 119 0 l 208 0 l 208 972 l 119 972 z "},"Ĵ":{"ha":817,"x_min":0,"x_max":0,"o":"m 339 1053 l 451 1053 l 563 1158 l 579 1158 l 690 1053 l 803 1053 l 619 1217 l 522 1217 z m 363 -19 b 650 292 554 -19 650 89 l 650 892 l 753 892 l 753 972 l 389 972 l 389 892 l 561 892 l 561 292 b 364 61 561 156 511 61 b 150 292 219 61 150 156 l 150 360 l 61 360 l 61 292 b 363 -19 61 89 176 -19 z "},"Ĺ":{"ha":760,"x_min":0,"x_max":0,"o":"m 97 1053 l 183 1053 l 297 1217 l 189 1217 z m 119 0 l 719 0 l 719 81 l 208 81 l 208 972 l 119 972 z "},"Ľ":{"ha":760,"x_min":0,"x_max":0,"o":"m 119 0 l 719 0 l 719 81 l 208 81 l 208 972 l 119 972 z m 319 722 l 386 722 l 422 972 l 332 972 z "},"Ḹ":{"ha":760,"x_min":0,"x_max":0,"o":"m -46 1075 l 371 1075 l 371 1147 l -46 1147 z m 119 0 l 719 0 l 719 81 l 208 81 l 208 972 l 119 972 z m 419 -261 b 492 -189 461 -261 492 -231 b 419 -117 492 -147 461 -117 b 347 -189 378 -117 347 -147 b 419 -261 347 -231 378 -261 z "},"Ł":{"ha":826,"x_min":0,"x_max":0,"o":"m 186 0 l 786 0 l 786 81 l 275 81 l 275 460 l 433 546 l 401 607 l 275 539 l 275 972 l 186 972 l 186 490 l 28 406 l 61 344 l 186 413 z "},"Ŀ":{"ha":760,"x_min":0,"x_max":0,"o":"m 119 0 l 719 0 l 719 81 l 208 81 l 208 972 l 119 972 z m 543 419 b 615 492 585 419 615 450 b 543 564 615 533 585 564 b 471 492 501 564 471 533 b 543 419 471 450 501 419 z "},"Ń":{"ha":918,"x_min":0,"x_max":0,"o":"m 400 1053 l 486 1053 l 600 1217 l 492 1217 z m 119 0 l 208 0 l 208 921 l 225 921 l 622 0 l 799 0 l 799 972 l 710 972 l 710 53 l 693 53 l 296 972 l 119 972 z "},"Ň":{"ha":918,"x_min":0,"x_max":0,"o":"m 417 1053 l 514 1053 l 697 1217 l 585 1217 l 474 1111 l 457 1111 l 346 1217 l 233 1217 z m 119 0 l 208 0 l 208 921 l 225 921 l 622 0 l 799 0 l 799 972 l 710 972 l 710 53 l 693 53 l 296 972 l 119 972 z "},"Ñ":{"ha":918,"x_min":0,"x_max":0,"o":"m 299 1060 l 339 1125 b 382 1156 350 1143 363 1156 b 440 1115 401 1156 414 1144 b 550 1053 478 1075 507 1053 b 643 1111 597 1053 625 1081 l 688 1185 l 632 1218 l 590 1151 b 549 1122 579 1133 568 1122 b 490 1163 529 1122 517 1133 b 381 1225 453 1203 424 1225 b 288 1167 333 1225 306 1197 l 243 1093 z m 119 0 l 208 0 l 208 921 l 225 921 l 622 0 l 799 0 l 799 972 l 710 972 l 710 53 l 693 53 l 296 972 l 119 972 z "},"Ò":{"ha":925,"x_min":0,"x_max":0,"o":"m 442 1058 l 528 1058 l 436 1222 l 328 1222 z m 463 -19 b 836 376 690 -19 836 117 l 836 596 b 463 992 836 856 690 992 b 89 596 235 992 89 856 l 89 376 b 463 -19 89 117 235 -19 z m 463 61 b 178 374 282 61 178 175 l 178 599 b 463 911 178 797 282 911 b 747 599 643 911 747 797 l 747 374 b 463 61 747 175 643 61 z "},"Ó":{"ha":925,"x_min":0,"x_max":0,"o":"m 397 1053 l 483 1053 l 597 1217 l 489 1217 z m 463 -19 b 836 376 690 -19 836 117 l 836 596 b 463 992 836 856 690 992 b 89 596 235 992 89 856 l 89 376 b 463 -19 89 117 235 -19 z m 463 61 b 178 374 282 61 178 175 l 178 599 b 463 911 178 797 282 911 b 747 599 643 911 747 797 l 747 374 b 463 61 747 175 643 61 z "},"Ô":{"ha":925,"x_min":0,"x_max":0,"o":"m 231 1053 l 343 1053 l 454 1158 l 471 1158 l 582 1053 l 694 1053 l 511 1217 l 414 1217 z m 463 -19 b 836 376 690 -19 836 117 l 836 596 b 463 992 836 856 690 992 b 89 596 235 992 89 856 l 89 376 b 463 -19 89 117 235 -19 z m 463 61 b 178 374 282 61 178 175 l 178 599 b 463 911 178 797 282 911 b 747 599 643 911 747 797 l 747 374 b 463 61 747 175 643 61 z "},"Õ":{"ha":925,"x_min":0,"x_max":0,"o":"m 296 1060 l 336 1125 b 379 1156 347 1143 360 1156 b 438 1115 399 1156 411 1144 b 547 1053 475 1075 504 1053 b 640 1111 594 1053 622 1081 l 685 1185 l 629 1218 l 588 1151 b 546 1122 576 1133 565 1122 b 488 1163 526 1122 514 1133 b 378 1225 450 1203 421 1225 b 285 1167 331 1225 303 1197 l 240 1093 z m 463 -19 b 836 376 690 -19 836 117 l 836 596 b 463 992 836 856 690 992 b 89 596 235 992 89 856 l 89 376 b 463 -19 89 117 235 -19 z m 463 61 b 178 374 282 61 178 175 l 178 599 b 463 911 178 797 282 911 b 747 599 643 911 747 797 l 747 374 b 463 61 747 175 643 61 z "},"Ö":{"ha":925,"x_min":0,"x_max":0,"o":"m 593 1058 b 664 1129 635 1058 664 1088 b 593 1200 664 1171 635 1200 b 522 1129 551 1200 522 1171 b 593 1058 522 1088 551 1058 z m 332 1058 b 403 1129 374 1058 403 1088 b 332 1200 403 1171 374 1200 b 261 1129 290 1200 261 1171 b 332 1058 261 1088 290 1058 z m 463 -19 b 836 376 690 -19 836 117 l 836 596 b 463 992 836 856 690 992 b 89 596 235 992 89 856 l 89 376 b 463 -19 89 117 235 -19 z m 463 61 b 178 374 282 61 178 175 l 178 599 b 463 911 178 797 282 911 b 747 599 643 911 747 797 l 747 374 b 463 61 747 175 643 61 z "},"Ō":{"ha":925,"x_min":0,"x_max":0,"o":"m 254 1075 l 671 1075 l 671 1147 l 254 1147 z m 463 -19 b 836 376 690 -19 836 117 l 836 596 b 463 992 836 856 690 992 b 89 596 235 992 89 856 l 89 376 b 463 -19 89 117 235 -19 z m 463 61 b 178 374 282 61 178 175 l 178 599 b 463 911 178 797 282 911 b 747 599 643 911 747 797 l 747 374 b 463 61 747 175 643 61 z "},"Ő":{"ha":925,"x_min":0,"x_max":0,"o":"m 483 1058 l 565 1058 l 693 1222 l 582 1222 z m 299 1058 l 374 1058 l 478 1222 l 379 1222 z m 463 -19 b 836 376 690 -19 836 117 l 836 596 b 463 992 836 856 690 992 b 89 596 235 992 89 856 l 89 376 b 463 -19 89 117 235 -19 z m 463 61 b 178 374 282 61 178 175 l 178 599 b 463 911 178 797 282 911 b 747 599 643 911 747 797 l 747 374 b 463 61 747 175 643 61 z "},"Ŏ":{"ha":925,"x_min":0,"x_max":0,"o":"m 463 1044 b 663 1215 589 1044 663 1115 l 663 1219 l 585 1219 l 585 1215 b 463 1111 585 1153 544 1111 b 342 1215 382 1111 342 1153 l 342 1219 l 264 1219 l 264 1215 b 463 1044 264 1115 336 1044 z m 463 -19 b 836 376 690 -19 836 117 l 836 596 b 463 992 836 856 690 992 b 89 596 235 992 89 856 l 89 376 b 463 -19 89 117 235 -19 z m 463 61 b 178 374 282 61 178 175 l 178 599 b 463 911 178 797 282 911 b 747 599 643 911 747 797 l 747 374 b 463 61 747 175 643 61 z "},"Ø":{"ha":925,"x_min":0,"x_max":0,"o":"m 269 -117 l 315 3 b 463 -19 360 -12 408 -19 b 836 376 690 -19 836 117 l 836 596 b 678 936 836 760 778 875 l 721 1047 l 657 1072 l 615 967 b 463 992 571 983 519 992 b 89 596 235 992 89 856 l 89 376 b 253 32 89 210 149 94 l 204 -92 z m 178 374 l 178 599 b 463 911 178 797 282 911 b 586 889 508 911 550 904 l 285 114 b 178 374 215 165 178 254 z m 463 61 b 346 81 419 61 381 68 l 646 854 b 747 599 711 801 747 715 l 747 374 b 463 61 747 175 643 61 z "},"Œ":{"ha":1165,"x_min":0,"x_max":0,"o":"m 178 428 l 178 544 b 553 894 178 763 301 894 l 553 78 b 178 428 300 78 178 208 z m 553 0 l 1090 0 l 1090 81 l 642 81 l 642 447 l 1046 447 l 1046 528 l 642 528 l 642 892 l 1085 892 l 1085 972 l 553 972 b 89 535 260 972 89 822 l 89 438 b 553 0 89 150 260 0 z "},"Ŕ":{"ha":876,"x_min":0,"x_max":0,"o":"m 365 1053 l 451 1053 l 565 1217 l 457 1217 z m 119 0 l 208 0 l 208 413 l 578 413 b 675 321 643 413 675 381 l 675 0 l 764 0 l 764 331 b 649 454 764 415 713 451 l 649 471 b 807 700 733 494 807 568 l 807 714 b 500 972 807 878 679 972 l 119 972 z m 208 493 l 208 892 l 492 892 b 718 696 639 892 718 822 l 718 689 b 492 493 718 563 636 493 z "},"Ř":{"ha":876,"x_min":0,"x_max":0,"o":"m 382 1053 l 479 1053 l 663 1217 l 550 1217 l 439 1111 l 422 1111 l 311 1217 l 199 1217 z m 119 0 l 208 0 l 208 413 l 578 413 b 675 321 643 413 675 381 l 675 0 l 764 0 l 764 331 b 649 454 764 415 713 451 l 649 471 b 807 700 733 494 807 568 l 807 714 b 500 972 807 878 679 972 l 119 972 z m 208 493 l 208 892 l 492 892 b 718 696 639 892 718 822 l 718 689 b 492 493 718 563 636 493 z "},"Ṝ":{"ha":876,"x_min":0,"x_max":0,"o":"m 222 1075 l 639 1075 l 639 1147 l 222 1147 z m 119 0 l 208 0 l 208 413 l 578 413 b 675 321 643 413 675 381 l 675 0 l 764 0 l 764 331 b 649 454 764 415 713 451 l 649 471 b 807 700 733 494 807 568 l 807 714 b 500 972 807 878 679 972 l 119 972 z m 208 493 l 208 892 l 492 892 b 718 696 639 892 718 822 l 718 689 b 492 493 718 563 636 493 z m 443 -261 b 515 -189 485 -261 515 -231 b 443 -117 515 -147 485 -117 b 371 -189 401 -117 371 -147 b 443 -261 371 -231 401 -261 z "},"Ś":{"ha":856,"x_min":0,"x_max":0,"o":"m 361 1053 l 447 1053 l 561 1217 l 453 1217 z m 438 -19 b 778 258 643 -19 778 89 b 496 525 778 428 647 488 l 407 547 b 188 733 272 581 188 617 b 421 914 188 850 285 914 b 672 699 563 914 672 850 l 672 633 l 761 633 l 761 699 b 421 992 761 892 611 992 b 99 733 231 992 99 892 b 375 469 99 575 215 510 l 464 447 b 689 258 597 414 689 375 b 438 58 689 142 599 58 b 164 322 278 58 164 142 l 164 349 l 75 349 l 75 322 b 438 -19 75 89 231 -19 z "},"Ŝ":{"ha":856,"x_min":0,"x_max":0,"o":"m 194 1053 l 307 1053 l 418 1158 l 435 1158 l 546 1053 l 658 1053 l 475 1217 l 378 1217 z m 438 -19 b 778 258 643 -19 778 89 b 496 525 778 428 647 488 l 407 547 b 188 733 272 581 188 617 b 421 914 188 850 285 914 b 672 699 563 914 672 850 l 672 633 l 761 633 l 761 699 b 421 992 761 892 611 992 b 99 733 231 992 99 892 b 375 469 99 575 215 510 l 464 447 b 689 258 597 414 689 375 b 438 58 689 142 599 58 b 164 322 278 58 164 142 l 164 349 l 75 349 l 75 322 b 438 -19 75 89 231 -19 z "},"Š":{"ha":856,"x_min":0,"x_max":0,"o":"m 378 1053 l 475 1053 l 658 1217 l 546 1217 l 435 1111 l 418 1111 l 307 1217 l 194 1217 z m 438 -19 b 778 258 643 -19 778 89 b 496 525 778 428 647 488 l 407 547 b 188 733 272 581 188 617 b 421 914 188 850 285 914 b 672 699 563 914 672 850 l 672 633 l 761 633 l 761 699 b 421 992 761 892 611 992 b 99 733 231 992 99 892 b 375 469 99 575 215 510 l 464 447 b 689 258 597 414 689 375 b 438 58 689 142 599 58 b 164 322 278 58 164 142 l 164 349 l 75 349 l 75 322 b 438 -19 75 89 231 -19 z "},"Ş":{"ha":856,"x_min":0,"x_max":0,"o":"m 450 -281 b 589 -172 526 -281 589 -244 b 471 -67 589 -104 543 -67 l 475 -18 b 778 258 660 -6 778 100 b 496 525 778 428 647 488 l 407 547 b 188 733 272 581 188 617 b 421 914 188 850 285 914 b 672 699 563 914 672 850 l 672 633 l 761 633 l 761 699 b 421 992 761 892 611 992 b 99 733 231 992 99 892 b 375 469 99 575 215 510 l 464 447 b 689 258 597 414 689 375 b 438 58 689 142 599 58 b 164 322 278 58 164 142 l 164 349 l 75 349 l 75 322 b 410 -19 75 99 217 -10 l 400 -118 l 450 -118 b 519 -167 492 -118 519 -135 b 450 -217 519 -201 489 -217 b 346 -178 408 -217 375 -200 l 310 -233 b 450 -281 346 -261 394 -281 z "},"Ť":{"ha":817,"x_min":0,"x_max":0,"o":"m 360 1053 l 457 1053 l 640 1217 l 528 1217 l 417 1111 l 400 1111 l 289 1217 l 176 1217 z m 364 0 l 453 0 l 453 892 l 778 892 l 778 972 l 39 972 l 39 892 l 364 892 z "},"Ŧ":{"ha":817,"x_min":0,"x_max":0,"o":"m 364 0 l 453 0 l 453 444 l 608 444 l 608 514 l 453 514 l 453 892 l 778 892 l 778 972 l 39 972 l 39 892 l 364 892 l 364 514 l 208 514 l 208 444 l 364 444 z "},"Ù":{"ha":922,"x_min":0,"x_max":0,"o":"m 440 1058 l 526 1058 l 435 1222 l 326 1222 z m 461 -19 b 811 318 669 -19 811 90 l 811 972 l 722 972 l 722 318 b 461 61 722 144 626 61 b 200 318 296 61 200 144 l 200 972 l 111 972 l 111 318 b 461 -19 111 90 253 -19 z "},"Ú":{"ha":922,"x_min":0,"x_max":0,"o":"m 396 1053 l 482 1053 l 596 1217 l 488 1217 z m 461 -19 b 811 318 669 -19 811 90 l 811 972 l 722 972 l 722 318 b 461 61 722 144 626 61 b 200 318 296 61 200 144 l 200 972 l 111 972 l 111 318 b 461 -19 111 90 253 -19 z "},"Û":{"ha":922,"x_min":0,"x_max":0,"o":"m 229 1053 l 342 1053 l 453 1158 l 469 1158 l 581 1053 l 693 1053 l 510 1217 l 413 1217 z m 461 -19 b 811 318 669 -19 811 90 l 811 972 l 722 972 l 722 318 b 461 61 722 144 626 61 b 200 318 296 61 200 144 l 200 972 l 111 972 l 111 318 b 461 -19 111 90 253 -19 z "},"Ũ":{"ha":922,"x_min":0,"x_max":0,"o":"m 294 1060 l 335 1125 b 378 1156 346 1143 358 1156 b 436 1115 397 1156 410 1144 b 546 1053 474 1075 503 1053 b 639 1111 593 1053 621 1081 l 683 1185 l 628 1218 l 586 1151 b 544 1122 575 1133 564 1122 b 486 1163 525 1122 513 1133 b 376 1225 449 1203 419 1225 b 283 1167 329 1225 301 1197 l 239 1093 z m 461 -19 b 811 318 669 -19 811 90 l 811 972 l 722 972 l 722 318 b 461 61 722 144 626 61 b 200 318 296 61 200 144 l 200 972 l 111 972 l 111 318 b 461 -19 111 90 253 -19 z "},"Ü":{"ha":922,"x_min":0,"x_max":0,"o":"m 592 1058 b 663 1129 633 1058 663 1088 b 592 1200 663 1171 633 1200 b 521 1129 550 1200 521 1171 b 592 1058 521 1088 550 1058 z m 331 1058 b 401 1129 372 1058 401 1088 b 331 1200 401 1171 372 1200 b 260 1129 289 1200 260 1171 b 331 1058 260 1088 289 1058 z m 461 -19 b 811 318 669 -19 811 90 l 811 972 l 722 972 l 722 318 b 461 61 722 144 626 61 b 200 318 296 61 200 144 l 200 972 l 111 972 l 111 318 b 461 -19 111 90 253 -19 z "},"Ū":{"ha":922,"x_min":0,"x_max":0,"o":"m 253 1075 l 669 1075 l 669 1147 l 253 1147 z m 461 -19 b 811 318 669 -19 811 90 l 811 972 l 722 972 l 722 318 b 461 61 722 144 626 61 b 200 318 296 61 200 144 l 200 972 l 111 972 l 111 318 b 461 -19 111 90 253 -19 z "},"Ŭ":{"ha":922,"x_min":0,"x_max":0,"o":"m 461 1044 b 661 1215 588 1044 661 1115 l 661 1219 l 583 1219 l 583 1215 b 461 1111 583 1153 543 1111 b 340 1215 381 1111 340 1153 l 340 1219 l 263 1219 l 263 1215 b 461 1044 263 1115 335 1044 z m 461 -19 b 811 318 669 -19 811 90 l 811 972 l 722 972 l 722 318 b 461 61 722 144 626 61 b 200 318 296 61 200 144 l 200 972 l 111 972 l 111 318 b 461 -19 111 90 253 -19 z "},"Ů":{"ha":922,"x_min":0,"x_max":0,"o":"m 461 1039 b 596 1169 538 1039 596 1092 b 461 1300 596 1247 538 1300 b 328 1169 386 1300 328 1247 b 461 1039 328 1092 386 1039 z m 461 1103 b 394 1169 421 1103 394 1131 b 461 1236 394 1208 421 1236 b 529 1169 503 1236 529 1208 b 461 1103 529 1131 503 1103 z m 461 -19 b 811 318 669 -19 811 90 l 811 972 l 722 972 l 722 318 b 461 61 722 144 626 61 b 200 318 296 61 200 144 l 200 972 l 111 972 l 111 318 b 461 -19 111 90 253 -19 z "},"Ű":{"ha":922,"x_min":0,"x_max":0,"o":"m 482 1058 l 564 1058 l 692 1222 l 581 1222 z m 297 1058 l 372 1058 l 476 1222 l 378 1222 z m 461 -19 b 811 318 669 -19 811 90 l 811 972 l 722 972 l 722 318 b 461 61 722 144 626 61 b 200 318 296 61 200 144 l 200 972 l 111 972 l 111 318 b 461 -19 111 90 253 -19 z "},"Ų":{"ha":922,"x_min":0,"x_max":0,"o":"m 461 -19 b 517 -17 481 -19 499 -18 l 507 -56 b 494 -136 500 -85 494 -110 b 589 -225 494 -194 529 -225 l 656 -225 l 656 -153 l 599 -153 b 568 -126 579 -153 568 -143 b 574 -90 568 -114 571 -107 l 590 -3 b 811 318 725 35 811 142 l 811 972 l 722 972 l 722 318 b 461 61 722 144 626 61 b 200 318 296 61 200 144 l 200 972 l 111 972 l 111 318 b 461 -19 111 90 253 -19 z "},"Ŵ":{"ha":1203,"x_min":0,"x_max":0,"o":"m 369 1053 l 482 1053 l 593 1158 l 610 1158 l 721 1053 l 833 1053 l 650 1217 l 553 1217 z m 226 0 l 392 0 l 593 919 l 610 919 l 811 0 l 976 0 l 1147 972 l 1057 972 l 901 53 l 885 53 l 683 972 l 519 972 l 318 53 l 301 53 l 146 972 l 56 972 z "},"Ý":{"ha":839,"x_min":0,"x_max":0,"o":"m 354 1053 l 440 1053 l 554 1217 l 446 1217 z m 375 0 l 464 0 l 464 385 l 817 972 l 711 972 l 428 486 l 411 486 l 128 972 l 22 972 l 375 385 z "},"Ŷ":{"ha":839,"x_min":0,"x_max":0,"o":"m 188 1053 l 300 1053 l 411 1158 l 428 1158 l 539 1053 l 651 1053 l 468 1217 l 371 1217 z m 375 0 l 464 0 l 464 385 l 817 972 l 711 972 l 428 486 l 411 486 l 128 972 l 22 972 l 375 385 z "},"Ÿ":{"ha":839,"x_min":0,"x_max":0,"o":"m 550 1058 b 621 1129 592 1058 621 1088 b 550 1200 621 1171 592 1200 b 479 1129 508 1200 479 1171 b 550 1058 479 1088 508 1058 z m 289 1058 b 360 1129 331 1058 360 1088 b 289 1200 360 1171 331 1200 b 218 1129 247 1200 218 1171 b 289 1058 218 1088 247 1058 z m 375 0 l 464 0 l 464 385 l 817 972 l 711 972 l 428 486 l 411 486 l 128 972 l 22 972 l 375 385 z "},"Ź":{"ha":803,"x_min":0,"x_max":0,"o":"m 328 1053 l 414 1053 l 528 1217 l 419 1217 z m 72 0 l 736 0 l 736 81 l 156 81 l 156 94 l 722 850 l 722 972 l 89 972 l 89 892 l 639 892 l 639 878 l 72 122 z "},"Ž":{"ha":803,"x_min":0,"x_max":0,"o":"m 344 1053 l 442 1053 l 625 1217 l 513 1217 l 401 1111 l 385 1111 l 274 1217 l 161 1217 z m 72 0 l 736 0 l 736 81 l 156 81 l 156 94 l 722 850 l 722 972 l 89 972 l 89 892 l 639 892 l 639 878 l 72 122 z "},"Ż":{"ha":803,"x_min":0,"x_max":0,"o":"m 393 1058 b 465 1131 435 1058 465 1089 b 393 1203 465 1172 435 1203 b 321 1131 351 1203 321 1172 b 393 1058 321 1089 351 1058 z m 72 0 l 736 0 l 736 81 l 156 81 l 156 94 l 722 850 l 722 972 l 89 972 l 89 892 l 639 892 l 639 878 l 72 122 z "},"Þ":{"ha":833,"x_min":0,"x_max":0,"o":"m 119 0 l 208 0 l 208 219 l 479 219 b 783 494 647 219 783 319 l 783 510 b 479 785 783 685 650 785 l 208 785 l 208 972 l 119 972 z m 469 704 b 694 508 611 704 694 633 l 694 496 b 469 300 694 371 608 300 l 208 300 l 208 704 z "},"Ŋ":{"ha":918,"x_min":0,"x_max":0,"o":"m 119 0 l 208 0 l 208 921 l 225 921 l 622 0 l 713 0 l 713 -161 b 672 -203 713 -189 701 -203 l 522 -203 l 522 -278 l 693 -278 b 799 -175 758 -278 799 -246 l 799 972 l 710 972 l 710 53 l 693 53 l 296 972 l 119 972 z "},"Ĳ":{"ha":989,"x_min":0,"x_max":0,"o":"m 186 497 l 275 497 l 275 892 l 397 892 l 397 972 l 64 972 l 64 892 l 186 892 z m 501 -21 b 803 299 703 -21 803 90 l 803 890 l 925 890 l 925 971 l 592 971 l 592 890 l 714 890 l 714 299 b 503 60 714 157 660 60 b 275 299 349 60 275 157 l 275 317 l 186 317 l 186 299 b 501 -21 186 90 307 -21 z "},"":{"ha":989,"x_min":0,"x_max":0,"o":"m 165 1053 l 251 1053 l 365 1217 l 257 1217 z m 693 1053 l 779 1053 l 893 1217 l 785 1217 z m 186 497 l 275 497 l 275 892 l 397 892 l 397 972 l 64 972 l 64 892 l 186 892 z m 501 -21 b 803 299 703 -21 803 90 l 803 890 l 925 890 l 925 971 l 592 971 l 592 890 l 714 890 l 714 299 b 503 60 714 157 660 60 b 275 299 349 60 275 157 l 275 317 l 186 317 l 186 299 b 501 -21 186 90 307 -21 z "},"à":{"ha":797,"x_min":0,"x_max":0,"o":"m 365 789 l 451 789 l 344 972 l 238 972 z m 329 -19 b 565 106 468 -19 529 43 l 579 106 l 579 96 b 672 0 579 36 615 0 l 761 0 l 761 72 l 696 72 b 657 114 671 72 657 86 l 657 442 b 389 694 657 600 558 694 b 97 482 221 694 129 600 l 178 458 b 389 619 201 556 269 619 b 574 446 510 619 574 554 l 574 392 l 326 392 b 76 190 186 392 76 325 b 329 -19 76 56 186 -19 z m 335 56 b 160 192 232 56 160 104 b 328 319 160 278 232 319 l 574 319 l 574 303 b 335 56 574 146 478 56 z "},"á":{"ha":797,"x_min":0,"x_max":0,"o":"m 332 772 l 418 772 l 546 956 l 440 956 z m 329 -19 b 565 106 468 -19 529 43 l 579 106 l 579 96 b 672 0 579 36 615 0 l 761 0 l 761 72 l 696 72 b 657 114 671 72 657 86 l 657 442 b 389 694 657 600 558 694 b 97 482 221 694 129 600 l 178 458 b 389 619 201 556 269 619 b 574 446 510 619 574 554 l 574 392 l 326 392 b 76 190 186 392 76 325 b 329 -19 76 56 186 -19 z m 335 56 b 160 192 232 56 160 104 b 328 319 160 278 232 319 l 574 319 l 574 303 b 335 56 574 146 478 56 z "},"â":{"ha":797,"x_min":0,"x_max":0,"o":"m 164 772 l 267 772 l 383 894 l 400 894 l 517 772 l 619 772 l 444 956 l 339 956 z m 329 -19 b 565 106 468 -19 529 43 l 579 106 l 579 96 b 672 0 579 36 615 0 l 761 0 l 761 72 l 696 72 b 657 114 671 72 657 86 l 657 442 b 389 694 657 600 558 694 b 97 482 221 694 129 600 l 178 458 b 389 619 201 556 269 619 b 574 446 510 619 574 554 l 574 392 l 326 392 b 76 190 186 392 76 325 b 329 -19 76 56 186 -19 z m 335 56 b 160 192 232 56 160 104 b 328 319 160 278 232 319 l 574 319 l 574 303 b 335 56 574 146 478 56 z "},"ã":{"ha":797,"x_min":0,"x_max":0,"o":"m 239 760 l 278 831 b 315 857 288 847 297 857 b 375 807 335 857 350 836 b 472 753 408 767 433 753 b 561 810 514 753 543 776 l 603 888 l 544 919 l 506 849 b 468 822 496 832 486 822 b 408 872 449 822 433 843 b 311 926 375 913 350 926 b 222 869 269 926 240 903 l 181 792 z m 329 -19 b 565 106 468 -19 529 43 l 579 106 l 579 96 b 672 0 579 36 615 0 l 761 0 l 761 72 l 696 72 b 657 114 671 72 657 86 l 657 442 b 389 694 657 600 558 694 b 97 482 221 694 129 600 l 178 458 b 389 619 201 556 269 619 b 574 446 510 619 574 554 l 574 392 l 326 392 b 76 190 186 392 76 325 b 329 -19 76 56 186 -19 z m 335 56 b 160 192 232 56 160 104 b 328 319 160 278 232 319 l 574 319 l 574 303 b 335 56 574 146 478 56 z "},"ä":{"ha":797,"x_min":0,"x_max":0,"o":"m 517 792 b 588 863 558 792 588 821 b 517 933 588 904 558 933 b 446 863 475 933 446 904 b 517 792 446 821 475 792 z m 267 792 b 338 863 308 792 338 821 b 267 933 338 904 308 933 b 196 863 225 933 196 904 b 267 792 196 821 225 792 z m 329 -19 b 565 106 468 -19 529 43 l 579 106 l 579 96 b 672 0 579 36 615 0 l 761 0 l 761 72 l 696 72 b 657 114 671 72 657 86 l 657 442 b 389 694 657 600 558 694 b 97 482 221 694 129 600 l 178 458 b 389 619 201 556 269 619 b 574 446 510 619 574 554 l 574 392 l 326 392 b 76 190 186 392 76 325 b 329 -19 76 56 186 -19 z m 335 56 b 160 192 232 56 160 104 b 328 319 160 278 232 319 l 574 319 l 574 303 b 335 56 574 146 478 56 z "},"ā":{"ha":797,"x_min":0,"x_max":0,"o":"m 183 803 l 600 803 l 600 875 l 183 875 z m 329 -19 b 565 106 468 -19 529 43 l 579 106 l 579 96 b 672 0 579 36 615 0 l 761 0 l 761 72 l 696 72 b 657 114 671 72 657 86 l 657 442 b 389 694 657 600 558 694 b 97 482 221 694 129 600 l 178 458 b 389 619 201 556 269 619 b 574 446 510 619 574 554 l 574 392 l 326 392 b 76 190 186 392 76 325 b 329 -19 76 56 186 -19 z m 335 56 b 160 192 232 56 160 104 b 328 319 160 278 232 319 l 574 319 l 574 303 b 335 56 574 146 478 56 z "},"ă":{"ha":797,"x_min":0,"x_max":0,"o":"m 392 769 b 583 947 504 769 583 833 l 583 956 l 506 956 l 506 947 b 392 836 506 882 467 836 b 276 947 315 836 276 882 l 276 956 l 199 956 l 199 947 b 392 769 199 833 278 769 z m 329 -19 b 565 106 468 -19 529 43 l 579 106 l 579 96 b 672 0 579 36 615 0 l 761 0 l 761 72 l 696 72 b 657 114 671 72 657 86 l 657 442 b 389 694 657 600 558 694 b 97 482 221 694 129 600 l 178 458 b 389 619 201 556 269 619 b 574 446 510 619 574 554 l 574 392 l 326 392 b 76 190 186 392 76 325 b 329 -19 76 56 186 -19 z m 335 56 b 160 192 232 56 160 104 b 328 319 160 278 232 319 l 574 319 l 574 303 b 335 56 574 146 478 56 z "},"å":{"ha":797,"x_min":0,"x_max":0,"o":"m 392 756 b 526 886 468 756 526 808 b 392 1017 526 964 468 1017 b 258 886 317 1017 258 964 b 392 756 258 808 317 756 z m 392 819 b 325 886 351 819 325 847 b 392 953 325 925 351 953 b 460 886 433 953 460 925 b 392 819 460 847 433 819 z m 329 -19 b 565 106 468 -19 529 43 l 579 106 l 579 96 b 672 0 579 36 615 0 l 761 0 l 761 72 l 696 72 b 657 114 671 72 657 86 l 657 442 b 389 694 657 600 558 694 b 97 482 221 694 129 600 l 178 458 b 389 619 201 556 269 619 b 574 446 510 619 574 554 l 574 392 l 326 392 b 76 190 186 392 76 325 b 329 -19 76 56 186 -19 z m 335 56 b 160 192 232 56 160 104 b 328 319 160 278 232 319 l 574 319 l 574 303 b 335 56 574 146 478 56 z "},"ą":{"ha":797,"x_min":0,"x_max":0,"o":"m 329 -19 b 565 106 468 -19 529 43 l 579 106 l 579 96 b 628 10 579 54 597 24 l 613 -56 b 600 -136 606 -85 600 -110 b 694 -225 600 -194 635 -225 l 761 -225 l 761 -153 l 704 -153 b 674 -126 685 -153 674 -143 b 679 -90 674 -114 676 -107 l 696 0 l 761 0 l 761 72 l 696 72 b 657 114 671 72 657 86 l 657 442 b 389 694 657 600 558 694 b 97 482 221 694 129 600 l 178 458 b 389 619 201 556 269 619 b 574 446 510 619 574 554 l 574 392 l 326 392 b 76 190 186 392 76 325 b 329 -19 76 56 186 -19 z m 335 56 b 160 192 232 56 160 104 b 328 319 160 278 232 319 l 574 319 l 574 303 b 335 56 574 146 478 56 z "},"æ":{"ha":1314,"x_min":0,"x_max":0,"o":"m 346 -19 b 626 153 507 -19 590 61 l 642 153 b 931 -19 696 49 797 -19 b 1217 165 1093 -19 1167 68 l 1144 203 b 929 56 1108 124 1050 56 b 675 315 782 56 683 154 l 1231 315 l 1231 365 b 918 694 1231 569 1104 694 b 656 551 806 694 711 639 l 642 551 b 396 694 607 639 521 694 b 96 485 225 694 128 600 l 174 461 b 396 619 200 557 274 619 b 590 446 517 619 590 554 l 590 386 l 336 386 b 76 188 188 386 76 322 b 346 -19 76 53 190 -19 z m 675 386 b 918 618 690 531 785 618 b 1146 386 1051 618 1140 538 z m 349 51 b 158 189 239 51 158 103 b 338 315 158 274 236 315 l 590 315 l 590 301 b 349 51 590 143 492 51 z "},"ç":{"ha":838,"x_min":0,"x_max":0,"o":"m 436 -281 b 575 -172 513 -281 575 -244 b 457 -67 575 -104 529 -67 l 461 -18 b 754 238 636 -6 731 113 l 672 254 b 431 56 654 143 578 56 b 172 332 283 56 172 163 l 172 343 b 431 619 172 513 283 619 b 667 421 578 619 653 528 l 749 438 b 431 694 729 568 625 694 b 89 344 233 694 89 560 l 89 331 b 396 -18 89 128 217 -3 l 386 -118 l 436 -118 b 506 -167 478 -118 506 -135 b 436 -217 506 -201 475 -217 b 332 -178 394 -217 361 -200 l 296 -233 b 436 -281 332 -261 381 -281 z "},"ć":{"ha":838,"x_min":0,"x_max":0,"o":"m 371 772 l 457 772 l 585 956 l 479 956 z m 431 -19 b 754 238 625 -19 729 106 l 672 254 b 431 56 654 143 578 56 b 172 332 283 56 172 163 l 172 343 b 431 619 172 513 283 619 b 667 421 578 619 653 528 l 749 438 b 431 694 729 568 625 694 b 89 344 233 694 89 560 l 89 331 b 431 -19 89 115 233 -19 z "},"ĉ":{"ha":838,"x_min":0,"x_max":0,"o":"m 203 772 l 306 772 l 422 894 l 439 894 l 556 772 l 658 772 l 483 956 l 378 956 z m 431 -19 b 754 238 625 -19 729 106 l 672 254 b 431 56 654 143 578 56 b 172 332 283 56 172 163 l 172 343 b 431 619 172 513 283 619 b 667 421 578 619 653 528 l 749 438 b 431 694 729 568 625 694 b 89 344 233 694 89 560 l 89 331 b 431 -19 89 115 233 -19 z "},"č":{"ha":838,"x_min":0,"x_max":0,"o":"m 378 772 l 483 772 l 658 956 l 556 956 l 439 833 l 422 833 l 306 956 l 203 956 z m 431 -19 b 754 238 625 -19 729 106 l 672 254 b 431 56 654 143 578 56 b 172 332 283 56 172 163 l 172 343 b 431 619 172 513 283 619 b 667 421 578 619 653 528 l 749 438 b 431 694 729 568 625 694 b 89 344 233 694 89 560 l 89 331 b 431 -19 89 115 233 -19 z "},"ċ":{"ha":838,"x_min":0,"x_max":0,"o":"m 431 792 b 503 864 472 792 503 822 b 431 936 503 906 472 936 b 358 864 389 936 358 906 b 431 792 358 822 389 792 z m 431 -19 b 754 238 625 -19 729 106 l 672 254 b 431 56 654 143 578 56 b 172 332 283 56 172 163 l 172 343 b 431 619 172 513 283 619 b 667 421 578 619 653 528 l 749 438 b 431 694 729 568 625 694 b 89 344 233 694 89 560 l 89 331 b 431 -19 89 115 233 -19 z "},"ð":{"ha":853,"x_min":0,"x_max":0,"o":"m 431 -19 b 772 363 638 -19 772 119 b 510 904 772 629 678 800 l 561 974 l 508 1010 l 454 935 b 318 988 413 956 367 974 l 293 924 b 413 878 338 911 376 896 l 356 800 l 408 764 l 469 847 b 658 599 572 782 633 694 l 643 599 b 417 693 596 654 524 693 b 89 346 224 693 89 554 l 89 329 b 431 -19 89 119 225 -19 z m 431 56 b 172 332 274 56 172 167 l 172 343 b 431 619 172 508 272 619 b 689 343 588 619 689 508 l 689 332 b 431 56 689 167 586 56 z "},"ď":{"ha":978,"x_min":0,"x_max":0,"o":"m 414 -19 b 678 124 563 -19 639 50 l 694 124 l 694 0 l 775 0 l 775 972 l 692 972 l 692 557 l 675 557 b 414 694 639 625 563 694 b 89 346 232 694 89 560 l 89 329 b 414 -19 89 114 233 -19 z m 886 722 l 953 722 l 989 972 l 899 972 z m 433 56 b 175 332 281 56 175 160 l 175 343 b 433 619 175 515 281 619 b 692 343 586 619 692 515 l 692 332 b 433 56 692 160 586 56 z "},"đ":{"ha":897,"x_min":0,"x_max":0,"o":"m 414 -19 b 678 124 563 -19 639 50 l 694 124 l 694 0 l 775 0 l 775 786 l 886 786 l 886 847 l 775 847 l 775 972 l 692 972 l 692 847 l 440 847 l 440 786 l 692 786 l 692 557 l 675 557 b 414 694 639 625 563 694 b 89 346 232 694 89 560 l 89 329 b 414 -19 89 114 233 -19 z m 433 56 b 175 332 281 56 175 160 l 175 343 b 433 619 175 515 281 619 b 692 343 586 619 692 515 l 692 332 b 433 56 692 160 586 56 z "},"è":{"ha":831,"x_min":0,"x_max":0,"o":"m 397 789 l 483 789 l 376 972 l 269 972 z m 433 -19 b 735 171 613 -19 692 79 l 660 204 b 433 56 622 121 560 56 b 172 319 285 56 178 151 l 747 319 l 747 364 b 424 694 747 569 613 694 b 89 346 229 694 89 553 l 89 329 b 433 -19 89 122 225 -19 z m 174 392 b 424 619 193 538 289 619 b 663 392 560 619 656 538 z "},"é":{"ha":831,"x_min":0,"x_max":0,"o":"m 364 772 l 450 772 l 578 956 l 472 956 z m 433 -19 b 735 171 613 -19 692 79 l 660 204 b 433 56 622 121 560 56 b 172 319 285 56 178 151 l 747 319 l 747 364 b 424 694 747 569 613 694 b 89 346 229 694 89 553 l 89 329 b 433 -19 89 122 225 -19 z m 174 392 b 424 619 193 538 289 619 b 663 392 560 619 656 538 z "},"ê":{"ha":831,"x_min":0,"x_max":0,"o":"m 196 772 l 299 772 l 415 894 l 432 894 l 549 772 l 651 772 l 476 956 l 371 956 z m 433 -19 b 735 171 613 -19 692 79 l 660 204 b 433 56 622 121 560 56 b 172 319 285 56 178 151 l 747 319 l 747 364 b 424 694 747 569 613 694 b 89 346 229 694 89 553 l 89 329 b 433 -19 89 122 225 -19 z m 174 392 b 424 619 193 538 289 619 b 663 392 560 619 656 538 z "},"ě":{"ha":831,"x_min":0,"x_max":0,"o":"m 371 772 l 476 772 l 651 956 l 549 956 l 432 833 l 415 833 l 299 956 l 196 956 z m 433 -19 b 735 171 613 -19 692 79 l 660 204 b 433 56 622 121 560 56 b 172 319 285 56 178 151 l 747 319 l 747 364 b 424 694 747 569 613 694 b 89 346 229 694 89 553 l 89 329 b 433 -19 89 122 225 -19 z m 174 392 b 424 619 193 538 289 619 b 663 392 560 619 656 538 z "},"ë":{"ha":831,"x_min":0,"x_max":0,"o":"m 549 792 b 619 863 590 792 619 821 b 549 933 619 904 590 933 b 478 863 507 933 478 904 b 549 792 478 821 507 792 z m 299 792 b 369 863 340 792 369 821 b 299 933 369 904 340 933 b 228 863 257 933 228 904 b 299 792 228 821 257 792 z m 433 -19 b 735 171 613 -19 692 79 l 660 204 b 433 56 622 121 560 56 b 172 319 285 56 178 151 l 747 319 l 747 364 b 424 694 747 569 613 694 b 89 346 229 694 89 553 l 89 329 b 433 -19 89 122 225 -19 z m 174 392 b 424 619 193 538 289 619 b 663 392 560 619 656 538 z "},"ē":{"ha":831,"x_min":0,"x_max":0,"o":"m 215 803 l 632 803 l 632 875 l 215 875 z m 433 -19 b 735 171 613 -19 692 79 l 660 204 b 433 56 622 121 560 56 b 172 319 285 56 178 151 l 747 319 l 747 364 b 424 694 747 569 613 694 b 89 346 229 694 89 553 l 89 329 b 433 -19 89 122 225 -19 z m 174 392 b 424 619 193 538 289 619 b 663 392 560 619 656 538 z "},"ĕ":{"ha":831,"x_min":0,"x_max":0,"o":"m 424 769 b 615 947 536 769 615 833 l 615 956 l 538 956 l 538 947 b 424 836 538 882 499 836 b 308 947 347 836 308 882 l 308 956 l 231 956 l 231 947 b 424 769 231 833 310 769 z m 433 -19 b 735 171 613 -19 692 79 l 660 204 b 433 56 622 121 560 56 b 172 319 285 56 178 151 l 747 319 l 747 364 b 424 694 747 569 613 694 b 89 346 229 694 89 553 l 89 329 b 433 -19 89 122 225 -19 z m 174 392 b 424 619 193 538 289 619 b 663 392 560 619 656 538 z "},"ę":{"ha":831,"x_min":0,"x_max":0,"o":"m 433 -19 b 476 -17 449 -19 463 -18 l 468 -56 b 456 -136 461 -85 456 -110 b 550 -225 456 -194 490 -225 l 617 -225 l 617 -153 l 560 -153 b 529 -126 540 -153 529 -143 b 535 -90 529 -114 532 -107 l 551 -3 b 735 171 650 31 703 103 l 660 204 b 433 56 622 121 560 56 b 172 319 285 56 178 151 l 747 319 l 747 364 b 424 694 747 569 613 694 b 89 346 229 694 89 553 l 89 329 b 433 -19 89 122 225 -19 z m 174 392 b 424 619 193 538 289 619 b 663 392 560 619 656 538 z "},"ė":{"ha":831,"x_min":0,"x_max":0,"o":"m 424 792 b 496 864 465 792 496 822 b 424 936 496 906 465 936 b 351 864 382 936 351 906 b 424 792 351 822 382 792 z m 433 -19 b 735 171 613 -19 692 79 l 660 204 b 433 56 622 121 560 56 b 172 319 285 56 178 151 l 747 319 l 747 364 b 424 694 747 569 613 694 b 89 346 229 694 89 553 l 89 329 b 433 -19 89 122 225 -19 z m 174 392 b 424 619 193 538 289 619 b 663 392 560 619 656 538 z "},"ĝ":{"ha":894,"x_min":0,"x_max":0,"o":"m 233 772 l 336 772 l 453 894 l 469 894 l 586 772 l 689 772 l 514 956 l 408 956 z m 89 335 b 414 -8 89 124 232 -8 b 675 129 563 -8 639 61 l 692 129 l 692 -161 b 649 -203 692 -189 679 -203 l 204 -203 l 204 -278 l 665 -278 b 772 -172 738 -278 772 -239 l 772 675 l 694 675 l 694 551 l 678 551 b 414 694 639 625 563 694 b 89 351 233 694 89 564 z m 433 67 b 175 338 281 67 175 168 l 175 349 b 433 619 175 518 281 619 b 692 349 586 619 692 518 l 692 338 b 433 67 692 168 586 67 z "},"ğ":{"ha":894,"x_min":0,"x_max":0,"o":"m 461 769 b 653 947 574 769 653 833 l 653 956 l 575 956 l 575 947 b 461 836 575 882 536 836 b 346 947 385 836 346 882 l 346 956 l 268 956 l 268 947 b 461 769 268 833 347 769 z m 89 335 b 414 -8 89 124 232 -8 b 675 129 563 -8 639 61 l 692 129 l 692 -161 b 649 -203 692 -189 679 -203 l 204 -203 l 204 -278 l 665 -278 b 772 -172 738 -278 772 -239 l 772 675 l 694 675 l 694 551 l 678 551 b 414 694 639 625 563 694 b 89 351 233 694 89 564 z m 433 67 b 175 338 281 67 175 168 l 175 349 b 433 619 175 518 281 619 b 692 349 586 619 692 518 l 692 338 b 433 67 692 168 586 67 z "},"ġ":{"ha":894,"x_min":0,"x_max":0,"o":"m 461 792 b 533 864 503 792 533 822 b 461 936 533 906 503 936 b 389 864 419 936 389 906 b 461 792 389 822 419 792 z m 89 335 b 414 -8 89 124 232 -8 b 675 129 563 -8 639 61 l 692 129 l 692 -161 b 649 -203 692 -189 679 -203 l 204 -203 l 204 -278 l 665 -278 b 772 -172 738 -278 772 -239 l 772 675 l 694 675 l 694 551 l 678 551 b 414 694 639 625 563 694 b 89 351 233 694 89 564 z m 433 67 b 175 338 281 67 175 168 l 175 349 b 433 619 175 518 281 619 b 692 349 586 619 692 518 l 692 338 b 433 67 692 168 586 67 z "},"ĥ":{"ha":850,"x_min":0,"x_max":0,"o":"m -68 1053 l 44 1053 l 156 1158 l 172 1158 l 283 1053 l 396 1053 l 213 1217 l 115 1217 z m 122 0 l 206 0 l 206 338 b 449 613 206 522 310 613 b 653 406 572 613 653 553 l 653 0 l 736 0 l 736 411 b 467 688 736 597 613 688 b 222 557 322 688 256 622 l 206 557 l 206 972 l 122 972 z "},"ħ":{"ha":850,"x_min":0,"x_max":0,"o":"m 122 0 l 206 0 l 206 338 b 449 613 206 522 310 613 b 653 406 572 613 653 553 l 653 0 l 736 0 l 736 411 b 467 688 736 597 613 688 b 222 557 322 688 256 622 l 206 557 l 206 786 l 457 786 l 457 847 l 206 847 l 206 972 l 122 972 l 122 847 l 11 847 l 11 786 l 122 786 z "},"ì":{"ha":328,"x_min":0,"x_max":0,"o":"m 138 789 l 224 789 l 117 972 l 10 972 z m 122 0 l 206 0 l 206 675 l 122 675 z "},"í":{"ha":328,"x_min":0,"x_max":0,"o":"m 104 772 l 190 772 l 318 956 l 213 956 z m 122 0 l 206 0 l 206 675 l 122 675 z "},"î":{"ha":328,"x_min":0,"x_max":0,"o":"m -64 772 l 39 772 l 156 894 l 172 894 l 289 772 l 392 772 l 217 956 l 111 956 z m 122 0 l 206 0 l 206 675 l 122 675 z "},"ĩ":{"ha":328,"x_min":0,"x_max":0,"o":"m 11 760 l 50 831 b 88 857 60 847 69 857 b 147 807 107 857 122 836 b 244 753 181 767 206 753 b 333 810 286 753 315 776 l 375 888 l 317 919 l 278 849 b 240 822 268 832 258 822 b 181 872 221 822 206 843 b 83 926 147 913 122 926 b -6 869 42 926 13 903 l -47 792 z m 122 0 l 206 0 l 206 675 l 122 675 z "},"ï":{"ha":328,"x_min":0,"x_max":0,"o":"m 289 792 b 360 863 331 792 360 821 b 289 933 360 904 331 933 b 218 863 247 933 218 904 b 289 792 218 821 247 792 z m 39 792 b 110 863 81 792 110 821 b 39 933 110 904 81 933 b -32 863 -3 933 -32 904 b 39 792 -32 821 -3 792 z m 122 0 l 206 0 l 206 675 l 122 675 z "},"ī":{"ha":328,"x_min":0,"x_max":0,"o":"m -44 803 l 372 803 l 372 875 l -44 875 z m 122 0 l 206 0 l 206 675 l 122 675 z "},"į":{"ha":328,"x_min":0,"x_max":0,"o":"m 164 792 b 236 864 206 792 236 822 b 164 936 236 906 206 936 b 92 864 122 936 92 906 b 164 792 92 822 122 792 z m 122 0 l 129 0 l 117 -56 b 104 -136 110 -85 104 -110 b 199 -225 104 -194 139 -225 l 265 -225 l 265 -153 l 208 -153 b 178 -126 189 -153 178 -143 b 183 -90 178 -114 181 -107 l 200 0 l 206 0 l 206 675 l 122 675 z "},"ĭ":{"ha":328,"x_min":0,"x_max":0,"o":"m 164 769 b 356 947 276 769 356 833 l 356 956 l 278 956 l 278 947 b 164 836 278 882 239 836 b 49 947 88 836 49 882 l 49 956 l -29 956 l -29 947 b 164 769 -29 833 50 769 z m 122 0 l 206 0 l 206 675 l 122 675 z "},"ĵ":{"ha":331,"x_min":0,"x_max":0,"o":"m -61 772 l 42 772 l 158 894 l 175 894 l 292 772 l 394 772 l 219 956 l 114 956 z m -14 -278 l 100 -278 b 208 -172 172 -278 208 -239 l 208 675 l 125 675 l 125 -161 b 83 -203 125 -189 114 -203 l -14 -203 z "},"ĸ":{"ha":732,"x_min":0,"x_max":0,"o":"m 122 0 l 206 0 l 206 304 l 222 304 l 581 0 l 701 0 l 290 346 l 690 675 l 568 675 l 222 386 l 206 386 l 206 675 l 122 675 z "},"ĺ":{"ha":328,"x_min":0,"x_max":0,"o":"m 99 1053 l 185 1053 l 299 1217 l 190 1217 z m 122 0 l 206 0 l 206 972 l 122 972 z "},"ľ":{"ha":408,"x_min":0,"x_max":0,"o":"m 122 0 l 206 0 l 206 972 l 122 972 z m 317 722 l 383 722 l 419 972 l 329 972 z "},"ḹ":{"ha":328,"x_min":0,"x_max":0,"o":"m -44 1075 l 372 1075 l 372 1147 l -44 1147 z m 122 0 l 206 0 l 206 972 l 122 972 z m 164 -261 b 236 -189 206 -261 236 -231 b 164 -117 236 -147 206 -117 b 92 -189 122 -117 92 -147 b 164 -261 92 -231 122 -261 z "},"ł":{"ha":483,"x_min":0,"x_max":0,"o":"m 200 0 l 283 0 l 283 399 l 444 485 l 414 542 l 283 472 l 283 972 l 200 972 l 200 426 l 39 340 l 69 283 l 200 353 z "},"ŀ":{"ha":556,"x_min":0,"x_max":0,"o":"m 122 0 l 206 0 l 206 972 l 122 972 z m 442 328 b 514 400 483 328 514 358 b 442 472 514 442 483 472 b 369 400 400 472 369 442 b 442 328 369 358 400 328 z "},"ń":{"ha":850,"x_min":0,"x_max":0,"o":"m 371 772 l 457 772 l 585 956 l 479 956 z m 122 0 l 206 0 l 206 338 b 449 614 206 522 310 614 b 653 406 572 614 653 553 l 653 0 l 736 0 l 736 411 b 467 689 736 597 613 689 b 219 550 322 689 253 622 l 203 550 l 203 675 l 122 675 z "},"ň":{"ha":850,"x_min":0,"x_max":0,"o":"m 378 772 l 483 772 l 658 956 l 556 956 l 439 833 l 422 833 l 306 956 l 203 956 z m 122 0 l 206 0 l 206 338 b 449 614 206 522 310 614 b 653 406 572 614 653 553 l 653 0 l 736 0 l 736 411 b 467 689 736 597 613 689 b 219 550 322 689 253 622 l 203 550 l 203 675 l 122 675 z "},"ñ":{"ha":850,"x_min":0,"x_max":0,"o":"m 278 760 l 317 831 b 354 857 326 847 336 857 b 414 807 374 857 389 836 b 511 753 447 767 472 753 b 600 810 553 753 582 776 l 642 888 l 583 919 l 544 849 b 507 822 535 832 525 822 b 447 872 488 822 472 843 b 350 926 414 913 389 926 b 261 869 308 926 279 903 l 219 792 z m 122 0 l 206 0 l 206 338 b 449 614 206 522 310 614 b 653 406 572 614 653 553 l 653 0 l 736 0 l 736 411 b 467 689 736 597 613 689 b 219 550 322 689 253 622 l 203 550 l 203 675 l 122 675 z "},"ŉ":{"ha":850,"x_min":0,"x_max":0,"o":"m 122 775 l 157 775 b 250 868 221 775 250 806 l 250 956 b 181 1032 250 1003 219 1032 b 111 964 140 1032 111 1003 b 181 896 111 924 142 896 l 194 896 l 194 869 b 151 828 194 839 182 828 l 122 828 z m 122 0 l 206 0 l 206 338 b 449 614 206 522 310 614 b 653 406 572 614 653 553 l 653 0 l 736 0 l 736 411 b 467 689 736 597 613 689 b 219 550 322 689 253 622 l 203 550 l 203 675 l 122 675 z "},"ò":{"ha":861,"x_min":0,"x_max":0,"o":"m 404 789 l 490 789 l 383 972 l 276 972 z m 431 -19 b 772 329 636 -19 772 121 l 772 346 b 431 694 772 554 636 694 b 89 346 225 694 89 554 l 89 329 b 431 -19 89 121 225 -19 z m 431 56 b 172 332 272 56 172 165 l 172 343 b 431 619 172 510 272 619 b 689 343 589 619 689 510 l 689 332 b 431 56 689 165 589 56 z "},"ó":{"ha":861,"x_min":0,"x_max":0,"o":"m 371 772 l 457 772 l 585 956 l 479 956 z m 431 -19 b 772 329 636 -19 772 121 l 772 346 b 431 694 772 554 636 694 b 89 346 225 694 89 554 l 89 329 b 431 -19 89 121 225 -19 z m 431 56 b 172 332 272 56 172 165 l 172 343 b 431 619 172 510 272 619 b 689 343 589 619 689 510 l 689 332 b 431 56 689 165 589 56 z "},"ô":{"ha":861,"x_min":0,"x_max":0,"o":"m 203 772 l 306 772 l 422 894 l 439 894 l 556 772 l 658 772 l 483 956 l 378 956 z m 431 -19 b 772 329 636 -19 772 121 l 772 346 b 431 694 772 554 636 694 b 89 346 225 694 89 554 l 89 329 b 431 -19 89 121 225 -19 z m 431 56 b 172 332 272 56 172 165 l 172 343 b 431 619 172 510 272 619 b 689 343 589 619 689 510 l 689 332 b 431 56 689 165 589 56 z "},"õ":{"ha":861,"x_min":0,"x_max":0,"o":"m 278 760 l 317 831 b 354 857 326 847 336 857 b 414 807 374 857 389 836 b 511 753 447 767 472 753 b 600 810 553 753 582 776 l 642 888 l 583 919 l 544 849 b 507 822 535 832 525 822 b 447 872 488 822 472 843 b 350 926 414 913 389 926 b 261 869 308 926 279 903 l 219 792 z m 431 -19 b 772 329 636 -19 772 121 l 772 346 b 431 694 772 554 636 694 b 89 346 225 694 89 554 l 89 329 b 431 -19 89 121 225 -19 z m 431 56 b 172 332 272 56 172 165 l 172 343 b 431 619 172 510 272 619 b 689 343 589 619 689 510 l 689 332 b 431 56 689 165 589 56 z "},"ö":{"ha":861,"x_min":0,"x_max":0,"o":"m 556 792 b 626 863 597 792 626 821 b 556 933 626 904 597 933 b 485 863 514 933 485 904 b 556 792 485 821 514 792 z m 306 792 b 376 863 347 792 376 821 b 306 933 376 904 347 933 b 235 863 264 933 235 904 b 306 792 235 821 264 792 z m 431 -19 b 772 329 636 -19 772 121 l 772 346 b 431 694 772 554 636 694 b 89 346 225 694 89 554 l 89 329 b 431 -19 89 121 225 -19 z m 431 56 b 172 332 272 56 172 165 l 172 343 b 431 619 172 510 272 619 b 689 343 589 619 689 510 l 689 332 b 431 56 689 165 589 56 z "},"ō":{"ha":861,"x_min":0,"x_max":0,"o":"m 222 803 l 639 803 l 639 875 l 222 875 z m 431 -19 b 772 329 636 -19 772 121 l 772 346 b 431 694 772 554 636 694 b 89 346 225 694 89 554 l 89 329 b 431 -19 89 121 225 -19 z m 431 56 b 172 332 272 56 172 165 l 172 343 b 431 619 172 510 272 619 b 689 343 589 619 689 510 l 689 332 b 431 56 689 165 589 56 z "},"ő":{"ha":861,"x_min":0,"x_max":0,"o":"m 463 772 l 544 772 l 661 956 l 563 956 z m 268 772 l 349 772 l 450 956 l 354 956 z m 431 -19 b 772 329 636 -19 772 121 l 772 346 b 431 694 772 554 636 694 b 89 346 225 694 89 554 l 89 329 b 431 -19 89 121 225 -19 z m 431 56 b 172 332 272 56 172 165 l 172 343 b 431 619 172 510 272 619 b 689 343 589 619 689 510 l 689 332 b 431 56 689 165 589 56 z "},"ŏ":{"ha":861,"x_min":0,"x_max":0,"o":"m 431 769 b 622 947 543 769 622 833 l 622 956 l 544 956 l 544 947 b 431 836 544 882 506 836 b 315 947 354 836 315 882 l 315 956 l 238 956 l 238 947 b 431 769 238 833 317 769 z m 431 -19 b 772 329 636 -19 772 121 l 772 346 b 431 694 772 554 636 694 b 89 346 225 694 89 554 l 89 329 b 431 -19 89 121 225 -19 z m 431 56 b 172 332 272 56 172 165 l 172 343 b 431 619 172 510 272 619 b 689 343 589 619 689 510 l 689 332 b 431 56 689 165 589 56 z "},"ø":{"ha":861,"x_min":0,"x_max":0,"o":"m 233 -81 l 283 8 b 431 -19 326 -10 376 -19 b 772 329 636 -19 772 121 l 772 346 b 638 633 772 472 722 574 l 683 714 l 626 746 l 581 665 b 431 694 536 685 486 694 b 89 346 225 694 89 554 l 89 329 b 226 40 89 201 140 100 l 176 -49 z m 172 332 l 172 343 b 431 619 172 510 272 619 b 543 597 472 619 510 613 l 265 110 b 172 332 206 157 172 235 z m 431 56 b 322 76 390 56 354 63 l 599 564 b 689 343 656 515 689 439 l 689 332 b 431 56 689 165 589 56 z "},"œ":{"ha":1440,"x_min":0,"x_max":0,"o":"m 429 -19 b 725 171 571 -19 676 50 l 742 171 b 1046 -19 792 56 901 -19 b 1346 172 1225 -19 1301 81 l 1269 204 b 1044 56 1232 121 1171 56 b 783 321 894 56 790 156 l 1357 321 l 1357 364 b 1036 694 1357 569 1224 694 b 742 504 903 694 794 621 l 725 504 b 429 694 676 624 571 694 b 89 346 224 694 89 554 l 89 328 b 429 -19 89 121 224 -19 z m 431 56 b 171 332 274 56 171 165 l 171 343 b 431 618 171 508 272 618 b 689 343 588 618 689 508 l 689 332 b 431 56 689 165 586 56 z m 785 392 b 1035 618 800 531 899 618 b 1271 392 1171 618 1265 538 z "},"ŕ":{"ha":513,"x_min":0,"x_max":0,"o":"m 233 772 l 319 772 l 447 956 l 342 956 z m 122 0 l 206 0 l 206 422 b 374 600 206 544 271 600 l 463 600 l 463 678 l 383 678 b 219 590 293 678 244 651 l 203 590 l 203 675 l 122 675 z "},"ř":{"ha":513,"x_min":0,"x_max":0,"o":"m 240 772 l 346 772 l 521 956 l 418 956 l 301 833 l 285 833 l 168 956 l 65 956 z m 122 0 l 206 0 l 206 422 b 374 600 206 544 271 600 l 463 600 l 463 678 l 383 678 b 219 590 293 678 244 651 l 203 590 l 203 675 l 122 675 z "},"ṝ":{"ha":513,"x_min":0,"x_max":0,"o":"m 85 803 l 501 803 l 501 875 l 85 875 z m 122 0 l 206 0 l 206 422 b 374 600 206 544 271 600 l 463 600 l 463 678 l 383 678 b 219 590 293 678 244 651 l 203 590 l 203 675 l 122 675 z m 164 -261 b 236 -189 206 -261 236 -231 b 164 -117 236 -147 206 -117 b 92 -189 122 -117 92 -147 b 164 -261 92 -231 122 -261 z "},"ś":{"ha":733,"x_min":0,"x_max":0,"o":"m 303 772 l 389 772 l 517 956 l 411 956 z m 390 -19 b 658 181 554 -19 658 53 b 413 376 658 308 550 353 l 349 388 b 193 507 253 404 193 432 b 361 622 193 582 258 622 b 557 475 464 622 539 582 l 635 492 b 361 694 610 624 514 694 b 110 507 208 694 110 624 b 336 314 110 390 207 336 l 400 303 b 575 181 506 285 575 261 b 390 53 575 100 501 53 b 157 247 279 53 178 100 l 75 232 b 390 -19 100 53 226 -19 z "},"ŝ":{"ha":733,"x_min":0,"x_max":0,"o":"m 135 772 l 238 772 l 354 894 l 371 894 l 488 772 l 590 772 l 415 956 l 310 956 z m 390 -19 b 658 181 554 -19 658 53 b 413 376 658 308 550 353 l 349 388 b 193 507 253 404 193 432 b 361 622 193 582 258 622 b 557 475 464 622 539 582 l 635 492 b 361 694 610 624 514 694 b 110 507 208 694 110 624 b 336 314 110 390 207 336 l 400 303 b 575 181 506 285 575 261 b 390 53 575 100 501 53 b 157 247 279 53 178 100 l 75 232 b 390 -19 100 53 226 -19 z "},"š":{"ha":733,"x_min":0,"x_max":0,"o":"m 310 772 l 415 772 l 590 956 l 488 956 l 371 833 l 354 833 l 238 956 l 135 956 z m 390 -19 b 658 181 554 -19 658 53 b 413 376 658 308 550 353 l 349 388 b 193 507 253 404 193 432 b 361 622 193 582 258 622 b 557 475 464 622 539 582 l 635 492 b 361 694 610 624 514 694 b 110 507 208 694 110 624 b 336 314 110 390 207 336 l 400 303 b 575 181 506 285 575 261 b 390 53 575 100 501 53 b 157 247 279 53 178 100 l 75 232 b 390 -19 100 53 226 -19 z "},"ş":{"ha":733,"x_min":0,"x_max":0,"o":"m 386 -281 b 525 -172 463 -281 525 -244 b 407 -67 525 -104 479 -67 l 411 -19 b 658 181 564 -12 658 58 b 413 376 658 308 550 353 l 349 388 b 193 507 253 404 193 432 b 361 622 193 582 258 622 b 557 475 464 622 539 582 l 635 492 b 361 694 610 624 514 694 b 110 507 208 694 110 624 b 336 314 110 390 207 336 l 400 303 b 575 181 506 285 575 261 b 390 53 575 100 501 53 b 157 247 279 53 178 100 l 75 232 b 346 -18 97 69 204 -6 l 336 -118 l 386 -118 b 456 -167 428 -118 456 -135 b 386 -217 456 -201 425 -217 b 282 -178 344 -217 311 -200 l 246 -233 b 386 -281 282 -261 331 -281 z "},"ß":{"ha":858,"x_min":0,"x_max":0,"o":"m 558 -19 b 815 194 714 -19 815 63 b 607 424 815 325 713 375 l 547 453 b 501 504 517 465 501 483 b 544 557 501 525 513 540 b 718 785 639 608 718 667 b 460 992 718 899 617 992 b 122 619 261 992 122 853 l 122 0 l 204 0 l 204 625 b 460 918 204 838 342 918 b 636 783 557 918 636 869 b 513 622 636 703 578 658 b 418 501 458 593 418 563 b 513 386 418 454 449 415 l 563 363 b 733 194 647 324 733 283 b 558 54 733 104 667 54 b 347 224 449 54 369 104 l 269 207 b 558 -19 289 61 399 -19 z "},"ſ":{"ha":464,"x_min":0,"x_max":0,"o":"m 197 0 l 281 0 l 281 856 b 322 897 281 883 292 897 l 467 897 l 467 972 l 306 972 b 197 867 233 972 197 933 l 197 675 l 42 675 l 42 600 l 197 600 z "},"ť":{"ha":642,"x_min":0,"x_max":0,"o":"m 472 808 l 539 808 l 575 1058 l 485 1058 z m 367 0 l 542 0 l 542 75 l 383 75 b 342 117 353 75 342 89 l 342 600 l 578 600 l 578 675 l 342 675 l 342 928 l 258 928 l 258 675 l 42 675 l 42 600 l 258 600 l 258 106 b 367 0 258 39 294 0 z "},"ŧ":{"ha":642,"x_min":0,"x_max":0,"o":"m 42 311 l 258 311 l 258 103 b 364 0 258 38 299 0 l 542 0 l 542 75 l 382 75 b 342 117 354 75 342 89 l 342 311 l 578 311 l 578 378 l 342 378 l 342 600 l 578 600 l 578 675 l 342 675 l 342 928 l 258 928 l 258 675 l 42 675 l 42 600 l 258 600 l 258 378 l 42 378 z "},"ù":{"ha":849,"x_min":0,"x_max":0,"o":"m 393 789 l 479 789 l 372 972 l 265 972 z m 382 -14 b 629 125 526 -14 596 53 l 646 125 l 646 0 l 726 0 l 726 675 l 643 675 l 643 338 b 400 61 643 153 539 61 b 196 269 276 61 196 122 l 196 675 l 113 675 l 113 264 b 382 -14 113 78 236 -14 z "},"ú":{"ha":849,"x_min":0,"x_max":0,"o":"m 360 772 l 446 772 l 574 956 l 468 956 z m 382 -14 b 629 125 526 -14 596 53 l 646 125 l 646 0 l 726 0 l 726 675 l 643 675 l 643 338 b 400 61 643 153 539 61 b 196 269 276 61 196 122 l 196 675 l 113 675 l 113 264 b 382 -14 113 78 236 -14 z "},"û":{"ha":849,"x_min":0,"x_max":0,"o":"m 192 772 l 294 772 l 411 894 l 428 894 l 544 772 l 647 772 l 472 956 l 367 956 z m 382 -14 b 629 125 526 -14 596 53 l 646 125 l 646 0 l 726 0 l 726 675 l 643 675 l 643 338 b 400 61 643 153 539 61 b 196 269 276 61 196 122 l 196 675 l 113 675 l 113 264 b 382 -14 113 78 236 -14 z "},"ũ":{"ha":849,"x_min":0,"x_max":0,"o":"m 267 760 l 306 831 b 343 857 315 847 325 857 b 403 807 363 857 378 836 b 500 753 436 767 461 753 b 589 810 542 753 571 776 l 631 888 l 572 919 l 533 849 b 496 822 524 832 514 822 b 436 872 476 822 461 843 b 339 926 403 913 378 926 b 250 869 297 926 268 903 l 208 792 z m 382 -14 b 629 125 526 -14 596 53 l 646 125 l 646 0 l 726 0 l 726 675 l 643 675 l 643 338 b 400 61 643 153 539 61 b 196 269 276 61 196 122 l 196 675 l 113 675 l 113 264 b 382 -14 113 78 236 -14 z "},"ü":{"ha":849,"x_min":0,"x_max":0,"o":"m 544 792 b 615 863 586 792 615 821 b 544 933 615 904 586 933 b 474 863 503 933 474 904 b 544 792 474 821 503 792 z m 294 792 b 365 863 336 792 365 821 b 294 933 365 904 336 933 b 224 863 253 933 224 904 b 294 792 224 821 253 792 z m 382 -14 b 629 125 526 -14 596 53 l 646 125 l 646 0 l 726 0 l 726 675 l 643 675 l 643 338 b 400 61 643 153 539 61 b 196 269 276 61 196 122 l 196 675 l 113 675 l 113 264 b 382 -14 113 78 236 -14 z "},"ū":{"ha":849,"x_min":0,"x_max":0,"o":"m 211 803 l 628 803 l 628 875 l 211 875 z m 382 -14 b 629 125 526 -14 596 53 l 646 125 l 646 0 l 726 0 l 726 675 l 643 675 l 643 338 b 400 61 643 153 539 61 b 196 269 276 61 196 122 l 196 675 l 113 675 l 113 264 b 382 -14 113 78 236 -14 z "},"ŭ":{"ha":849,"x_min":0,"x_max":0,"o":"m 419 769 b 611 947 532 769 611 833 l 611 956 l 533 956 l 533 947 b 419 836 533 882 494 836 b 304 947 343 836 304 882 l 304 956 l 226 956 l 226 947 b 419 769 226 833 306 769 z m 382 -14 b 629 125 526 -14 596 53 l 646 125 l 646 0 l 726 0 l 726 675 l 643 675 l 643 338 b 400 61 643 153 539 61 b 196 269 276 61 196 122 l 196 675 l 113 675 l 113 264 b 382 -14 113 78 236 -14 z "},"ů":{"ha":849,"x_min":0,"x_max":0,"o":"m 419 756 b 554 886 496 756 554 808 b 419 1017 554 964 496 1017 b 286 886 344 1017 286 964 b 419 756 286 808 344 756 z m 419 819 b 353 886 379 819 353 847 b 419 953 353 925 379 953 b 488 886 461 953 488 925 b 419 819 488 847 461 819 z m 382 -14 b 629 125 526 -14 596 53 l 646 125 l 646 0 l 726 0 l 726 675 l 643 675 l 643 338 b 400 61 643 153 539 61 b 196 269 276 61 196 122 l 196 675 l 113 675 l 113 264 b 382 -14 113 78 236 -14 z "},"ű":{"ha":849,"x_min":0,"x_max":0,"o":"m 451 772 l 533 772 l 650 956 l 551 956 z m 257 772 l 338 772 l 439 956 l 343 956 z m 382 -14 b 629 125 526 -14 596 53 l 646 125 l 646 0 l 726 0 l 726 675 l 643 675 l 643 338 b 400 61 643 153 539 61 b 196 269 276 61 196 122 l 196 675 l 113 675 l 113 264 b 382 -14 113 78 236 -14 z "},"ų":{"ha":849,"x_min":0,"x_max":0,"o":"m 382 -14 b 629 125 526 -14 596 53 l 646 125 l 646 0 l 650 0 l 638 -56 b 625 -136 631 -85 625 -110 b 719 -225 625 -194 660 -225 l 786 -225 l 786 -153 l 729 -153 b 699 -126 710 -153 699 -143 b 704 -90 699 -114 701 -107 l 721 0 l 726 0 l 726 675 l 643 675 l 643 338 b 400 61 643 153 539 61 b 196 269 276 61 196 122 l 196 675 l 113 675 l 113 264 b 382 -14 113 78 236 -14 z "},"ŵ":{"ha":1122,"x_min":0,"x_max":0,"o":"m 333 772 l 436 772 l 553 894 l 569 894 l 686 772 l 789 772 l 614 956 l 508 956 z m 233 0 l 379 0 l 553 619 l 569 619 l 743 0 l 889 0 l 1042 675 l 956 675 l 822 56 l 806 56 l 632 675 l 490 675 l 317 56 l 300 56 l 167 675 l 81 675 z "},"ý":{"ha":849,"x_min":0,"x_max":0,"o":"m 361 772 l 447 772 l 575 956 l 469 956 z m 207 -278 l 618 -278 b 726 -172 690 -278 726 -239 l 726 675 l 643 675 l 643 336 b 400 61 643 151 539 61 b 196 268 276 61 196 121 l 196 675 l 113 675 l 113 263 b 382 -14 113 76 236 -14 b 626 117 526 -14 593 51 l 643 117 l 643 -161 b 601 -203 643 -189 632 -203 l 207 -203 z "},"ŷ":{"ha":849,"x_min":0,"x_max":0,"o":"m 193 772 l 296 772 l 413 894 l 429 894 l 546 772 l 649 772 l 474 956 l 368 956 z m 207 -278 l 618 -278 b 726 -172 690 -278 726 -239 l 726 675 l 643 675 l 643 336 b 400 61 643 151 539 61 b 196 268 276 61 196 121 l 196 675 l 113 675 l 113 263 b 382 -14 113 76 236 -14 b 626 117 526 -14 593 51 l 643 117 l 643 -161 b 601 -203 643 -189 632 -203 l 207 -203 z "},"ÿ":{"ha":849,"x_min":0,"x_max":0,"o":"m 546 792 b 617 863 588 792 617 821 b 546 933 617 904 588 933 b 475 863 504 933 475 904 b 546 792 475 821 504 792 z m 296 792 b 367 863 338 792 367 821 b 296 933 367 904 338 933 b 225 863 254 933 225 904 b 296 792 225 821 254 792 z m 207 -278 l 618 -278 b 726 -172 690 -278 726 -239 l 726 675 l 643 675 l 643 336 b 400 61 643 151 539 61 b 196 268 276 61 196 121 l 196 675 l 113 675 l 113 263 b 382 -14 113 76 236 -14 b 626 117 526 -14 593 51 l 643 117 l 643 -161 b 601 -203 643 -189 632 -203 l 207 -203 z "},"ź":{"ha":725,"x_min":0,"x_max":0,"o":"m 292 772 l 378 772 l 506 956 l 400 956 z m 89 0 l 639 0 l 639 75 l 172 75 l 172 89 l 628 561 l 628 675 l 103 675 l 103 600 l 543 600 l 543 586 l 89 114 z "},"ž":{"ha":725,"x_min":0,"x_max":0,"o":"m 299 772 l 404 772 l 579 956 l 476 956 l 360 833 l 343 833 l 226 956 l 124 956 z m 89 0 l 639 0 l 639 75 l 172 75 l 172 89 l 628 561 l 628 675 l 103 675 l 103 600 l 543 600 l 543 586 l 89 114 z "},"ż":{"ha":725,"x_min":0,"x_max":0,"o":"m 351 792 b 424 864 393 792 424 822 b 351 936 424 906 393 936 b 279 864 310 936 279 906 b 351 792 279 822 310 792 z m 89 0 l 639 0 l 639 75 l 172 75 l 172 89 l 628 561 l 628 675 l 103 675 l 103 600 l 543 600 l 543 586 l 89 114 z "},"þ":{"ha":894,"x_min":0,"x_max":0,"o":"m 122 -278 l 204 -278 l 204 117 l 219 117 b 482 -19 257 49 333 -19 b 806 329 664 -19 806 114 l 806 346 b 482 694 806 560 664 694 b 219 557 333 694 257 625 l 204 557 l 204 972 l 122 972 z m 464 56 b 204 332 313 56 204 160 l 204 343 b 464 619 204 515 313 619 b 721 343 617 619 721 515 l 721 332 b 464 56 721 160 617 56 z "},"ŋ":{"ha":850,"x_min":0,"x_max":0,"o":"m 122 0 l 206 0 l 206 338 b 449 614 206 522 310 614 b 653 406 572 614 653 553 l 653 -161 b 614 -203 653 -189 639 -203 l 458 -203 l 458 -278 l 639 -278 b 736 -178 700 -278 736 -242 l 736 411 b 467 689 736 597 613 689 b 219 550 322 689 253 622 l 203 550 l 203 675 l 122 675 z "},"ĳ":{"ha":658,"x_min":0,"x_max":0,"o":"m 164 792 b 236 864 206 792 236 822 b 164 936 236 906 206 936 b 92 864 122 936 92 906 b 164 792 92 822 122 792 z m 494 792 b 567 864 536 792 567 822 b 494 936 567 906 536 936 b 422 864 453 936 422 906 b 494 792 422 822 453 792 z m 122 0 l 206 0 l 206 675 l 122 675 z m 314 -278 l 428 -278 b 536 -172 500 -278 536 -239 l 536 675 l 453 675 l 453 -161 b 411 -203 453 -189 442 -203 l 314 -203 z "},"":{"ha":658,"x_min":0,"x_max":0,"o":"m 104 772 l 190 772 l 318 956 l 213 956 z m 435 772 l 521 772 l 649 956 l 543 956 z m 122 0 l 206 0 l 206 675 l 122 675 z m 314 -278 l 428 -278 b 536 -172 500 -278 536 -239 l 536 675 l 453 675 l 453 -161 b 411 -203 453 -189 442 -203 l 314 -203 z "},"ɑ":{"ha":922,"x_min":0,"x_max":0,"o":"m 414 -19 b 678 124 563 -19 639 50 l 694 124 l 694 101 b 790 0 694 39 731 0 l 879 0 l 879 72 l 814 72 b 775 114 789 72 775 86 l 775 675 l 694 675 l 694 551 l 678 551 b 414 694 639 625 563 694 b 89 346 233 694 89 561 l 89 329 b 414 -19 89 115 232 -19 z m 433 56 b 175 332 281 56 175 160 l 175 343 b 433 619 175 515 281 619 b 692 343 586 619 692 515 l 692 332 b 433 56 692 160 586 56 z "},"π":{"ha":842,"x_min":0,"x_max":0,"o":"m 186 0 l 269 0 l 269 600 l 556 600 l 556 106 b 664 0 556 39 592 0 l 736 0 l 736 75 l 681 75 b 639 117 650 75 639 89 l 639 600 l 736 600 l 736 675 l 89 675 l 89 600 l 186 600 z "},"ª":{"ha":583,"x_min":0,"x_max":0,"o":"m 244 472 b 403 557 340 472 382 515 l 419 557 b 499 486 419 511 450 486 l 553 486 l 553 547 l 508 547 b 481 578 490 547 481 557 l 481 794 b 283 981 481 911 407 981 b 69 832 160 981 92 911 l 140 815 b 283 919 154 872 196 919 b 411 797 369 919 411 872 l 411 764 l 242 764 b 58 622 143 764 58 722 b 244 472 58 522 142 472 z m 250 536 b 128 622 175 536 128 564 b 244 703 128 681 175 703 l 411 703 l 411 690 b 250 536 411 586 351 536 z "},"º":{"ha":608,"x_min":0,"x_max":0,"o":"m 304 472 b 550 726 451 472 550 567 b 304 981 550 886 451 981 b 58 726 157 981 58 886 b 304 472 58 567 157 472 z m 304 533 b 129 726 200 533 129 610 b 304 919 129 843 200 919 b 479 726 408 919 479 843 b 304 533 479 610 408 533 z "},"†":{"ha":792,"x_min":0,"x_max":0,"o":"m 353 0 l 439 0 l 439 597 l 681 597 l 681 675 l 439 675 l 439 972 l 353 972 l 353 675 l 111 675 l 111 597 l 353 597 z "},"‡":{"ha":792,"x_min":0,"x_max":0,"o":"m 353 0 l 439 0 l 439 275 l 681 275 l 681 353 l 439 353 l 439 622 l 681 622 l 681 700 l 439 700 l 439 972 l 353 972 l 353 700 l 111 700 l 111 622 l 353 622 l 353 353 l 111 353 l 111 275 l 353 275 z "},"§":{"ha":706,"x_min":0,"x_max":0,"o":"m 365 -19 b 622 203 535 -19 622 74 l 622 213 b 588 326 622 256 610 292 b 625 442 614 360 625 396 b 386 632 625 553 538 599 b 183 788 261 658 183 689 b 350 917 183 876 260 917 b 533 763 444 917 533 867 l 533 719 l 617 719 l 617 768 b 349 992 617 914 506 992 b 100 789 213 992 100 917 l 100 783 b 140 663 100 736 114 696 b 100 550 110 629 100 594 b 346 349 100 438 174 378 b 539 204 481 326 539 292 b 367 56 539 118 475 56 b 150 263 228 56 150 135 l 150 288 l 67 288 l 67 256 b 365 -19 67 85 181 -19 z m 525 379 b 381 422 489 397 450 410 b 183 550 233 447 183 479 b 201 610 183 575 190 594 b 349 561 238 592 289 572 b 542 436 476 536 542 508 b 525 379 542 411 533 393 z "},"¶":{"ha":781,"x_min":0,"x_max":0,"o":"m 367 0 l 450 0 l 450 896 l 578 896 l 578 0 l 661 0 l 661 972 l 353 972 b 44 711 174 972 44 878 l 44 697 b 353 436 44 531 172 436 l 367 436 z m 354 511 b 128 700 200 511 128 592 l 128 708 b 354 896 128 817 201 896 l 367 896 l 367 511 z "},"©":{"ha":969,"x_min":0,"x_max":0,"o":"m 479 -17 l 493 -17 b 881 413 728 -17 881 114 l 881 560 b 493 989 881 858 728 989 l 479 989 b 89 560 244 989 89 858 l 89 413 b 479 -17 89 114 244 -17 z m 481 56 b 168 414 285 56 168 163 l 168 558 b 481 917 168 810 285 917 l 492 917 b 803 558 686 917 803 810 l 803 414 b 492 56 803 163 686 56 z m 494 172 b 689 375 622 172 689 257 l 689 404 l 607 404 l 607 374 b 493 247 607 286 564 247 b 368 376 428 247 368 290 l 368 590 b 493 729 368 682 422 729 b 607 606 576 729 607 674 l 607 568 l 689 568 l 689 597 b 492 803 689 718 617 803 b 286 571 371 803 286 724 l 286 396 b 494 172 286 247 367 172 z "},"®":{"ha":746,"x_min":0,"x_max":0,"o":"m 374 414 b 665 703 540 414 665 533 b 374 992 665 872 540 992 b 82 703 207 992 82 872 b 374 414 82 533 207 414 z m 374 467 b 138 703 232 467 138 560 b 374 939 138 846 232 939 b 610 703 515 939 610 846 b 374 467 610 560 515 467 z m 274 551 l 326 551 l 326 667 l 403 667 b 432 638 421 667 432 656 l 432 551 l 485 551 l 485 639 b 440 688 485 663 471 685 l 440 696 b 496 774 479 710 496 736 b 392 860 496 819 460 860 l 274 860 z m 326 714 l 326 813 l 394 813 b 443 764 425 813 443 790 b 394 714 443 738 425 714 z "},"™":{"ha":794,"x_min":0,"x_max":0,"o":"m 364 664 l 417 664 l 417 925 l 425 925 l 501 664 l 582 664 l 658 925 l 667 925 l 667 664 l 719 664 l 719 972 l 621 972 l 546 713 l 538 713 l 463 972 l 364 972 z m 164 664 l 217 664 l 217 925 l 322 925 l 322 972 l 58 972 l 58 925 l 164 925 z "},"℠":{"ha":786,"x_min":0,"x_max":0,"o":"m 189 658 b 303 753 260 658 303 696 b 200 843 303 814 258 832 l 186 846 b 129 892 146 854 129 868 b 183 932 129 917 147 932 b 243 879 222 932 243 915 l 243 865 l 294 865 l 294 879 b 183 978 294 946 249 978 b 76 890 117 978 76 947 b 172 800 76 833 113 813 l 186 797 b 250 750 229 789 250 778 b 189 704 250 724 231 704 b 121 764 146 704 121 726 l 121 776 l 69 776 l 69 764 b 189 658 69 697 117 658 z m 356 664 l 408 664 l 408 925 l 417 925 l 493 664 l 574 664 l 650 925 l 658 925 l 658 664 l 711 664 l 711 972 l 613 972 l 538 713 l 529 713 l 454 972 l 356 972 z "},"#":{"ha":868,"x_min":0,"x_max":0,"o":"m 247 0 l 325 0 l 325 294 l 542 294 l 542 0 l 619 0 l 619 294 l 807 294 l 807 367 l 619 367 l 619 606 l 807 606 l 807 678 l 619 678 l 619 972 l 542 972 l 542 678 l 325 678 l 325 972 l 247 972 l 247 678 l 61 678 l 61 606 l 247 606 l 247 367 l 61 367 l 61 294 l 247 294 z m 325 367 l 325 606 l 542 606 l 542 367 z "},"¤":{"ha":861,"x_min":0,"x_max":0,"o":"m 136 133 l 217 214 b 431 139 275 164 350 139 b 644 214 511 139 588 164 l 726 133 l 785 192 l 703 272 b 778 486 749 331 778 406 b 703 700 778 567 749 643 l 785 782 l 726 840 l 644 758 b 431 833 588 804 511 833 b 217 758 350 833 275 804 l 136 840 l 78 782 l 158 700 b 83 486 108 643 83 567 b 158 272 83 406 108 331 l 78 192 z m 431 217 b 165 486 282 217 165 326 b 431 757 165 644 281 757 b 696 486 579 757 696 646 b 431 217 696 328 581 217 z "},"$":{"ha":856,"x_min":0,"x_max":0,"o":"m 397 -161 l 481 -161 l 481 -18 b 778 258 661 -4 778 101 b 496 525 778 428 647 488 l 481 529 l 481 910 b 672 699 592 893 672 828 l 672 633 l 761 633 l 761 699 b 481 989 761 871 642 969 l 481 1133 l 397 1133 l 397 992 b 99 733 219 983 99 885 b 375 469 99 575 215 510 l 397 464 l 397 60 b 164 322 258 74 164 157 l 164 349 l 75 349 l 75 322 b 397 -18 75 104 211 -4 z m 188 733 b 397 914 188 843 274 906 l 397 550 b 188 733 268 582 188 619 z m 689 258 b 481 61 689 153 615 74 l 481 443 b 689 258 604 411 689 369 z "},"£":{"ha":867,"x_min":0,"x_max":0,"o":"m 86 0 l 771 0 l 771 78 l 275 78 l 275 440 l 463 440 l 463 513 l 275 513 l 275 693 b 476 914 275 829 346 914 b 678 693 607 914 678 829 l 678 614 l 764 614 l 764 696 b 476 992 764 890 654 992 b 189 696 299 992 189 890 l 189 513 l 92 513 l 92 440 l 189 440 l 189 78 l 86 78 z "},"¥":{"ha":861,"x_min":0,"x_max":0,"o":"m 161 236 l 386 236 l 386 0 l 475 0 l 475 236 l 700 236 l 700 308 l 475 308 l 475 392 l 700 392 l 700 464 l 524 464 l 828 972 l 722 972 l 439 486 l 422 486 l 139 972 l 33 972 l 338 464 l 161 464 l 161 392 l 386 392 l 386 308 l 161 308 z "},"¢":{"ha":832,"x_min":0,"x_max":0,"o":"m 393 -161 l 474 -161 l 474 -17 b 754 238 640 0 731 115 l 672 254 b 474 58 656 154 593 74 l 474 617 b 667 421 593 600 654 517 l 749 438 b 474 692 731 558 640 675 l 474 850 l 393 850 l 393 693 b 89 344 215 676 89 546 l 89 331 b 393 -18 89 129 215 -1 z m 172 332 l 172 343 b 393 617 172 497 265 600 l 393 58 b 172 332 265 75 172 178 z "},"⁄":{"ha":911,"x_min":0,"x_max":0,"o":"m 92 -17 l 874 946 l 819 989 l 38 26 z "},"%":{"ha":1081,"x_min":0,"x_max":0,"o":"m 179 -19 l 963 943 l 901 992 l 118 29 z m 272 539 b 492 761 404 539 492 625 l 492 769 b 272 992 492 906 404 992 b 53 769 140 992 53 906 l 53 761 b 272 539 53 625 140 539 z m 272 606 b 128 758 183 606 128 667 l 128 772 b 272 925 128 864 183 925 b 417 772 361 925 417 864 l 417 758 b 272 606 417 667 361 606 z m 808 -19 b 1028 203 940 -19 1028 67 l 1028 211 b 808 433 1028 347 940 433 b 589 211 676 433 589 347 l 589 203 b 808 -19 589 67 676 -19 z m 808 47 b 664 200 719 47 664 108 l 664 214 b 808 367 664 306 719 367 b 953 214 897 367 953 306 l 953 200 b 808 47 953 108 897 47 z "},"‰":{"ha":1382,"x_min":0,"x_max":0,"o":"m 179 -19 l 963 943 l 901 992 l 118 29 z m 272 539 b 492 761 404 539 492 625 l 492 769 b 272 992 492 906 404 992 b 53 769 140 992 53 906 l 53 761 b 272 539 53 625 140 539 z m 272 606 b 128 758 183 606 128 667 l 128 772 b 272 925 128 864 183 925 b 417 772 361 925 417 864 l 417 758 b 272 606 417 667 361 606 z m 788 -19 b 951 78 864 -19 919 17 l 967 78 b 1131 -19 999 17 1054 -19 b 1329 201 1250 -19 1329 65 l 1329 213 b 1131 433 1329 349 1250 433 b 968 339 1054 433 999 399 l 950 339 b 788 433 919 399 864 433 b 589 213 668 433 589 349 l 589 201 b 788 -19 589 65 668 -19 z m 793 49 b 664 199 713 49 664 107 l 664 215 b 793 365 664 307 713 365 b 922 215 874 365 922 307 l 922 204 b 793 49 922 113 874 49 z m 1125 49 b 996 204 1044 49 996 113 l 996 215 b 1125 365 996 307 1044 365 b 1254 215 1206 365 1254 307 l 1254 199 b 1125 49 1254 107 1206 49 z "},"¼":{"ha":1124,"x_min":0,"x_max":0,"o":"m 143 -17 l 925 946 l 871 989 l 89 26 z m 200 486 l 269 486 l 269 972 l 163 972 l 28 756 l 104 756 l 183 886 l 200 886 z m 914 0 l 983 0 l 983 122 l 1099 122 l 1099 183 l 983 183 l 983 486 l 865 486 l 607 197 l 607 122 l 914 122 z m 693 183 l 693 197 l 897 426 l 914 426 l 914 183 z "},"½":{"ha":1143,"x_min":0,"x_max":0,"o":"m 143 -17 l 925 946 l 871 989 l 89 26 z m 200 486 l 269 486 l 269 972 l 163 972 l 28 756 l 104 756 l 183 886 l 200 886 z m 672 0 l 1096 0 l 1096 61 l 746 61 b 917 172 754 121 806 146 b 1099 343 1032 199 1099 242 b 894 506 1099 443 1017 506 b 675 325 772 506 686 447 l 744 322 b 894 444 751 406 810 444 b 1029 343 976 444 1029 401 b 868 224 1029 279 978 249 b 672 35 736 193 672 131 z "},"¾":{"ha":1244,"x_min":0,"x_max":0,"o":"m 264 -17 l 1046 946 l 992 989 l 210 26 z m 264 467 b 478 632 386 467 478 532 b 286 782 478 735 406 779 l 286 796 l 476 893 l 476 972 l 53 972 l 53 911 l 368 911 l 368 897 l 179 800 l 179 731 l 261 731 b 408 632 356 731 408 701 b 264 528 408 569 349 528 b 111 649 182 528 117 568 l 42 643 b 264 467 49 528 144 467 z m 1035 0 l 1104 0 l 1104 122 l 1219 122 l 1219 183 l 1104 183 l 1104 486 l 986 486 l 728 197 l 728 122 l 1035 122 z m 814 183 l 814 197 l 1018 426 l 1035 426 l 1035 183 z "},"⅓":{"ha":1190,"x_min":0,"x_max":0,"o":"m 143 -17 l 925 946 l 871 989 l 89 26 z m 200 486 l 269 486 l 269 972 l 163 972 l 28 756 l 104 756 l 183 886 l 200 886 z m 924 -19 b 1138 146 1046 -19 1138 46 b 946 296 1138 249 1065 293 l 946 310 l 1136 407 l 1136 486 l 713 486 l 713 425 l 1028 425 l 1028 411 l 839 314 l 839 244 l 921 244 b 1068 146 1015 244 1068 215 b 924 42 1068 83 1008 42 b 771 163 842 42 776 82 l 701 157 b 924 -19 708 42 804 -19 z "},"⅔":{"ha":1336,"x_min":0,"x_max":0,"o":"m 39 486 l 463 486 l 463 547 l 113 547 b 283 658 121 607 172 632 b 465 829 399 685 465 728 b 261 992 465 929 383 992 b 42 811 139 992 53 933 l 111 808 b 261 931 118 892 176 931 b 396 829 343 931 396 888 b 235 710 396 765 344 735 b 39 521 103 679 39 617 z m 289 -17 l 1071 946 l 1017 989 l 235 26 z m 1069 -19 b 1283 146 1192 -19 1283 46 b 1092 296 1283 249 1211 293 l 1092 310 l 1282 407 l 1282 486 l 858 486 l 858 425 l 1174 425 l 1174 411 l 985 314 l 985 244 l 1067 244 b 1214 146 1161 244 1214 215 b 1069 42 1214 83 1154 42 b 917 163 988 42 922 82 l 847 157 b 1069 -19 854 42 950 -19 z "},"⅛":{"ha":1175,"x_min":0,"x_max":0,"o":"m 143 -17 l 925 946 l 871 989 l 89 26 z m 200 486 l 269 486 l 269 972 l 163 972 l 28 756 l 104 756 l 183 886 l 200 886 z m 900 -19 b 1119 125 1039 -19 1119 40 b 1019 240 1119 201 1063 231 l 1019 257 b 1111 368 1058 267 1111 299 b 900 506 1111 453 1026 506 b 689 368 774 506 689 453 b 781 257 689 299 742 267 l 781 240 b 681 125 738 231 681 201 b 900 -19 681 40 761 -19 z m 900 278 b 758 361 813 278 758 308 b 900 444 758 414 813 444 b 1042 361 988 444 1042 414 b 900 278 1042 308 988 278 z m 900 42 b 750 129 807 42 750 71 b 900 217 750 188 807 217 b 1050 129 993 217 1050 188 b 900 42 1050 71 993 42 z "},"⅜":{"ha":1296,"x_min":0,"x_max":0,"o":"m 264 -17 l 1046 946 l 992 989 l 210 26 z m 264 467 b 478 632 386 467 478 532 b 286 782 478 735 406 779 l 286 796 l 476 893 l 476 972 l 53 972 l 53 911 l 368 911 l 368 897 l 179 800 l 179 731 l 261 731 b 408 632 356 731 408 701 b 264 528 408 569 349 528 b 111 649 182 528 117 568 l 42 643 b 264 467 49 528 144 467 z m 1021 -19 b 1240 125 1160 -19 1240 40 b 1140 240 1240 201 1183 231 l 1140 257 b 1232 368 1179 267 1232 299 b 1021 506 1232 453 1147 506 b 810 368 894 506 810 453 b 901 257 810 299 863 267 l 901 240 b 801 125 858 231 801 201 b 1021 -19 801 40 882 -19 z m 1021 278 b 879 361 933 278 879 308 b 1021 444 879 414 933 444 b 1163 361 1108 444 1163 414 b 1021 278 1163 308 1108 278 z m 1021 42 b 871 129 928 42 871 71 b 1021 217 871 188 928 217 b 1171 129 1114 217 1171 188 b 1021 42 1171 71 1114 42 z "},"⅝":{"ha":1288,"x_min":0,"x_max":0,"o":"m 256 -17 l 1038 946 l 983 989 l 201 26 z m 269 467 b 481 647 403 467 481 540 b 294 817 481 756 403 817 b 150 764 208 817 169 782 l 133 764 l 133 911 l 467 911 l 467 972 l 64 972 l 64 699 l 153 699 b 279 756 171 718 207 756 b 411 646 354 756 411 715 b 269 528 411 578 358 528 b 121 635 183 528 129 575 l 50 626 b 269 467 63 535 140 467 z m 1013 -19 b 1232 125 1151 -19 1232 40 b 1132 240 1232 201 1175 231 l 1132 257 b 1224 368 1171 267 1224 299 b 1013 506 1224 453 1139 506 b 801 368 886 506 801 453 b 893 257 801 299 854 267 l 893 240 b 793 125 850 231 793 201 b 1013 -19 793 40 874 -19 z m 1013 278 b 871 361 925 278 871 308 b 1013 444 871 414 925 444 b 1154 361 1100 444 1154 414 b 1013 278 1154 308 1100 278 z m 1013 42 b 863 129 919 42 863 71 b 1013 217 863 188 919 217 b 1163 129 1106 217 1163 188 b 1013 42 1163 71 1106 42 z "},"⅞":{"ha":1182,"x_min":0,"x_max":0,"o":"m 150 -17 l 932 946 l 878 989 l 96 26 z m 135 486 l 204 486 b 232 590 204 536 210 557 l 438 889 l 438 972 l 22 972 l 22 911 l 363 911 l 363 897 l 176 628 b 135 486 143 579 135 544 z m 907 -19 b 1126 125 1046 -19 1126 40 b 1026 240 1126 201 1069 231 l 1026 257 b 1118 368 1065 267 1118 299 b 907 506 1118 453 1033 506 b 696 368 781 506 696 453 b 788 257 696 299 749 267 l 788 240 b 688 125 744 231 688 201 b 907 -19 688 40 768 -19 z m 907 278 b 765 361 819 278 765 308 b 907 444 765 414 819 444 b 1049 361 994 444 1049 414 b 907 278 1049 308 994 278 z m 907 42 b 757 129 814 42 757 71 b 907 217 757 188 814 217 b 1057 129 1000 217 1057 188 b 907 42 1057 71 1000 42 z "},"+":{"ha":861,"x_min":0,"x_max":0,"o":"m 390 194 l 471 194 l 471 447 l 722 447 l 722 525 l 471 525 l 471 778 l 390 778 l 390 525 l 139 525 l 139 447 l 390 447 z "},"−":{"ha":861,"x_min":0,"x_max":0,"o":"m 139 447 l 722 447 l 722 525 l 139 525 z "},"×":{"ha":861,"x_min":0,"x_max":0,"o":"m 219 218 l 431 432 l 642 218 l 697 274 l 485 486 l 697 699 l 642 754 l 431 542 l 219 754 l 164 699 l 376 486 l 164 274 z "},"÷":{"ha":861,"x_min":0,"x_max":0,"o":"m 431 621 b 510 700 476 621 510 654 b 431 779 510 746 476 779 b 351 700 385 779 351 746 b 431 621 351 654 385 621 z m 139 447 l 722 447 l 722 525 l 139 525 z m 431 193 b 510 272 476 193 510 226 b 431 351 510 318 476 351 b 351 272 385 351 351 318 b 431 193 351 226 385 193 z "},"=":{"ha":861,"x_min":0,"x_max":0,"o":"m 139 544 l 722 544 l 722 622 l 139 622 z m 139 350 l 722 350 l 722 428 l 139 428 z "},"<":{"ha":861,"x_min":0,"x_max":0,"o":"m 722 181 l 722 278 l 228 479 l 228 493 l 722 694 l 722 792 l 139 542 l 139 431 z "},">":{"ha":861,"x_min":0,"x_max":0,"o":"m 139 181 l 722 431 l 722 542 l 139 792 l 139 694 l 635 493 l 635 479 l 139 278 z "},"≤":{"ha":861,"x_min":0,"x_max":0,"o":"m 722 181 l 722 278 l 228 479 l 228 493 l 722 694 l 722 792 l 139 542 l 139 431 z m 138 0 l 724 0 l 724 78 l 138 78 z "},"≥":{"ha":861,"x_min":0,"x_max":0,"o":"m 139 181 l 722 431 l 722 542 l 139 792 l 139 694 l 635 493 l 635 479 l 139 278 z m 138 0 l 724 0 l 724 78 l 138 78 z "},"±":{"ha":861,"x_min":0,"x_max":0,"o":"m 390 197 l 471 197 l 471 447 l 722 447 l 722 525 l 471 525 l 471 775 l 390 775 l 390 525 l 139 525 l 139 447 l 390 447 z m 139 0 l 722 0 l 722 78 l 139 78 z "},"^":{"ha":861,"x_min":0,"x_max":0,"o":"m 104 589 l 211 589 l 424 911 l 438 911 l 651 589 l 757 589 l 499 972 l 363 972 z "},"≠":{"ha":861,"x_min":0,"x_max":0,"o":"m 139 350 l 343 350 l 294 213 l 368 186 l 425 350 l 722 350 l 722 428 l 451 428 l 492 544 l 722 544 l 722 622 l 519 622 l 567 760 l 494 785 l 438 622 l 139 622 l 139 544 l 411 544 l 369 428 l 139 428 z "},"~":{"ha":861,"x_min":0,"x_max":0,"o":"m 190 392 l 304 488 b 347 508 318 500 329 508 b 400 460 372 508 382 489 b 506 379 429 411 451 379 b 608 429 549 379 578 404 l 722 522 l 671 581 l 557 485 b 514 464 543 472 532 464 b 461 513 489 464 479 483 b 356 593 432 561 410 593 b 253 543 313 593 283 568 l 139 450 z "},"≈":{"ha":861,"x_min":0,"x_max":0,"o":"m 190 503 l 304 599 b 347 619 318 611 329 619 b 400 571 372 619 382 600 b 506 490 429 522 451 490 b 608 540 549 490 578 515 l 722 633 l 671 692 l 557 596 b 514 575 543 583 532 575 b 461 624 489 575 479 594 b 356 704 432 672 410 704 b 253 654 313 704 283 679 l 139 561 z m 190 281 l 304 376 b 347 397 318 389 329 397 b 400 349 372 397 382 378 b 506 268 429 300 451 268 b 608 318 549 268 578 293 l 722 411 l 671 469 l 557 374 b 514 353 543 361 532 353 b 464 397 489 353 479 372 b 356 482 432 450 410 482 b 253 432 313 482 283 457 l 139 339 z "},"¬":{"ha":861,"x_min":0,"x_max":0,"o":"m 644 329 l 719 329 l 719 525 l 142 525 l 142 447 l 644 447 z "},"∞":{"ha":861,"x_min":0,"x_max":0,"o":"m 276 294 b 424 382 351 294 404 331 l 438 382 b 585 294 457 331 510 294 b 772 486 693 294 772 372 b 585 678 772 600 693 678 b 438 590 510 678 457 642 l 424 590 b 276 678 404 642 351 678 b 89 486 168 678 89 600 b 276 294 89 372 168 294 z m 281 369 b 169 486 214 369 169 417 b 281 603 169 556 214 603 b 392 486 347 603 392 556 b 281 369 392 417 347 369 z m 581 369 b 469 486 514 369 469 417 b 581 603 469 556 514 603 b 692 486 647 603 692 556 b 581 369 692 417 647 369 z "},"°":{"ha":522,"x_min":0,"x_max":0,"o":"m 261 575 b 469 783 379 575 469 661 b 261 992 469 906 379 992 b 53 783 143 992 53 906 b 261 575 53 661 143 575 z m 261 650 b 131 783 183 650 131 703 b 261 917 131 864 183 917 b 392 783 339 917 392 864 b 261 650 392 703 339 650 z "},"∂":{"ha":861,"x_min":0,"x_max":0,"o":"m 433 -19 b 771 367 647 -19 771 136 b 253 985 771 708 590 935 l 238 903 b 650 597 422 882 610 775 l 636 597 b 424 694 604 650 524 694 b 90 346 225 694 90 546 l 90 329 b 433 -19 90 128 231 -19 z m 432 56 b 174 328 281 56 174 172 l 174 347 b 432 619 174 497 281 619 b 688 346 579 619 688 501 b 432 56 688 186 596 56 z "},"◊":{"ha":861,"x_min":0,"x_max":0,"o":"m 367 0 l 494 0 l 767 486 l 494 972 l 367 972 l 94 486 z m 424 64 l 188 486 l 424 910 l 438 910 l 674 486 l 438 64 z "},"∫":{"ha":861,"x_min":0,"x_max":0,"o":"m 206 -278 l 378 -278 b 472 -182 433 -278 472 -239 l 472 853 b 510 894 472 881 485 894 l 656 894 l 656 972 l 483 972 b 389 876 428 972 389 933 l 389 -158 b 351 -200 389 -186 376 -200 l 206 -200 z "},"√":{"ha":861,"x_min":0,"x_max":0,"o":"m 328 0 l 481 0 l 806 1189 l 719 1189 l 411 51 l 397 51 l 269 522 l 75 522 l 75 444 l 207 444 z "},"∑":{"ha":861,"x_min":0,"x_max":0,"o":"m 75 -278 l 769 -278 l 769 -200 l 160 -200 l 160 -186 l 554 347 l 160 881 l 160 894 l 769 894 l 769 972 l 75 972 l 75 856 l 451 347 l 75 -161 z "},"∏":{"ha":861,"x_min":0,"x_max":0,"o":"m 100 -278 l 183 -278 l 183 894 l 656 894 l 656 -278 l 739 -278 l 739 972 l 100 972 z "},"Ω":{"ha":861,"x_min":0,"x_max":0,"o":"m 81 0 l 369 0 l 369 81 b 181 367 229 122 181 225 l 181 603 b 431 914 181 794 267 914 b 681 603 594 914 681 794 l 681 367 b 492 81 681 225 632 122 l 492 0 l 781 0 l 781 75 l 631 75 l 631 89 b 764 364 708 133 764 217 l 764 606 b 431 992 764 842 656 992 b 97 606 206 992 97 842 l 97 364 b 232 89 97 217 154 133 l 232 75 l 81 75 z "},"Δ":{"ha":861,"x_min":0,"x_max":0,"o":"m 39 0 l 822 0 l 496 972 l 365 972 z m 150 75 l 424 893 l 438 893 l 711 75 z "},"`":{"ha":381,"x_min":0,"x_max":0,"o":"m 211 789 l 297 789 l 190 972 l 83 972 z "},"´":{"ha":381,"x_min":0,"x_max":0,"o":"m 83 772 l 169 772 l 297 956 l 192 956 z "},"ˆ":{"ha":622,"x_min":0,"x_max":0,"o":"m 83 772 l 186 772 l 303 894 l 319 894 l 436 772 l 539 772 l 364 956 l 258 956 z "},"ˇ":{"ha":622,"x_min":0,"x_max":0,"o":"m 258 772 l 364 772 l 539 956 l 436 956 l 319 833 l 303 833 l 186 956 l 83 956 z "},"˜":{"ha":589,"x_min":0,"x_max":0,"o":"m 142 760 l 181 831 b 218 857 190 847 200 857 b 278 807 238 857 253 836 b 375 753 311 767 336 753 b 464 810 417 753 446 776 l 506 888 l 447 919 l 408 849 b 371 822 399 832 389 822 b 311 872 351 822 336 843 b 214 926 278 913 253 926 b 125 869 172 926 143 903 l 83 792 z "},"¨":{"ha":558,"x_min":0,"x_max":0,"o":"m 404 792 b 475 863 446 792 475 821 b 404 933 475 904 446 933 b 333 863 363 933 333 904 b 404 792 333 821 363 792 z m 154 792 b 225 863 196 792 225 821 b 154 933 225 904 196 933 b 83 863 113 933 83 904 b 154 792 83 821 113 792 z "},"¯":{"ha":583,"x_min":0,"x_max":0,"o":"m 83 803 l 500 803 l 500 875 l 83 875 z "},"˘":{"ha":551,"x_min":0,"x_max":0,"o":"m 276 769 b 468 947 389 769 468 833 l 468 956 l 390 956 l 390 947 b 276 836 390 882 351 836 b 161 947 200 836 161 882 l 161 956 l 83 956 l 83 947 b 276 769 83 833 163 769 z "},"˚":{"ha":435,"x_min":0,"x_max":0,"o":"m 217 756 b 351 886 293 756 351 808 b 217 1017 351 964 293 1017 b 83 886 142 1017 83 964 b 217 756 83 808 142 756 z m 217 819 b 150 886 176 819 150 847 b 217 953 150 925 176 953 b 285 886 258 953 285 925 b 217 819 285 847 258 819 z "},"˝":{"ha":560,"x_min":0,"x_max":0,"o":"m 278 772 l 360 772 l 476 956 l 378 956 z m 83 772 l 164 772 l 265 956 l 169 956 z "},"˙":{"ha":311,"x_min":0,"x_max":0,"o":"m 156 792 b 228 864 197 792 228 822 b 156 936 228 906 197 936 b 83 864 114 936 83 906 b 156 792 83 822 114 792 z "},"¸":{"ha":446,"x_min":0,"x_max":0,"o":"m 224 -281 b 363 -172 300 -281 363 -244 b 244 -67 363 -104 317 -67 l 254 31 l 189 31 l 174 -118 l 224 -118 b 293 -167 265 -118 293 -135 b 224 -217 293 -201 263 -217 b 119 -178 182 -217 149 -200 l 83 -233 b 224 -281 119 -261 168 -281 z "},"˛":{"ha":328,"x_min":0,"x_max":0,"o":"m 178 -225 l 244 -225 l 244 -153 l 188 -153 b 157 -126 168 -153 157 -143 b 163 -90 157 -114 160 -107 l 182 15 l 113 15 l 96 -56 b 83 -136 89 -85 83 -110 b 178 -225 83 -194 118 -225 z "},"ﬁ":{"ha":914,"x_min":0,"x_max":0,"o":"m 750 792 b 822 864 792 792 822 822 b 750 936 822 906 792 936 b 678 864 708 936 678 906 b 750 792 678 822 708 792 z m 264 0 l 347 0 l 347 600 l 708 600 l 708 0 l 792 0 l 792 675 l 347 675 l 347 856 b 389 897 347 883 358 897 l 539 897 l 539 972 l 372 972 b 264 867 300 972 264 933 l 264 675 l 42 675 l 42 600 l 264 600 z "},"ﬂ":{"ha":914,"x_min":0,"x_max":0,"o":"m 264 0 l 347 0 l 347 600 l 575 600 l 575 675 l 347 675 l 347 856 b 389 897 347 883 358 897 l 539 897 l 539 972 l 372 972 b 264 867 300 972 264 933 l 264 675 l 42 675 l 42 600 l 264 600 z m 708 0 l 792 0 l 792 972 l 708 972 z "},"ƒ":{"ha":861,"x_min":0,"x_max":0,"o":"m 151 0 l 372 0 b 467 96 429 0 467 39 l 467 524 l 661 524 l 661 596 l 467 596 l 467 856 b 504 897 467 883 479 897 l 701 897 l 701 972 l 476 972 b 383 876 421 972 383 933 l 383 596 l 199 596 l 199 524 l 383 524 l 383 117 b 346 75 383 89 371 75 l 151 75 z "},"́":{"ha":0,"x_min":0,"x_max":0,"o":"m 83 772 l 169 772 l 297 956 l 192 956 z "},"¹":{"ha":342,"x_min":0,"x_max":0,"o":"m 200 486 l 269 486 l 269 972 l 163 972 l 28 756 l 104 756 l 183 886 l 200 886 z "},"²":{"ha":510,"x_min":0,"x_max":0,"o":"m 39 486 l 463 486 l 463 547 l 113 547 b 283 658 121 607 172 632 b 465 829 399 685 465 728 b 261 992 465 929 383 992 b 42 811 139 992 53 933 l 111 808 b 261 931 118 892 176 931 b 396 829 343 931 396 888 b 235 710 396 765 344 735 b 39 521 103 679 39 617 z "},"³":{"ha":531,"x_min":0,"x_max":0,"o":"m 264 467 b 478 632 386 467 478 532 b 286 782 478 735 406 779 l 286 796 l 476 893 l 476 972 l 53 972 l 53 911 l 368 911 l 368 897 l 179 800 l 179 731 l 261 731 b 408 632 356 731 408 701 b 264 528 408 569 349 528 b 111 649 182 528 117 568 l 42 643 b 264 467 49 528 144 467 z "},"ⁱ":{"ha":294,"x_min":0,"x_max":0,"o":"m 147 1058 b 208 1117 182 1058 208 1083 b 147 1175 208 1150 182 1175 b 86 1117 113 1175 86 1150 b 147 1058 86 1083 113 1058 z m 113 486 l 182 486 l 182 972 l 113 972 z "},"ⁿ":{"ha":619,"x_min":0,"x_max":0,"o":"m 86 486 l 156 486 l 156 740 b 321 925 156 861 228 925 b 469 768 418 925 469 871 l 469 486 l 539 486 l 539 775 b 335 983 539 915 449 983 b 169 897 244 983 197 943 l 153 897 l 153 972 l 86 972 z "},"ₔ":{"ha":588,"x_min":0,"x_max":0,"o":"m 293 -292 b 529 -43 438 -292 529 -190 l 529 -32 b 297 222 529 115 440 222 b 75 89 169 222 103 154 l 135 60 b 293 161 158 117 199 161 b 458 -15 399 161 458 89 l 58 -15 l 58 -51 b 293 -292 58 -193 149 -292 z m 294 -231 b 132 -76 194 -231 133 -169 l 458 -76 b 294 -231 451 -169 396 -231 z "},"Ǽ":{"ha":1160,"x_min":0,"x_max":0,"o":"m 532 1053 l 618 1053 l 732 1217 l 624 1217 z m 39 0 l 136 0 l 247 258 l 547 258 l 547 0 l 1085 0 l 1085 81 l 636 81 l 636 447 l 1040 447 l 1040 528 l 636 528 l 636 892 l 1079 892 l 1079 972 l 464 972 z m 547 339 l 282 339 l 532 919 l 547 919 z "},"Ắ":{"ha":872,"x_min":0,"x_max":0,"o":"m 371 1247 l 457 1247 l 571 1411 l 463 1411 z m 436 1044 b 636 1215 563 1044 636 1115 l 636 1219 l 558 1219 l 558 1215 b 436 1111 558 1153 518 1111 b 315 1215 356 1111 315 1153 l 315 1219 l 238 1219 l 238 1215 b 436 1044 238 1115 310 1044 z m 39 0 l 132 0 l 215 258 l 657 258 l 740 0 l 833 0 l 515 972 l 357 972 z m 240 339 l 428 919 l 444 919 l 632 339 z "},"Ặ":{"ha":872,"x_min":0,"x_max":0,"o":"m 436 1044 b 636 1215 563 1044 636 1115 l 636 1219 l 558 1219 l 558 1215 b 436 1111 558 1153 518 1111 b 315 1215 356 1111 315 1153 l 315 1219 l 238 1219 l 238 1215 b 436 1044 238 1115 310 1044 z m 39 0 l 132 0 l 215 258 l 657 258 l 740 0 l 833 0 l 515 972 l 357 972 z m 240 339 l 428 919 l 444 919 l 632 339 z m 436 -261 b 508 -189 478 -261 508 -231 b 436 -117 508 -147 478 -117 b 364 -189 394 -117 364 -147 b 436 -261 364 -231 394 -261 z "},"Ằ":{"ha":872,"x_min":0,"x_max":0,"o":"m 417 1247 l 503 1247 l 411 1411 l 303 1411 z m 436 1044 b 636 1215 563 1044 636 1115 l 636 1219 l 558 1219 l 558 1215 b 436 1111 558 1153 518 1111 b 315 1215 356 1111 315 1153 l 315 1219 l 238 1219 l 238 1215 b 436 1044 238 1115 310 1044 z m 39 0 l 132 0 l 215 258 l 657 258 l 740 0 l 833 0 l 515 972 l 357 972 z m 240 339 l 428 919 l 444 919 l 632 339 z "},"Ẳ":{"ha":872,"x_min":0,"x_max":0,"o":"m 407 1232 l 472 1232 l 467 1282 b 585 1390 539 1282 585 1321 b 446 1501 585 1464 522 1501 b 306 1454 390 1501 342 1482 l 342 1399 b 446 1438 371 1421 404 1438 b 515 1385 485 1438 515 1421 b 446 1333 515 1351 488 1333 l 396 1333 z m 436 1044 b 636 1215 563 1044 636 1115 l 636 1219 l 558 1219 l 558 1215 b 436 1111 558 1153 518 1111 b 315 1215 356 1111 315 1153 l 315 1219 l 238 1219 l 238 1215 b 436 1044 238 1115 310 1044 z m 39 0 l 132 0 l 215 258 l 657 258 l 740 0 l 833 0 l 515 972 l 357 972 z m 240 339 l 428 919 l 444 919 l 632 339 z "},"Ẵ":{"ha":872,"x_min":0,"x_max":0,"o":"m 269 1272 l 310 1338 b 353 1368 321 1356 333 1368 b 411 1328 372 1368 385 1357 b 521 1265 449 1288 478 1265 b 614 1324 568 1265 596 1293 l 658 1397 l 603 1431 l 561 1364 b 519 1335 550 1346 539 1335 b 461 1375 500 1335 488 1346 b 351 1438 424 1415 394 1438 b 258 1379 304 1438 276 1410 l 214 1306 z m 436 1044 b 636 1215 563 1044 636 1115 l 636 1219 l 558 1219 l 558 1215 b 436 1111 558 1153 518 1111 b 315 1215 356 1111 315 1153 l 315 1219 l 238 1219 l 238 1215 b 436 1044 238 1115 310 1044 z m 39 0 l 132 0 l 215 258 l 657 258 l 740 0 l 833 0 l 515 972 l 357 972 z m 240 339 l 428 919 l 444 919 l 632 339 z "},"Ǎ":{"ha":872,"x_min":0,"x_max":0,"o":"m 388 1053 l 485 1053 l 668 1217 l 556 1217 l 444 1111 l 428 1111 l 317 1217 l 204 1217 z m 39 0 l 132 0 l 215 258 l 657 258 l 740 0 l 833 0 l 515 972 l 357 972 z m 240 339 l 428 919 l 444 919 l 632 339 z "},"Ấ":{"ha":872,"x_min":0,"x_max":0,"o":"m 588 1193 l 669 1193 l 767 1363 l 667 1363 z m 204 1053 l 317 1053 l 428 1158 l 444 1158 l 556 1053 l 668 1053 l 485 1217 l 388 1217 z m 39 0 l 132 0 l 215 258 l 657 258 l 740 0 l 833 0 l 515 972 l 357 972 z m 240 339 l 428 919 l 444 919 l 632 339 z "},"Ậ":{"ha":872,"x_min":0,"x_max":0,"o":"m 204 1053 l 317 1053 l 428 1158 l 444 1158 l 556 1053 l 668 1053 l 485 1217 l 388 1217 z m 39 0 l 132 0 l 215 258 l 657 258 l 740 0 l 833 0 l 515 972 l 357 972 z m 240 339 l 428 919 l 444 919 l 632 339 z m 436 -261 b 508 -189 478 -261 508 -231 b 436 -117 508 -147 478 -117 b 364 -189 394 -117 364 -147 b 436 -261 364 -231 394 -261 z "},"Ầ":{"ha":872,"x_min":0,"x_max":0,"o":"m 621 1193 l 701 1193 l 619 1363 l 519 1363 z m 204 1053 l 317 1053 l 428 1158 l 444 1158 l 556 1053 l 668 1053 l 485 1217 l 388 1217 z m 39 0 l 132 0 l 215 258 l 657 258 l 740 0 l 833 0 l 515 972 l 357 972 z m 240 339 l 428 919 l 444 919 l 632 339 z "},"Ẩ":{"ha":872,"x_min":0,"x_max":0,"o":"m 610 1186 l 675 1186 l 669 1236 b 788 1344 742 1236 788 1275 b 649 1456 788 1418 725 1456 b 508 1408 593 1456 544 1436 l 544 1353 b 649 1392 574 1375 607 1392 b 718 1339 688 1392 718 1375 b 649 1288 718 1306 690 1288 l 599 1288 z m 204 1053 l 317 1053 l 428 1158 l 444 1158 l 556 1053 l 668 1053 l 485 1217 l 388 1217 z m 39 0 l 132 0 l 215 258 l 657 258 l 740 0 l 833 0 l 515 972 l 357 972 z m 240 339 l 428 919 l 444 919 l 632 339 z "},"Ẫ":{"ha":872,"x_min":0,"x_max":0,"o":"m 269 1282 l 310 1347 b 353 1378 321 1365 333 1378 b 411 1338 372 1378 385 1367 b 521 1275 449 1297 478 1275 b 614 1333 568 1275 596 1303 l 658 1407 l 603 1440 l 561 1374 b 519 1344 550 1356 539 1344 b 461 1385 500 1344 488 1356 b 351 1447 424 1425 394 1447 b 258 1389 304 1447 276 1419 l 214 1315 z m 204 1053 l 317 1053 l 428 1158 l 444 1158 l 556 1053 l 668 1053 l 485 1217 l 388 1217 z m 39 0 l 132 0 l 215 258 l 657 258 l 740 0 l 833 0 l 515 972 l 357 972 z m 240 339 l 428 919 l 444 919 l 632 339 z "},"Ȁ":{"ha":872,"x_min":0,"x_max":0,"o":"m 333 1058 l 415 1058 l 317 1222 l 206 1222 z m 525 1058 l 600 1058 l 519 1222 l 421 1222 z m 39 0 l 132 0 l 215 258 l 657 258 l 740 0 l 833 0 l 515 972 l 357 972 z m 240 339 l 428 919 l 444 919 l 632 339 z "},"Ạ":{"ha":872,"x_min":0,"x_max":0,"o":"m 39 0 l 132 0 l 215 258 l 657 258 l 740 0 l 833 0 l 515 972 l 357 972 z m 240 339 l 428 919 l 444 919 l 632 339 z m 436 -261 b 508 -189 478 -261 508 -231 b 436 -117 508 -147 478 -117 b 364 -189 394 -117 364 -147 b 436 -261 364 -231 394 -261 z "},"Ả":{"ha":872,"x_min":0,"x_max":0,"o":"m 410 1039 l 475 1039 l 469 1089 b 588 1197 542 1089 588 1128 b 449 1308 588 1271 525 1308 b 308 1261 393 1308 344 1289 l 344 1206 b 449 1244 374 1228 407 1244 b 518 1192 488 1244 518 1228 b 449 1140 518 1158 490 1140 l 399 1140 z m 39 0 l 132 0 l 215 258 l 657 258 l 740 0 l 833 0 l 515 972 l 357 972 z m 240 339 l 428 919 l 444 919 l 632 339 z "},"Ȃ":{"ha":872,"x_min":0,"x_max":0,"o":"m 243 1069 l 321 1069 l 321 1078 b 436 1189 321 1143 360 1189 b 550 1078 511 1189 550 1143 l 550 1069 l 628 1069 l 628 1078 b 436 1256 628 1192 549 1256 b 243 1078 322 1256 243 1192 z m 39 0 l 132 0 l 215 258 l 657 258 l 740 0 l 833 0 l 515 972 l 357 972 z m 240 339 l 428 919 l 444 919 l 632 339 z "},"Ǻ":{"ha":872,"x_min":0,"x_max":0,"o":"m 436 1039 b 571 1169 513 1039 571 1092 b 521 1272 571 1214 551 1250 l 618 1415 l 518 1415 l 451 1299 b 436 1300 446 1300 442 1300 b 303 1169 361 1300 303 1247 b 436 1039 303 1092 361 1039 z m 436 1103 b 369 1169 396 1103 369 1131 b 436 1236 369 1208 396 1236 b 504 1169 478 1236 504 1208 b 436 1103 504 1131 478 1103 z m 39 0 l 132 0 l 215 258 l 657 258 l 740 0 l 833 0 l 515 972 l 357 972 z m 240 339 l 428 919 l 444 919 l 632 339 z "},"Ƀ":{"ha":917,"x_min":0,"x_max":0,"o":"m 67 0 l 544 0 b 836 253 710 0 836 94 l 836 267 b 672 483 836 403 744 465 l 672 500 b 836 718 743 521 836 582 l 836 729 b 549 972 836 874 715 972 l 67 972 l 67 892 l 206 892 l 206 297 l 67 297 l 67 228 l 206 228 l 206 81 l 67 81 z m 294 531 l 294 892 l 542 892 b 747 718 669 892 747 822 l 747 704 b 542 531 747 600 669 531 z m 294 81 l 294 228 l 467 228 l 467 297 l 294 297 l 294 450 l 536 450 b 747 271 675 450 747 381 l 747 260 b 536 81 747 150 675 81 z "},"Ḉ":{"ha":890,"x_min":0,"x_max":0,"o":"m 399 1053 l 485 1053 l 599 1217 l 490 1217 z m 465 -281 b 604 -172 542 -281 604 -244 b 486 -67 604 -104 558 -67 l 490 -19 b 813 335 699 -8 813 125 l 813 353 l 724 353 l 724 332 b 464 61 724 172 642 61 b 178 374 283 61 178 175 l 178 599 b 464 911 178 797 283 911 b 724 640 642 911 724 800 l 724 631 l 813 631 l 813 638 b 464 992 813 856 689 992 b 89 596 236 992 89 856 l 89 376 b 425 -18 89 132 219 -3 l 415 -118 l 465 -118 b 535 -167 507 -118 535 -135 b 465 -217 535 -201 504 -217 b 361 -178 424 -217 390 -200 l 325 -233 b 465 -281 361 -261 410 -281 z "},"Ǆ":{"ha":1699,"x_min":0,"x_max":0,"o":"m 1240 1053 l 1338 1053 l 1521 1217 l 1408 1217 l 1297 1111 l 1281 1111 l 1169 1217 l 1057 1217 z m 67 0 l 436 0 b 839 396 689 0 839 124 l 839 575 b 436 972 839 847 689 972 l 67 972 l 67 892 l 206 892 l 206 81 l 67 81 z m 968 0 l 1632 0 l 1632 81 l 1051 81 l 1051 94 l 1618 850 l 1618 972 l 985 972 l 985 892 l 1535 892 l 1535 878 l 968 122 z m 294 81 l 294 890 l 436 890 b 750 579 639 890 750 799 l 750 392 b 436 81 750 172 639 81 z "},"Ḍ":{"ha":919,"x_min":0,"x_max":0,"o":"m 67 0 l 436 0 b 839 396 689 0 839 124 l 839 575 b 436 972 839 847 689 972 l 67 972 l 67 892 l 206 892 l 206 81 l 67 81 z m 294 81 l 294 890 l 436 890 b 750 579 639 890 750 799 l 750 392 b 436 81 750 172 639 81 z m 440 -261 b 513 -189 482 -261 513 -231 b 440 -117 513 -147 482 -117 b 368 -189 399 -117 368 -147 b 440 -261 368 -231 399 -261 z "},"Ḏ":{"ha":919,"x_min":0,"x_max":0,"o":"m 67 0 l 436 0 b 839 396 689 0 839 124 l 839 575 b 436 972 839 847 689 972 l 67 972 l 67 892 l 206 892 l 206 81 l 67 81 z m 294 81 l 294 890 l 436 890 b 750 579 639 890 750 799 l 750 392 b 436 81 750 172 639 81 z m 232 -200 l 649 -200 l 649 -128 l 232 -128 z "},"ǅ":{"ha":1644,"x_min":0,"x_max":0,"o":"m 67 0 l 436 0 b 839 396 689 0 839 124 l 839 575 b 436 972 839 847 689 972 l 67 972 l 67 892 l 206 892 l 206 81 l 67 81 z m 1218 772 l 1324 772 l 1499 956 l 1396 956 l 1279 833 l 1263 833 l 1146 956 l 1043 956 z m 294 81 l 294 890 l 436 890 b 750 579 639 890 750 799 l 750 392 b 436 81 750 172 639 81 z m 1008 0 l 1558 0 l 1558 75 l 1092 75 l 1092 89 l 1547 561 l 1547 675 l 1022 675 l 1022 600 l 1463 600 l 1463 586 l 1008 114 z "},"Ḝ":{"ha":788,"x_min":0,"x_max":0,"o":"m 422 1044 b 622 1215 549 1044 622 1115 l 622 1219 l 544 1219 l 544 1215 b 422 1111 544 1153 504 1111 b 301 1215 342 1111 301 1153 l 301 1219 l 224 1219 l 224 1215 b 422 1044 224 1115 296 1044 z m 119 0 l 383 0 l 371 -118 l 421 -118 b 490 -167 463 -118 490 -135 b 421 -217 490 -201 460 -217 b 317 -178 379 -217 346 -200 l 281 -233 b 421 -281 317 -261 365 -281 b 560 -172 497 -281 560 -244 b 442 -67 560 -104 514 -67 l 449 0 l 713 0 l 713 81 l 208 81 l 208 447 l 668 447 l 668 528 l 208 528 l 208 892 l 707 892 l 707 972 l 119 972 z "},"Ế":{"ha":788,"x_min":0,"x_max":0,"o":"m 574 1193 l 656 1193 l 753 1363 l 653 1363 z m 190 1053 l 303 1053 l 414 1158 l 431 1158 l 542 1053 l 654 1053 l 471 1217 l 374 1217 z m 119 0 l 713 0 l 713 81 l 208 81 l 208 447 l 668 447 l 668 528 l 208 528 l 208 892 l 707 892 l 707 972 l 119 972 z "},"Ệ":{"ha":788,"x_min":0,"x_max":0,"o":"m 190 1053 l 303 1053 l 414 1158 l 431 1158 l 542 1053 l 654 1053 l 471 1217 l 374 1217 z m 119 0 l 713 0 l 713 81 l 208 81 l 208 447 l 668 447 l 668 528 l 208 528 l 208 892 l 707 892 l 707 972 l 119 972 z m 415 -261 b 488 -189 457 -261 488 -231 b 415 -117 488 -147 457 -117 b 343 -189 374 -117 343 -147 b 415 -261 343 -231 374 -261 z "},"Ề":{"ha":788,"x_min":0,"x_max":0,"o":"m 607 1193 l 688 1193 l 606 1363 l 506 1363 z m 190 1053 l 303 1053 l 414 1158 l 431 1158 l 542 1053 l 654 1053 l 471 1217 l 374 1217 z m 119 0 l 713 0 l 713 81 l 208 81 l 208 447 l 668 447 l 668 528 l 208 528 l 208 892 l 707 892 l 707 972 l 119 972 z "},"Ể":{"ha":788,"x_min":0,"x_max":0,"o":"m 596 1186 l 661 1186 l 656 1236 b 774 1344 728 1236 774 1275 b 635 1456 774 1418 711 1456 b 494 1408 579 1456 531 1436 l 531 1353 b 635 1392 560 1375 593 1392 b 704 1339 674 1392 704 1375 b 635 1288 704 1306 676 1288 l 585 1288 z m 190 1053 l 303 1053 l 414 1158 l 431 1158 l 542 1053 l 654 1053 l 471 1217 l 374 1217 z m 119 0 l 713 0 l 713 81 l 208 81 l 208 447 l 668 447 l 668 528 l 208 528 l 208 892 l 707 892 l 707 972 l 119 972 z "},"Ễ":{"ha":788,"x_min":0,"x_max":0,"o":"m 256 1282 l 296 1347 b 339 1378 307 1365 319 1378 b 397 1338 358 1378 371 1367 b 507 1275 435 1297 464 1275 b 600 1333 554 1275 582 1303 l 644 1407 l 589 1440 l 547 1374 b 506 1344 536 1356 525 1344 b 447 1385 486 1344 474 1356 b 338 1447 410 1425 381 1447 b 244 1389 290 1447 263 1419 l 200 1315 z m 190 1053 l 303 1053 l 414 1158 l 431 1158 l 542 1053 l 654 1053 l 471 1217 l 374 1217 z m 119 0 l 713 0 l 713 81 l 208 81 l 208 447 l 668 447 l 668 528 l 208 528 l 208 892 l 707 892 l 707 972 l 119 972 z "},"Ȅ":{"ha":788,"x_min":0,"x_max":0,"o":"m 319 1058 l 401 1058 l 303 1222 l 192 1222 z m 511 1058 l 586 1058 l 506 1222 l 407 1222 z m 119 0 l 713 0 l 713 81 l 208 81 l 208 447 l 668 447 l 668 528 l 208 528 l 208 892 l 707 892 l 707 972 l 119 972 z "},"Ẹ":{"ha":788,"x_min":0,"x_max":0,"o":"m 119 0 l 713 0 l 713 81 l 208 81 l 208 447 l 668 447 l 668 528 l 208 528 l 208 892 l 707 892 l 707 972 l 119 972 z m 415 -261 b 488 -189 457 -261 488 -231 b 415 -117 488 -147 457 -117 b 343 -189 374 -117 343 -147 b 415 -261 343 -231 374 -261 z "},"Ẻ":{"ha":788,"x_min":0,"x_max":0,"o":"m 396 1039 l 461 1039 l 456 1089 b 574 1197 528 1089 574 1128 b 435 1308 574 1271 511 1308 b 294 1261 379 1308 331 1289 l 331 1206 b 435 1244 360 1228 393 1244 b 504 1192 474 1244 504 1228 b 435 1140 504 1158 476 1140 l 385 1140 z m 119 0 l 713 0 l 713 81 l 208 81 l 208 447 l 668 447 l 668 528 l 208 528 l 208 892 l 707 892 l 707 972 l 119 972 z "},"Ȇ":{"ha":788,"x_min":0,"x_max":0,"o":"m 229 1069 l 307 1069 l 307 1078 b 422 1189 307 1143 346 1189 b 536 1078 497 1189 536 1143 l 536 1069 l 614 1069 l 614 1078 b 422 1256 614 1192 535 1256 b 229 1078 308 1256 229 1192 z m 119 0 l 713 0 l 713 81 l 208 81 l 208 447 l 668 447 l 668 528 l 208 528 l 208 892 l 707 892 l 707 972 l 119 972 z "},"Ḗ":{"ha":788,"x_min":0,"x_max":0,"o":"m 357 1239 l 443 1239 l 557 1403 l 449 1403 z m 214 1075 l 631 1075 l 631 1147 l 214 1147 z m 119 0 l 713 0 l 713 81 l 208 81 l 208 447 l 668 447 l 668 528 l 208 528 l 208 892 l 707 892 l 707 972 l 119 972 z "},"Ḕ":{"ha":788,"x_min":0,"x_max":0,"o":"m 401 1244 l 488 1244 l 396 1408 l 288 1408 z m 214 1075 l 631 1075 l 631 1147 l 214 1147 z m 119 0 l 713 0 l 713 81 l 208 81 l 208 447 l 668 447 l 668 528 l 208 528 l 208 892 l 707 892 l 707 972 l 119 972 z "},"Ẽ":{"ha":788,"x_min":0,"x_max":0,"o":"m 256 1060 l 296 1125 b 339 1156 307 1143 319 1156 b 397 1115 358 1156 371 1144 b 507 1053 435 1075 464 1053 b 600 1111 554 1053 582 1081 l 644 1185 l 589 1218 l 547 1151 b 506 1122 536 1133 525 1122 b 447 1163 486 1122 474 1133 b 338 1225 410 1203 381 1225 b 244 1167 290 1225 263 1197 l 200 1093 z m 119 0 l 713 0 l 713 81 l 208 81 l 208 447 l 668 447 l 668 528 l 208 528 l 208 892 l 707 892 l 707 972 l 119 972 z "},"Ǧ":{"ha":915,"x_min":0,"x_max":0,"o":"m 417 1053 l 514 1053 l 697 1217 l 585 1217 l 474 1111 l 457 1111 l 346 1217 l 233 1217 z m 458 -19 b 710 110 608 -19 676 42 l 726 110 l 726 0 l 807 0 l 807 449 l 400 449 l 400 371 l 721 371 l 721 343 b 464 61 721 171 639 61 b 178 374 283 61 178 175 l 178 599 b 464 911 178 797 283 911 b 718 649 642 911 718 800 l 718 639 l 807 639 l 807 646 b 464 992 807 856 689 992 b 89 596 236 992 89 856 l 89 376 b 458 -19 89 117 236 -19 z "},"Ģ":{"ha":915,"x_min":0,"x_max":0,"o":"m 458 -19 b 710 110 608 -19 676 42 l 726 110 l 726 0 l 807 0 l 807 449 l 400 449 l 400 371 l 721 371 l 721 343 b 464 61 721 171 639 61 b 178 374 283 61 178 175 l 178 599 b 464 911 178 797 283 911 b 718 649 642 911 718 800 l 718 639 l 807 639 l 807 646 b 464 992 807 856 689 992 b 89 596 236 992 89 856 l 89 376 b 458 -19 89 117 236 -19 z m 410 -347 l 444 -347 b 538 -254 508 -347 538 -317 l 538 -168 b 468 -92 538 -121 507 -92 b 399 -160 428 -92 399 -121 b 468 -228 399 -200 429 -228 l 482 -228 l 482 -253 b 439 -294 482 -283 469 -294 l 410 -294 z "},"ẞ":{"ha":868,"x_min":0,"x_max":0,"o":"m 565 -19 b 817 204 724 -19 817 74 b 636 431 817 335 725 390 l 571 460 b 504 533 529 478 504 497 b 549 617 504 567 521 590 l 796 850 l 796 972 l 446 972 b 111 622 244 972 111 857 l 111 0 l 200 0 l 200 628 b 446 892 200 819 304 892 l 704 892 l 704 878 l 501 686 b 415 532 450 638 415 597 b 532 386 415 467 454 421 l 597 357 b 728 204 665 326 728 290 b 565 61 728 118 668 61 b 392 233 463 61 392 118 l 303 233 b 565 -19 303 74 407 -19 z "},"Ḡ":{"ha":915,"x_min":0,"x_max":0,"o":"m 257 1075 l 674 1075 l 674 1147 l 257 1147 z m 458 -19 b 710 110 608 -19 676 42 l 726 110 l 726 0 l 807 0 l 807 449 l 400 449 l 400 371 l 721 371 l 721 343 b 464 61 721 171 639 61 b 178 374 283 61 178 175 l 178 599 b 464 911 178 797 283 911 b 718 649 642 911 718 800 l 718 639 l 807 639 l 807 646 b 464 992 807 856 689 992 b 89 596 236 992 89 856 l 89 376 b 458 -19 89 117 236 -19 z "},"Ḫ":{"ha":911,"x_min":0,"x_max":0,"o":"m 119 0 l 208 0 l 208 447 l 703 447 l 703 0 l 792 0 l 792 972 l 703 972 l 703 528 l 208 528 l 208 972 l 119 972 z m 456 -289 b 647 -111 568 -289 647 -225 l 647 -103 l 569 -103 l 569 -111 b 456 -222 569 -176 531 -222 b 340 -111 379 -222 340 -176 l 340 -103 l 263 -103 l 263 -111 b 456 -289 263 -225 342 -289 z "},"Ḥ":{"ha":911,"x_min":0,"x_max":0,"o":"m 119 0 l 208 0 l 208 447 l 703 447 l 703 0 l 792 0 l 792 972 l 703 972 l 703 528 l 208 528 l 208 972 l 119 972 z m 456 -261 b 528 -189 497 -261 528 -231 b 456 -117 528 -147 497 -117 b 383 -189 414 -117 383 -147 b 456 -261 383 -231 414 -261 z "},"Ǐ":{"ha":328,"x_min":0,"x_max":0,"o":"m 115 1053 l 213 1053 l 396 1217 l 283 1217 l 172 1111 l 156 1111 l 44 1217 l -68 1217 z m 119 0 l 208 0 l 208 972 l 119 972 z "},"Ȉ":{"ha":328,"x_min":0,"x_max":0,"o":"m 61 1058 l 143 1058 l 44 1222 l -67 1222 z m 253 1058 l 328 1058 l 247 1222 l 149 1222 z m 119 0 l 208 0 l 208 972 l 119 972 z "},"Ḯ":{"ha":328,"x_min":0,"x_max":0,"o":"m 99 1258 l 185 1258 l 299 1422 l 190 1422 z m 294 1058 b 365 1129 336 1058 365 1088 b 294 1200 365 1171 336 1200 b 224 1129 253 1200 224 1171 b 294 1058 224 1088 253 1058 z m 33 1058 b 104 1129 75 1058 104 1088 b 33 1200 104 1171 75 1200 b -37 1129 -8 1200 -37 1171 b 33 1058 -37 1088 -8 1058 z m 119 0 l 208 0 l 208 972 l 119 972 z "},"Ị":{"ha":328,"x_min":0,"x_max":0,"o":"m 119 0 l 208 0 l 208 972 l 119 972 z m 164 -261 b 236 -189 206 -261 236 -231 b 164 -117 236 -147 206 -117 b 92 -189 122 -117 92 -147 b 164 -261 92 -231 122 -261 z "},"Ỉ":{"ha":328,"x_min":0,"x_max":0,"o":"m 138 1039 l 203 1039 l 197 1089 b 315 1197 269 1089 315 1128 b 176 1308 315 1271 253 1308 b 36 1261 121 1308 72 1289 l 72 1206 b 176 1244 101 1228 135 1244 b 246 1192 215 1244 246 1228 b 176 1140 246 1158 218 1140 l 126 1140 z m 119 0 l 208 0 l 208 972 l 119 972 z "},"Ȋ":{"ha":328,"x_min":0,"x_max":0,"o":"m -29 1069 l 49 1069 l 49 1078 b 164 1189 49 1143 88 1189 b 278 1078 239 1189 278 1143 l 278 1069 l 356 1069 l 356 1078 b 164 1256 356 1192 276 1256 b -29 1078 50 1256 -29 1192 z m 119 0 l 208 0 l 208 972 l 119 972 z "},"Ķ":{"ha":839,"x_min":0,"x_max":0,"o":"m 119 0 l 208 0 l 208 447 l 225 447 l 690 0 l 817 0 l 297 492 l 800 972 l 675 972 l 225 533 l 208 533 l 208 972 l 119 972 z m 375 -347 l 410 -347 b 503 -254 474 -347 503 -317 l 503 -168 b 433 -92 503 -121 472 -92 b 364 -160 393 -92 364 -121 b 433 -228 364 -200 394 -228 l 447 -228 l 447 -253 b 404 -294 447 -283 435 -294 l 375 -294 z "},"Ǉ":{"ha":1576,"x_min":0,"x_max":0,"o":"m 119 0 l 719 0 l 719 81 l 208 81 l 208 972 l 119 972 z m 1122 -19 b 1410 292 1314 -19 1410 89 l 1410 892 l 1513 892 l 1513 972 l 1149 972 l 1149 892 l 1321 892 l 1321 292 b 1124 61 1321 156 1271 61 b 910 292 979 61 910 156 l 910 360 l 821 360 l 821 292 b 1122 -19 821 89 936 -19 z "},"Ļ":{"ha":760,"x_min":0,"x_max":0,"o":"m 119 0 l 719 0 l 719 81 l 208 81 l 208 972 l 119 972 z m 361 -347 l 396 -347 b 489 -254 460 -347 489 -317 l 489 -168 b 419 -92 489 -121 458 -92 b 350 -160 379 -92 350 -121 b 419 -228 350 -200 381 -228 l 433 -228 l 433 -253 b 390 -294 433 -283 421 -294 l 361 -294 z "},"Ḷ":{"ha":760,"x_min":0,"x_max":0,"o":"m 119 0 l 719 0 l 719 81 l 208 81 l 208 972 l 119 972 z m 419 -261 b 492 -189 461 -261 492 -231 b 419 -117 492 -147 461 -117 b 347 -189 378 -117 347 -147 b 419 -261 347 -231 378 -261 z "},"ǈ":{"ha":1090,"x_min":0,"x_max":0,"o":"m 119 0 l 719 0 l 719 81 l 208 81 l 208 972 l 119 972 z m 926 792 b 999 864 968 792 999 822 b 926 936 999 906 968 936 b 854 864 885 936 854 906 b 926 792 854 822 885 792 z m 746 -278 l 860 -278 b 968 -172 932 -278 968 -239 l 968 675 l 885 675 l 885 -161 b 843 -203 885 -189 874 -203 l 746 -203 z "},"Ḻ":{"ha":760,"x_min":0,"x_max":0,"o":"m 119 0 l 719 0 l 719 81 l 208 81 l 208 972 l 119 972 z m 211 -200 l 628 -200 l 628 -128 l 211 -128 z "},"Ṃ":{"ha":1192,"x_min":0,"x_max":0,"o":"m 119 0 l 206 0 l 206 919 l 222 919 l 517 0 l 675 0 l 969 919 l 986 919 l 986 0 l 1072 0 l 1072 972 l 899 972 l 604 53 l 588 53 l 293 972 l 119 972 z m 596 -261 b 668 -189 638 -261 668 -231 b 596 -117 668 -147 638 -117 b 524 -189 554 -117 524 -147 b 596 -261 524 -231 554 -261 z "},"Ǌ":{"ha":1735,"x_min":0,"x_max":0,"o":"m 119 0 l 208 0 l 208 921 l 225 921 l 622 0 l 799 0 l 799 972 l 710 972 l 710 53 l 693 53 l 296 972 l 119 972 z m 1281 -19 b 1568 292 1472 -19 1568 89 l 1568 892 l 1671 892 l 1671 972 l 1307 972 l 1307 892 l 1479 892 l 1479 292 b 1282 61 1479 156 1429 61 b 1068 292 1138 61 1068 156 l 1068 360 l 979 360 l 979 292 b 1281 -19 979 89 1094 -19 z "},"Ņ":{"ha":918,"x_min":0,"x_max":0,"o":"m 119 0 l 208 0 l 208 921 l 225 921 l 622 0 l 799 0 l 799 972 l 710 972 l 710 53 l 693 53 l 296 972 l 119 972 z m 406 -347 l 440 -347 b 533 -254 504 -347 533 -317 l 533 -168 b 464 -92 533 -121 503 -92 b 394 -160 424 -92 394 -121 b 464 -228 394 -200 425 -228 l 478 -228 l 478 -253 b 435 -294 478 -283 465 -294 l 406 -294 z "},"Ṅ":{"ha":918,"x_min":0,"x_max":0,"o":"m 465 1058 b 538 1131 507 1058 538 1089 b 465 1203 538 1172 507 1203 b 393 1131 424 1203 393 1172 b 465 1058 393 1089 424 1058 z m 119 0 l 208 0 l 208 921 l 225 921 l 622 0 l 799 0 l 799 972 l 710 972 l 710 53 l 693 53 l 296 972 l 119 972 z "},"Ṇ":{"ha":918,"x_min":0,"x_max":0,"o":"m 119 0 l 208 0 l 208 921 l 225 921 l 622 0 l 799 0 l 799 972 l 710 972 l 710 53 l 693 53 l 296 972 l 119 972 z m 464 -261 b 536 -189 506 -261 536 -231 b 464 -117 536 -147 506 -117 b 392 -189 422 -117 392 -147 b 464 -261 392 -231 422 -261 z "},"ǋ":{"ha":1249,"x_min":0,"x_max":0,"o":"m 119 0 l 208 0 l 208 921 l 225 921 l 622 0 l 799 0 l 799 972 l 710 972 l 710 53 l 693 53 l 296 972 l 119 972 z m 1085 792 b 1157 864 1126 792 1157 822 b 1085 936 1157 906 1126 936 b 1013 864 1043 936 1013 906 b 1085 792 1013 822 1043 792 z m 904 -278 l 1018 -278 b 1126 -172 1090 -278 1126 -239 l 1126 675 l 1043 675 l 1043 -161 b 1001 -203 1043 -189 1032 -203 l 904 -203 z "},"Ṉ":{"ha":918,"x_min":0,"x_max":0,"o":"m 119 0 l 208 0 l 208 921 l 225 921 l 622 0 l 799 0 l 799 972 l 710 972 l 710 53 l 693 53 l 296 972 l 119 972 z m 256 -200 l 672 -200 l 672 -128 l 256 -128 z "},"Ǒ":{"ha":925,"x_min":0,"x_max":0,"o":"m 414 1053 l 511 1053 l 694 1217 l 582 1217 l 471 1111 l 454 1111 l 343 1217 l 231 1217 z m 463 -19 b 836 376 690 -19 836 117 l 836 596 b 463 992 836 856 690 992 b 89 596 235 992 89 856 l 89 376 b 463 -19 89 117 235 -19 z m 463 61 b 178 374 282 61 178 175 l 178 599 b 463 911 178 797 282 911 b 747 599 643 911 747 797 l 747 374 b 463 61 747 175 643 61 z "},"Ố":{"ha":925,"x_min":0,"x_max":0,"o":"m 614 1193 l 696 1193 l 793 1363 l 693 1363 z m 231 1053 l 343 1053 l 454 1158 l 471 1158 l 582 1053 l 694 1053 l 511 1217 l 414 1217 z m 463 -19 b 836 376 690 -19 836 117 l 836 596 b 463 992 836 856 690 992 b 89 596 235 992 89 856 l 89 376 b 463 -19 89 117 235 -19 z m 463 61 b 178 374 282 61 178 175 l 178 599 b 463 911 178 797 282 911 b 747 599 643 911 747 797 l 747 374 b 463 61 747 175 643 61 z "},"Ộ":{"ha":925,"x_min":0,"x_max":0,"o":"m 231 1053 l 343 1053 l 454 1158 l 471 1158 l 582 1053 l 694 1053 l 511 1217 l 414 1217 z m 463 -19 b 836 376 690 -19 836 117 l 836 596 b 463 992 836 856 690 992 b 89 596 235 992 89 856 l 89 376 b 463 -19 89 117 235 -19 z m 463 61 b 178 374 282 61 178 175 l 178 599 b 463 911 178 797 282 911 b 747 599 643 911 747 797 l 747 374 b 463 61 747 175 643 61 z m 463 -261 b 535 -189 504 -261 535 -231 b 463 -117 535 -147 504 -117 b 390 -189 421 -117 390 -147 b 463 -261 390 -231 421 -261 z "},"Ồ":{"ha":925,"x_min":0,"x_max":0,"o":"m 647 1193 l 728 1193 l 646 1363 l 546 1363 z m 231 1053 l 343 1053 l 454 1158 l 471 1158 l 582 1053 l 694 1053 l 511 1217 l 414 1217 z m 463 -19 b 836 376 690 -19 836 117 l 836 596 b 463 992 836 856 690 992 b 89 596 235 992 89 856 l 89 376 b 463 -19 89 117 235 -19 z m 463 61 b 178 374 282 61 178 175 l 178 599 b 463 911 178 797 282 911 b 747 599 643 911 747 797 l 747 374 b 463 61 747 175 643 61 z "},"Ổ":{"ha":925,"x_min":0,"x_max":0,"o":"m 636 1186 l 701 1186 l 696 1236 b 814 1344 768 1236 814 1275 b 675 1456 814 1418 751 1456 b 535 1408 619 1456 571 1436 l 571 1353 b 675 1392 600 1375 633 1392 b 744 1339 714 1392 744 1375 b 675 1288 744 1306 717 1288 l 625 1288 z m 231 1053 l 343 1053 l 454 1158 l 471 1158 l 582 1053 l 694 1053 l 511 1217 l 414 1217 z m 463 -19 b 836 376 690 -19 836 117 l 836 596 b 463 992 836 856 690 992 b 89 596 235 992 89 856 l 89 376 b 463 -19 89 117 235 -19 z m 463 61 b 178 374 282 61 178 175 l 178 599 b 463 911 178 797 282 911 b 747 599 643 911 747 797 l 747 374 b 463 61 747 175 643 61 z "},"Ỗ":{"ha":925,"x_min":0,"x_max":0,"o":"m 296 1282 l 336 1347 b 379 1378 347 1365 360 1378 b 438 1338 399 1378 411 1367 b 547 1275 475 1297 504 1275 b 640 1333 594 1275 622 1303 l 685 1407 l 629 1440 l 588 1374 b 546 1344 576 1356 565 1344 b 488 1385 526 1344 514 1356 b 378 1447 450 1425 421 1447 b 285 1389 331 1447 303 1419 l 240 1315 z m 231 1053 l 343 1053 l 454 1158 l 471 1158 l 582 1053 l 694 1053 l 511 1217 l 414 1217 z m 463 -19 b 836 376 690 -19 836 117 l 836 596 b 463 992 836 856 690 992 b 89 596 235 992 89 856 l 89 376 b 463 -19 89 117 235 -19 z m 463 61 b 178 374 282 61 178 175 l 178 599 b 463 911 178 797 282 911 b 747 599 643 911 747 797 l 747 374 b 463 61 747 175 643 61 z "},"Ȍ":{"ha":925,"x_min":0,"x_max":0,"o":"m 360 1058 l 442 1058 l 343 1222 l 232 1222 z m 551 1058 l 626 1058 l 546 1222 l 447 1222 z m 463 -19 b 836 376 690 -19 836 117 l 836 596 b 463 992 836 856 690 992 b 89 596 235 992 89 856 l 89 376 b 463 -19 89 117 235 -19 z m 463 61 b 178 374 282 61 178 175 l 178 599 b 463 911 178 797 282 911 b 747 599 643 911 747 797 l 747 374 b 463 61 747 175 643 61 z "},"Ȫ":{"ha":925,"x_min":0,"x_max":0,"o":"m 254 1281 l 671 1281 l 671 1353 l 254 1353 z m 593 1058 b 664 1129 635 1058 664 1088 b 593 1200 664 1171 635 1200 b 522 1129 551 1200 522 1171 b 593 1058 522 1088 551 1058 z m 332 1058 b 403 1129 374 1058 403 1088 b 332 1200 403 1171 374 1200 b 261 1129 290 1200 261 1171 b 332 1058 261 1088 290 1058 z m 463 -19 b 836 376 690 -19 836 117 l 836 596 b 463 992 836 856 690 992 b 89 596 235 992 89 856 l 89 376 b 463 -19 89 117 235 -19 z m 463 61 b 178 374 282 61 178 175 l 178 599 b 463 911 178 797 282 911 b 747 599 643 911 747 797 l 747 374 b 463 61 747 175 643 61 z "},"Ȱ":{"ha":925,"x_min":0,"x_max":0,"o":"m 254 1267 l 671 1267 l 671 1339 l 254 1339 z m 463 1058 b 535 1131 504 1058 535 1089 b 463 1203 535 1172 504 1203 b 390 1131 421 1203 390 1172 b 463 1058 390 1089 421 1058 z m 463 -19 b 836 376 690 -19 836 117 l 836 596 b 463 992 836 856 690 992 b 89 596 235 992 89 856 l 89 376 b 463 -19 89 117 235 -19 z m 463 61 b 178 374 282 61 178 175 l 178 599 b 463 911 178 797 282 911 b 747 599 643 911 747 797 l 747 374 b 463 61 747 175 643 61 z "},"Ọ":{"ha":925,"x_min":0,"x_max":0,"o":"m 463 -19 b 836 376 690 -19 836 117 l 836 596 b 463 992 836 856 690 992 b 89 596 235 992 89 856 l 89 376 b 463 -19 89 117 235 -19 z m 463 61 b 178 374 282 61 178 175 l 178 599 b 463 911 178 797 282 911 b 747 599 643 911 747 797 l 747 374 b 463 61 747 175 643 61 z m 463 -261 b 535 -189 504 -261 535 -231 b 463 -117 535 -147 504 -117 b 390 -189 421 -117 390 -147 b 463 -261 390 -231 421 -261 z "},"Ω":{"ha":861,"x_min":0,"x_max":0,"o":"m 81 0 l 369 0 l 369 81 b 181 367 229 122 181 225 l 181 603 b 431 914 181 794 267 914 b 681 603 594 914 681 794 l 681 367 b 492 81 681 225 632 122 l 492 0 l 781 0 l 781 75 l 631 75 l 631 89 b 764 364 708 133 764 217 l 764 606 b 431 992 764 842 656 992 b 97 606 206 992 97 842 l 97 364 b 232 89 97 217 154 133 l 232 75 l 81 75 z "},"Ỏ":{"ha":925,"x_min":0,"x_max":0,"o":"m 436 1039 l 501 1039 l 496 1089 b 614 1197 568 1089 614 1128 b 475 1308 614 1271 551 1308 b 335 1261 419 1308 371 1289 l 371 1206 b 475 1244 400 1228 433 1244 b 544 1192 514 1244 544 1228 b 475 1140 544 1158 517 1140 l 425 1140 z m 463 -19 b 836 376 690 -19 836 117 l 836 596 b 463 992 836 856 690 992 b 89 596 235 992 89 856 l 89 376 b 463 -19 89 117 235 -19 z m 463 61 b 178 374 282 61 178 175 l 178 599 b 463 911 178 797 282 911 b 747 599 643 911 747 797 l 747 374 b 463 61 747 175 643 61 z "},"Ơ":{"ha":925,"x_min":0,"x_max":0,"o":"m 463 -19 b 836 376 690 -19 836 117 l 836 596 b 763 858 836 706 810 793 b 872 1033 836 874 872 924 l 872 1083 l 794 1083 l 794 1036 b 710 914 794 953 767 922 b 463 992 646 965 563 992 b 89 596 235 992 89 856 l 89 376 b 463 -19 89 117 235 -19 z m 463 61 b 178 374 282 61 178 175 l 178 599 b 463 911 178 797 282 911 b 747 599 643 911 747 797 l 747 374 b 463 61 747 175 643 61 z "},"Ớ":{"ha":925,"x_min":0,"x_max":0,"o":"m 397 1053 l 483 1053 l 597 1217 l 489 1217 z m 463 -19 b 836 376 690 -19 836 117 l 836 596 b 763 858 836 706 810 793 b 872 1033 836 874 872 924 l 872 1083 l 794 1083 l 794 1036 b 710 914 794 953 767 922 b 463 992 646 965 563 992 b 89 596 235 992 89 856 l 89 376 b 463 -19 89 117 235 -19 z m 463 61 b 178 374 282 61 178 175 l 178 599 b 463 911 178 797 282 911 b 747 599 643 911 747 797 l 747 374 b 463 61 747 175 643 61 z "},"Ợ":{"ha":925,"x_min":0,"x_max":0,"o":"m 463 -19 b 836 376 690 -19 836 117 l 836 596 b 763 858 836 706 810 793 b 872 1033 836 874 872 924 l 872 1083 l 794 1083 l 794 1036 b 710 914 794 953 767 922 b 463 992 646 965 563 992 b 89 596 235 992 89 856 l 89 376 b 463 -19 89 117 235 -19 z m 463 61 b 178 374 282 61 178 175 l 178 599 b 463 911 178 797 282 911 b 747 599 643 911 747 797 l 747 374 b 463 61 747 175 643 61 z m 463 -261 b 535 -189 504 -261 535 -231 b 463 -117 535 -147 504 -117 b 390 -189 421 -117 390 -147 b 463 -261 390 -231 421 -261 z "},"Ờ":{"ha":925,"x_min":0,"x_max":0,"o":"m 442 1058 l 528 1058 l 436 1222 l 328 1222 z m 463 -19 b 836 376 690 -19 836 117 l 836 596 b 763 858 836 706 810 793 b 872 1033 836 874 872 924 l 872 1083 l 794 1083 l 794 1036 b 710 914 794 953 767 922 b 463 992 646 965 563 992 b 89 596 235 992 89 856 l 89 376 b 463 -19 89 117 235 -19 z m 463 61 b 178 374 282 61 178 175 l 178 599 b 463 911 178 797 282 911 b 747 599 643 911 747 797 l 747 374 b 463 61 747 175 643 61 z "},"Ở":{"ha":925,"x_min":0,"x_max":0,"o":"m 436 1039 l 501 1039 l 496 1089 b 614 1197 568 1089 614 1128 b 475 1308 614 1271 551 1308 b 335 1261 419 1308 371 1289 l 371 1206 b 475 1244 400 1228 433 1244 b 544 1192 514 1244 544 1228 b 475 1140 544 1158 517 1140 l 425 1140 z m 463 -19 b 836 376 690 -19 836 117 l 836 596 b 763 858 836 706 810 793 b 872 1033 836 874 872 924 l 872 1083 l 794 1083 l 794 1036 b 710 914 794 953 767 922 b 463 992 646 965 563 992 b 89 596 235 992 89 856 l 89 376 b 463 -19 89 117 235 -19 z m 463 61 b 178 374 282 61 178 175 l 178 599 b 463 911 178 797 282 911 b 747 599 643 911 747 797 l 747 374 b 463 61 747 175 643 61 z "},"Ỡ":{"ha":925,"x_min":0,"x_max":0,"o":"m 296 1060 l 336 1125 b 379 1156 347 1143 360 1156 b 438 1115 399 1156 411 1144 b 547 1053 475 1075 504 1053 b 640 1111 594 1053 622 1081 l 685 1185 l 629 1218 l 588 1151 b 546 1122 576 1133 565 1122 b 488 1163 526 1122 514 1133 b 378 1225 450 1203 421 1225 b 285 1167 331 1225 303 1197 l 240 1093 z m 463 -19 b 836 376 690 -19 836 117 l 836 596 b 763 858 836 706 810 793 b 872 1033 836 874 872 924 l 872 1083 l 794 1083 l 794 1036 b 710 914 794 953 767 922 b 463 992 646 965 563 992 b 89 596 235 992 89 856 l 89 376 b 463 -19 89 117 235 -19 z m 463 61 b 178 374 282 61 178 175 l 178 599 b 463 911 178 797 282 911 b 747 599 643 911 747 797 l 747 374 b 463 61 747 175 643 61 z "},"Ȏ":{"ha":925,"x_min":0,"x_max":0,"o":"m 269 1069 l 347 1069 l 347 1078 b 463 1189 347 1143 386 1189 b 576 1078 538 1189 576 1143 l 576 1069 l 654 1069 l 654 1078 b 463 1256 654 1192 575 1256 b 269 1078 349 1256 269 1192 z m 463 -19 b 836 376 690 -19 836 117 l 836 596 b 463 992 836 856 690 992 b 89 596 235 992 89 856 l 89 376 b 463 -19 89 117 235 -19 z m 463 61 b 178 374 282 61 178 175 l 178 599 b 463 911 178 797 282 911 b 747 599 643 911 747 797 l 747 374 b 463 61 747 175 643 61 z "},"Ṓ":{"ha":925,"x_min":0,"x_max":0,"o":"m 397 1239 l 483 1239 l 597 1403 l 489 1403 z m 254 1075 l 671 1075 l 671 1147 l 254 1147 z m 463 -19 b 836 376 690 -19 836 117 l 836 596 b 463 992 836 856 690 992 b 89 596 235 992 89 856 l 89 376 b 463 -19 89 117 235 -19 z m 463 61 b 178 374 282 61 178 175 l 178 599 b 463 911 178 797 282 911 b 747 599 643 911 747 797 l 747 374 b 463 61 747 175 643 61 z "},"Ṑ":{"ha":925,"x_min":0,"x_max":0,"o":"m 442 1244 l 528 1244 l 436 1408 l 328 1408 z m 254 1075 l 671 1075 l 671 1147 l 254 1147 z m 463 -19 b 836 376 690 -19 836 117 l 836 596 b 463 992 836 856 690 992 b 89 596 235 992 89 856 l 89 376 b 463 -19 89 117 235 -19 z m 463 61 b 178 374 282 61 178 175 l 178 599 b 463 911 178 797 282 911 b 747 599 643 911 747 797 l 747 374 b 463 61 747 175 643 61 z "},"Ǫ":{"ha":925,"x_min":0,"x_max":0,"o":"m 519 -225 l 586 -225 l 586 -153 l 529 -153 b 499 -126 510 -153 499 -143 b 504 -90 499 -114 501 -107 l 518 -17 b 836 376 714 4 836 139 l 836 596 b 463 992 836 856 690 992 b 89 596 235 992 89 856 l 89 376 b 446 -19 89 124 228 -12 l 438 -56 b 425 -136 431 -85 425 -110 b 519 -225 425 -194 460 -225 z m 463 61 b 178 374 282 61 178 175 l 178 599 b 463 911 178 797 282 911 b 747 599 643 911 747 797 l 747 374 b 463 61 747 175 643 61 z "},"Ǿ":{"ha":925,"x_min":0,"x_max":0,"o":"m 397 1053 l 483 1053 l 597 1217 l 489 1217 z m 269 -117 l 315 3 b 463 -19 360 -12 408 -19 b 836 376 690 -19 836 117 l 836 596 b 678 936 836 760 778 875 l 721 1047 l 657 1072 l 615 967 b 463 992 571 983 519 992 b 89 596 235 992 89 856 l 89 376 b 253 32 89 210 149 94 l 204 -92 z m 178 374 l 178 599 b 463 911 178 797 282 911 b 586 889 508 911 550 904 l 285 114 b 178 374 215 165 178 254 z m 463 61 b 346 81 419 61 381 68 l 646 854 b 747 599 711 801 747 715 l 747 374 b 463 61 747 175 643 61 z "},"Ṍ":{"ha":925,"x_min":0,"x_max":0,"o":"m 397 1269 l 483 1269 l 597 1433 l 489 1433 z m 296 1060 l 336 1125 b 379 1156 347 1143 360 1156 b 438 1115 399 1156 411 1144 b 547 1053 475 1075 504 1053 b 640 1111 594 1053 622 1081 l 685 1185 l 629 1218 l 588 1151 b 546 1122 576 1133 565 1122 b 488 1163 526 1122 514 1133 b 378 1225 450 1203 421 1225 b 285 1167 331 1225 303 1197 l 240 1093 z m 463 -19 b 836 376 690 -19 836 117 l 836 596 b 463 992 836 856 690 992 b 89 596 235 992 89 856 l 89 376 b 463 -19 89 117 235 -19 z m 463 61 b 178 374 282 61 178 175 l 178 599 b 463 911 178 797 282 911 b 747 599 643 911 747 797 l 747 374 b 463 61 747 175 643 61 z "},"Ṏ":{"ha":925,"x_min":0,"x_max":0,"o":"m 593 1275 b 664 1346 635 1275 664 1304 b 593 1417 664 1388 635 1417 b 522 1346 551 1417 522 1388 b 593 1275 522 1304 551 1275 z m 332 1275 b 403 1346 374 1275 403 1304 b 332 1417 403 1388 374 1417 b 261 1346 290 1417 261 1388 b 332 1275 261 1304 290 1275 z m 296 1060 l 336 1125 b 379 1156 347 1143 360 1156 b 438 1115 399 1156 411 1144 b 547 1053 475 1075 504 1053 b 640 1111 594 1053 622 1081 l 685 1185 l 629 1218 l 588 1151 b 546 1122 576 1133 565 1122 b 488 1163 526 1122 514 1133 b 378 1225 450 1203 421 1225 b 285 1167 331 1225 303 1197 l 240 1093 z m 463 -19 b 836 376 690 -19 836 117 l 836 596 b 463 992 836 856 690 992 b 89 596 235 992 89 856 l 89 376 b 463 -19 89 117 235 -19 z m 463 61 b 178 374 282 61 178 175 l 178 599 b 463 911 178 797 282 911 b 747 599 643 911 747 797 l 747 374 b 463 61 747 175 643 61 z "},"Ȭ":{"ha":925,"x_min":0,"x_max":0,"o":"m 254 1292 l 671 1292 l 671 1364 l 254 1364 z m 296 1060 l 336 1125 b 379 1156 347 1143 360 1156 b 438 1115 399 1156 411 1144 b 547 1053 475 1075 504 1053 b 640 1111 594 1053 622 1081 l 685 1185 l 629 1218 l 588 1151 b 546 1122 576 1133 565 1122 b 488 1163 526 1122 514 1133 b 378 1225 450 1203 421 1225 b 285 1167 331 1225 303 1197 l 240 1093 z m 463 -19 b 836 376 690 -19 836 117 l 836 596 b 463 992 836 856 690 992 b 89 596 235 992 89 856 l 89 376 b 463 -19 89 117 235 -19 z m 463 61 b 178 374 282 61 178 175 l 178 599 b 463 911 178 797 282 911 b 747 599 643 911 747 797 l 747 374 b 463 61 747 175 643 61 z "},"Ŗ":{"ha":876,"x_min":0,"x_max":0,"o":"m 119 0 l 208 0 l 208 413 l 578 413 b 675 321 643 413 675 381 l 675 0 l 764 0 l 764 331 b 649 454 764 415 713 451 l 649 471 b 807 700 733 494 807 568 l 807 714 b 500 972 807 878 679 972 l 119 972 z m 208 493 l 208 892 l 492 892 b 718 696 639 892 718 822 l 718 689 b 492 493 718 563 636 493 z m 385 -347 l 419 -347 b 513 -254 483 -347 513 -317 l 513 -168 b 443 -92 513 -121 482 -92 b 374 -160 403 -92 374 -121 b 443 -228 374 -200 404 -228 l 457 -228 l 457 -253 b 414 -294 457 -283 444 -294 l 385 -294 z "},"Ȑ":{"ha":876,"x_min":0,"x_max":0,"o":"m 328 1058 l 410 1058 l 311 1222 l 200 1222 z m 519 1058 l 594 1058 l 514 1222 l 415 1222 z m 119 0 l 208 0 l 208 413 l 578 413 b 675 321 643 413 675 381 l 675 0 l 764 0 l 764 331 b 649 454 764 415 713 451 l 649 471 b 807 700 733 494 807 568 l 807 714 b 500 972 807 878 679 972 l 119 972 z m 208 493 l 208 892 l 492 892 b 718 696 639 892 718 822 l 718 689 b 492 493 718 563 636 493 z "},"Ṛ":{"ha":876,"x_min":0,"x_max":0,"o":"m 119 0 l 208 0 l 208 413 l 578 413 b 675 321 643 413 675 381 l 675 0 l 764 0 l 764 331 b 649 454 764 415 713 451 l 649 471 b 807 700 733 494 807 568 l 807 714 b 500 972 807 878 679 972 l 119 972 z m 208 493 l 208 892 l 492 892 b 718 696 639 892 718 822 l 718 689 b 492 493 718 563 636 493 z m 443 -261 b 515 -189 485 -261 515 -231 b 443 -117 515 -147 485 -117 b 371 -189 401 -117 371 -147 b 443 -261 371 -231 401 -261 z "},"Ȓ":{"ha":876,"x_min":0,"x_max":0,"o":"m 238 1069 l 315 1069 l 315 1078 b 431 1189 315 1143 354 1189 b 544 1078 506 1189 544 1143 l 544 1069 l 622 1069 l 622 1078 b 431 1256 622 1192 543 1256 b 238 1078 317 1256 238 1192 z m 119 0 l 208 0 l 208 413 l 578 413 b 675 321 643 413 675 381 l 675 0 l 764 0 l 764 331 b 649 454 764 415 713 451 l 649 471 b 807 700 733 494 807 568 l 807 714 b 500 972 807 878 679 972 l 119 972 z m 208 493 l 208 892 l 492 892 b 718 696 639 892 718 822 l 718 689 b 492 493 718 563 636 493 z "},"Ṟ":{"ha":876,"x_min":0,"x_max":0,"o":"m 119 0 l 208 0 l 208 413 l 578 413 b 675 321 643 413 675 381 l 675 0 l 764 0 l 764 331 b 649 454 764 415 713 451 l 649 471 b 807 700 733 494 807 568 l 807 714 b 500 972 807 878 679 972 l 119 972 z m 208 493 l 208 892 l 492 892 b 718 696 639 892 718 822 l 718 689 b 492 493 718 563 636 493 z m 235 -200 l 651 -200 l 651 -128 l 235 -128 z "},"Ṥ":{"ha":856,"x_min":0,"x_max":0,"o":"m 472 1053 l 558 1053 l 672 1217 l 564 1217 z m 315 1058 b 388 1131 357 1058 388 1089 b 315 1203 388 1172 357 1203 b 243 1131 274 1203 243 1172 b 315 1058 243 1089 274 1058 z m 438 -19 b 778 258 643 -19 778 89 b 496 525 778 428 647 488 l 407 547 b 188 733 272 581 188 617 b 421 914 188 850 285 914 b 672 699 563 914 672 850 l 672 633 l 761 633 l 761 699 b 421 992 761 892 611 992 b 99 733 231 992 99 892 b 375 469 99 575 215 510 l 464 447 b 689 258 597 414 689 375 b 438 58 689 142 599 58 b 164 322 278 58 164 142 l 164 349 l 75 349 l 75 322 b 438 -19 75 89 231 -19 z "},"Ṧ":{"ha":856,"x_min":0,"x_max":0,"o":"m 426 1250 b 499 1322 468 1250 499 1281 b 426 1394 499 1364 468 1394 b 354 1322 385 1394 354 1364 b 426 1250 354 1281 385 1250 z m 378 1053 l 475 1053 l 658 1217 l 546 1217 l 435 1111 l 418 1111 l 307 1217 l 194 1217 z m 438 -19 b 778 258 643 -19 778 89 b 496 525 778 428 647 488 l 407 547 b 188 733 272 581 188 617 b 421 914 188 850 285 914 b 672 699 563 914 672 850 l 672 633 l 761 633 l 761 699 b 421 992 761 892 611 992 b 99 733 231 992 99 892 b 375 469 99 575 215 510 l 464 447 b 689 258 597 414 689 375 b 438 58 689 142 599 58 b 164 322 278 58 164 142 l 164 349 l 75 349 l 75 322 b 438 -19 75 89 231 -19 z "},"Ə":{"ha":900,"x_min":0,"x_max":0,"o":"m 450 -19 b 811 349 681 -19 811 110 l 811 624 b 450 992 811 863 681 992 b 89 624 219 992 89 863 l 89 617 l 178 617 l 178 626 b 450 911 178 807 261 911 b 722 626 639 911 722 807 l 722 489 l 89 489 l 89 349 b 450 -19 89 110 219 -19 z m 450 61 b 178 346 261 61 178 165 l 178 408 l 722 408 l 722 346 b 450 61 722 165 639 61 z "},"Ș":{"ha":856,"x_min":0,"x_max":0,"o":"m 438 -19 b 778 258 643 -19 778 89 b 496 525 778 428 647 488 l 407 547 b 188 733 272 581 188 617 b 421 914 188 850 285 914 b 672 699 563 914 672 850 l 672 633 l 761 633 l 761 699 b 421 992 761 892 611 992 b 99 733 231 992 99 892 b 375 469 99 575 215 510 l 464 447 b 689 258 597 414 689 375 b 438 58 689 142 599 58 b 164 322 278 58 164 142 l 164 349 l 75 349 l 75 322 b 438 -19 75 89 231 -19 z m 386 -347 l 421 -347 b 514 -254 485 -347 514 -317 l 514 -168 b 444 -92 514 -121 483 -92 b 375 -160 404 -92 375 -121 b 444 -228 375 -200 406 -228 l 458 -228 l 458 -253 b 415 -294 458 -283 446 -294 l 386 -294 z "},"Ṡ":{"ha":856,"x_min":0,"x_max":0,"o":"m 426 1058 b 499 1131 468 1058 499 1089 b 426 1203 499 1172 468 1203 b 354 1131 385 1203 354 1172 b 426 1058 354 1089 385 1058 z m 438 -19 b 778 258 643 -19 778 89 b 496 525 778 428 647 488 l 407 547 b 188 733 272 581 188 617 b 421 914 188 850 285 914 b 672 699 563 914 672 850 l 672 633 l 761 633 l 761 699 b 421 992 761 892 611 992 b 99 733 231 992 99 892 b 375 469 99 575 215 510 l 464 447 b 689 258 597 414 689 375 b 438 58 689 142 599 58 b 164 322 278 58 164 142 l 164 349 l 75 349 l 75 322 b 438 -19 75 89 231 -19 z "},"Ṣ":{"ha":856,"x_min":0,"x_max":0,"o":"m 438 -19 b 778 258 643 -19 778 89 b 496 525 778 428 647 488 l 407 547 b 188 733 272 581 188 617 b 421 914 188 850 285 914 b 672 699 563 914 672 850 l 672 633 l 761 633 l 761 699 b 421 992 761 892 611 992 b 99 733 231 992 99 892 b 375 469 99 575 215 510 l 464 447 b 689 258 597 414 689 375 b 438 58 689 142 599 58 b 164 322 278 58 164 142 l 164 349 l 75 349 l 75 322 b 438 -19 75 89 231 -19 z m 444 -261 b 517 -189 486 -261 517 -231 b 444 -117 517 -147 486 -117 b 372 -189 403 -117 372 -147 b 444 -261 372 -231 403 -261 z "},"Ṩ":{"ha":856,"x_min":0,"x_max":0,"o":"m 426 1058 b 499 1131 468 1058 499 1089 b 426 1203 499 1172 468 1203 b 354 1131 385 1203 354 1172 b 426 1058 354 1089 385 1058 z m 438 -19 b 778 258 643 -19 778 89 b 496 525 778 428 647 488 l 407 547 b 188 733 272 581 188 617 b 421 914 188 850 285 914 b 672 699 563 914 672 850 l 672 633 l 761 633 l 761 699 b 421 992 761 892 611 992 b 99 733 231 992 99 892 b 375 469 99 575 215 510 l 464 447 b 689 258 597 414 689 375 b 438 58 689 142 599 58 b 164 322 278 58 164 142 l 164 349 l 75 349 l 75 322 b 438 -19 75 89 231 -19 z m 444 -261 b 517 -189 486 -261 517 -231 b 444 -117 517 -147 486 -117 b 372 -189 403 -117 372 -147 b 444 -261 372 -231 403 -261 z "},"Ţ":{"ha":817,"x_min":0,"x_max":0,"o":"m 364 0 l 378 0 l 365 -118 l 415 -118 b 485 -167 457 -118 485 -135 b 415 -217 485 -201 454 -217 b 311 -178 374 -217 340 -200 l 275 -233 b 415 -281 311 -261 360 -281 b 554 -172 492 -281 554 -244 b 436 -67 554 -104 508 -67 l 443 0 l 453 0 l 453 892 l 778 892 l 778 972 l 39 972 l 39 892 l 364 892 z "},"Ț":{"ha":817,"x_min":0,"x_max":0,"o":"m 364 0 l 453 0 l 453 892 l 778 892 l 778 972 l 39 972 l 39 892 l 364 892 z m 351 -347 l 386 -347 b 479 -254 450 -347 479 -317 l 479 -168 b 410 -92 479 -121 449 -92 b 340 -160 369 -92 340 -121 b 410 -228 340 -200 371 -228 l 424 -228 l 424 -253 b 381 -294 424 -283 411 -294 l 351 -294 z "},"Ṭ":{"ha":817,"x_min":0,"x_max":0,"o":"m 364 0 l 453 0 l 453 892 l 778 892 l 778 972 l 39 972 l 39 892 l 364 892 z m 410 -261 b 482 -189 451 -261 482 -231 b 410 -117 482 -147 451 -117 b 338 -189 368 -117 338 -147 b 410 -261 338 -231 368 -261 z "},"Ṯ":{"ha":817,"x_min":0,"x_max":0,"o":"m 364 0 l 453 0 l 453 892 l 778 892 l 778 972 l 39 972 l 39 892 l 364 892 z m 201 -200 l 618 -200 l 618 -128 l 201 -128 z "},"Ǔ":{"ha":922,"x_min":0,"x_max":0,"o":"m 413 1053 l 510 1053 l 693 1217 l 581 1217 l 469 1111 l 453 1111 l 342 1217 l 229 1217 z m 461 -19 b 811 318 669 -19 811 90 l 811 972 l 722 972 l 722 318 b 461 61 722 144 626 61 b 200 318 296 61 200 144 l 200 972 l 111 972 l 111 318 b 461 -19 111 90 253 -19 z "},"Ȕ":{"ha":922,"x_min":0,"x_max":0,"o":"m 358 1058 l 440 1058 l 342 1222 l 231 1222 z m 550 1058 l 625 1058 l 544 1222 l 446 1222 z m 461 -19 b 811 318 669 -19 811 90 l 811 972 l 722 972 l 722 318 b 461 61 722 144 626 61 b 200 318 296 61 200 144 l 200 972 l 111 972 l 111 318 b 461 -19 111 90 253 -19 z "},"Ǘ":{"ha":922,"x_min":0,"x_max":0,"o":"m 396 1258 l 482 1258 l 596 1422 l 488 1422 z m 592 1058 b 663 1129 633 1058 663 1088 b 592 1200 663 1171 633 1200 b 521 1129 550 1200 521 1171 b 592 1058 521 1088 550 1058 z m 331 1058 b 401 1129 372 1058 401 1088 b 331 1200 401 1171 372 1200 b 260 1129 289 1200 260 1171 b 331 1058 260 1088 289 1058 z m 461 -19 b 811 318 669 -19 811 90 l 811 972 l 722 972 l 722 318 b 461 61 722 144 626 61 b 200 318 296 61 200 144 l 200 972 l 111 972 l 111 318 b 461 -19 111 90 253 -19 z "},"Ǚ":{"ha":922,"x_min":0,"x_max":0,"o":"m 413 1258 l 510 1258 l 693 1422 l 581 1422 l 469 1317 l 453 1317 l 342 1422 l 229 1422 z m 592 1058 b 663 1129 633 1058 663 1088 b 592 1200 663 1171 633 1200 b 521 1129 550 1200 521 1171 b 592 1058 521 1088 550 1058 z m 331 1058 b 401 1129 372 1058 401 1088 b 331 1200 401 1171 372 1200 b 260 1129 289 1200 260 1171 b 331 1058 260 1088 289 1058 z m 461 -19 b 811 318 669 -19 811 90 l 811 972 l 722 972 l 722 318 b 461 61 722 144 626 61 b 200 318 296 61 200 144 l 200 972 l 111 972 l 111 318 b 461 -19 111 90 253 -19 z "},"Ǜ":{"ha":922,"x_min":0,"x_max":0,"o":"m 440 1264 l 526 1264 l 435 1428 l 326 1428 z m 592 1058 b 663 1129 633 1058 663 1088 b 592 1200 663 1171 633 1200 b 521 1129 550 1200 521 1171 b 592 1058 521 1088 550 1058 z m 331 1058 b 401 1129 372 1058 401 1088 b 331 1200 401 1171 372 1200 b 260 1129 289 1200 260 1171 b 331 1058 260 1088 289 1058 z m 461 -19 b 811 318 669 -19 811 90 l 811 972 l 722 972 l 722 318 b 461 61 722 144 626 61 b 200 318 296 61 200 144 l 200 972 l 111 972 l 111 318 b 461 -19 111 90 253 -19 z "},"Ǖ":{"ha":922,"x_min":0,"x_max":0,"o":"m 253 1281 l 669 1281 l 669 1353 l 253 1353 z m 592 1058 b 663 1129 633 1058 663 1088 b 592 1200 663 1171 633 1200 b 521 1129 550 1200 521 1171 b 592 1058 521 1088 550 1058 z m 331 1058 b 401 1129 372 1058 401 1088 b 331 1200 401 1171 372 1200 b 260 1129 289 1200 260 1171 b 331 1058 260 1088 289 1058 z m 461 -19 b 811 318 669 -19 811 90 l 811 972 l 722 972 l 722 318 b 461 61 722 144 626 61 b 200 318 296 61 200 144 l 200 972 l 111 972 l 111 318 b 461 -19 111 90 253 -19 z "},"Ụ":{"ha":922,"x_min":0,"x_max":0,"o":"m 461 -19 b 811 318 669 -19 811 90 l 811 972 l 722 972 l 722 318 b 461 61 722 144 626 61 b 200 318 296 61 200 144 l 200 972 l 111 972 l 111 318 b 461 -19 111 90 253 -19 z m 464 -261 b 536 -189 506 -261 536 -231 b 464 -117 536 -147 506 -117 b 392 -189 422 -117 392 -147 b 464 -261 392 -231 422 -261 z "},"Ủ":{"ha":922,"x_min":0,"x_max":0,"o":"m 435 1025 l 500 1025 l 494 1075 b 613 1183 567 1075 613 1114 b 474 1294 613 1257 550 1294 b 333 1247 418 1294 369 1275 l 369 1192 b 474 1231 399 1214 432 1231 b 543 1178 513 1231 543 1214 b 474 1126 543 1144 515 1126 l 424 1126 z m 461 -19 b 811 318 669 -19 811 90 l 811 972 l 722 972 l 722 318 b 461 61 722 144 626 61 b 200 318 296 61 200 144 l 200 972 l 111 972 l 111 318 b 461 -19 111 90 253 -19 z "},"Ư":{"ha":969,"x_min":0,"x_max":0,"o":"m 461 -19 b 811 318 669 -19 811 90 l 811 906 l 840 906 b 964 1028 911 906 964 935 l 964 1119 l 886 1119 l 886 1033 b 828 972 886 988 867 972 l 722 972 l 722 318 b 461 61 722 144 626 61 b 200 318 296 61 200 144 l 200 972 l 111 972 l 111 318 b 461 -19 111 90 253 -19 z "},"Ứ":{"ha":969,"x_min":0,"x_max":0,"o":"m 396 1053 l 482 1053 l 596 1217 l 488 1217 z m 461 -19 b 811 318 669 -19 811 90 l 811 906 l 840 906 b 964 1028 911 906 964 935 l 964 1119 l 886 1119 l 886 1033 b 828 972 886 988 867 972 l 722 972 l 722 318 b 461 61 722 144 626 61 b 200 318 296 61 200 144 l 200 972 l 111 972 l 111 318 b 461 -19 111 90 253 -19 z "},"Ự":{"ha":969,"x_min":0,"x_max":0,"o":"m 461 -19 b 811 318 669 -19 811 90 l 811 906 l 840 906 b 964 1028 911 906 964 935 l 964 1119 l 886 1119 l 886 1033 b 828 972 886 988 867 972 l 722 972 l 722 318 b 461 61 722 144 626 61 b 200 318 296 61 200 144 l 200 972 l 111 972 l 111 318 b 461 -19 111 90 253 -19 z m 464 -261 b 536 -189 506 -261 536 -231 b 464 -117 536 -147 506 -117 b 392 -189 422 -117 392 -147 b 464 -261 392 -231 422 -261 z "},"Ừ":{"ha":969,"x_min":0,"x_max":0,"o":"m 440 1058 l 526 1058 l 435 1222 l 326 1222 z m 461 -19 b 811 318 669 -19 811 90 l 811 906 l 840 906 b 964 1028 911 906 964 935 l 964 1119 l 886 1119 l 886 1033 b 828 972 886 988 867 972 l 722 972 l 722 318 b 461 61 722 144 626 61 b 200 318 296 61 200 144 l 200 972 l 111 972 l 111 318 b 461 -19 111 90 253 -19 z "},"Ử":{"ha":969,"x_min":0,"x_max":0,"o":"m 435 1025 l 500 1025 l 494 1075 b 613 1183 567 1075 613 1114 b 474 1294 613 1257 550 1294 b 333 1247 418 1294 369 1275 l 369 1192 b 474 1231 399 1214 432 1231 b 543 1178 513 1231 543 1214 b 474 1126 543 1144 515 1126 l 424 1126 z m 461 -19 b 811 318 669 -19 811 90 l 811 906 l 840 906 b 964 1028 911 906 964 935 l 964 1119 l 886 1119 l 886 1033 b 828 972 886 988 867 972 l 722 972 l 722 318 b 461 61 722 144 626 61 b 200 318 296 61 200 144 l 200 972 l 111 972 l 111 318 b 461 -19 111 90 253 -19 z "},"Ữ":{"ha":969,"x_min":0,"x_max":0,"o":"m 294 1060 l 335 1125 b 378 1156 346 1143 358 1156 b 436 1115 397 1156 410 1144 b 546 1053 474 1075 503 1053 b 639 1111 593 1053 621 1081 l 683 1185 l 628 1218 l 586 1151 b 544 1122 575 1133 564 1122 b 486 1163 525 1122 513 1133 b 376 1225 449 1203 419 1225 b 283 1167 329 1225 301 1197 l 239 1093 z m 461 -19 b 811 318 669 -19 811 90 l 811 906 l 840 906 b 964 1028 911 906 964 935 l 964 1119 l 886 1119 l 886 1033 b 828 972 886 988 867 972 l 722 972 l 722 318 b 461 61 722 144 626 61 b 200 318 296 61 200 144 l 200 972 l 111 972 l 111 318 b 461 -19 111 90 253 -19 z "},"Ȗ":{"ha":922,"x_min":0,"x_max":0,"o":"m 268 1069 l 346 1069 l 346 1078 b 461 1189 346 1143 385 1189 b 575 1078 536 1189 575 1143 l 575 1069 l 653 1069 l 653 1078 b 461 1256 653 1192 574 1256 b 268 1078 347 1256 268 1192 z m 461 -19 b 811 318 669 -19 811 90 l 811 972 l 722 972 l 722 318 b 461 61 722 144 626 61 b 200 318 296 61 200 144 l 200 972 l 111 972 l 111 318 b 461 -19 111 90 253 -19 z "},"Ṻ":{"ha":922,"x_min":0,"x_max":0,"o":"m 592 1244 b 663 1315 633 1244 663 1274 b 592 1386 663 1357 633 1386 b 521 1315 550 1386 521 1357 b 592 1244 521 1274 550 1244 z m 331 1244 b 401 1315 372 1244 401 1274 b 331 1386 401 1357 372 1386 b 260 1315 289 1386 260 1357 b 331 1244 260 1274 289 1244 z m 253 1075 l 669 1075 l 669 1147 l 253 1147 z m 461 -19 b 811 318 669 -19 811 90 l 811 972 l 722 972 l 722 318 b 461 61 722 144 626 61 b 200 318 296 61 200 144 l 200 972 l 111 972 l 111 318 b 461 -19 111 90 253 -19 z "},"Ṹ":{"ha":922,"x_min":0,"x_max":0,"o":"m 396 1269 l 482 1269 l 596 1433 l 488 1433 z m 294 1060 l 335 1125 b 378 1156 346 1143 358 1156 b 436 1115 397 1156 410 1144 b 546 1053 474 1075 503 1053 b 639 1111 593 1053 621 1081 l 683 1185 l 628 1218 l 586 1151 b 544 1122 575 1133 564 1122 b 486 1163 525 1122 513 1133 b 376 1225 449 1203 419 1225 b 283 1167 329 1225 301 1197 l 239 1093 z m 461 -19 b 811 318 669 -19 811 90 l 811 972 l 722 972 l 722 318 b 461 61 722 144 626 61 b 200 318 296 61 200 144 l 200 972 l 111 972 l 111 318 b 461 -19 111 90 253 -19 z "},"Ẃ":{"ha":1203,"x_min":0,"x_max":0,"o":"m 536 1053 l 622 1053 l 736 1217 l 628 1217 z m 226 0 l 392 0 l 593 919 l 610 919 l 811 0 l 976 0 l 1147 972 l 1057 972 l 901 53 l 885 53 l 683 972 l 519 972 l 318 53 l 301 53 l 146 972 l 56 972 z "},"Ẅ":{"ha":1203,"x_min":0,"x_max":0,"o":"m 732 1058 b 803 1129 774 1058 803 1088 b 732 1200 803 1171 774 1200 b 661 1129 690 1200 661 1171 b 732 1058 661 1088 690 1058 z m 471 1058 b 542 1129 513 1058 542 1088 b 471 1200 542 1171 513 1200 b 400 1129 429 1200 400 1171 b 471 1058 400 1088 429 1058 z m 226 0 l 392 0 l 593 919 l 610 919 l 811 0 l 976 0 l 1147 972 l 1057 972 l 901 53 l 885 53 l 683 972 l 519 972 l 318 53 l 301 53 l 146 972 l 56 972 z "},"Ẁ":{"ha":1203,"x_min":0,"x_max":0,"o":"m 581 1058 l 667 1058 l 575 1222 l 467 1222 z m 226 0 l 392 0 l 593 919 l 610 919 l 811 0 l 976 0 l 1147 972 l 1057 972 l 901 53 l 885 53 l 683 972 l 519 972 l 318 53 l 301 53 l 146 972 l 56 972 z "},"Ẏ":{"ha":839,"x_min":0,"x_max":0,"o":"m 419 1058 b 492 1131 461 1058 492 1089 b 419 1203 492 1172 461 1203 b 347 1131 378 1203 347 1172 b 419 1058 347 1089 378 1058 z m 375 0 l 464 0 l 464 385 l 817 972 l 711 972 l 428 486 l 411 486 l 128 972 l 22 972 l 375 385 z "},"Ỵ":{"ha":839,"x_min":0,"x_max":0,"o":"m 375 0 l 464 0 l 464 385 l 817 972 l 711 972 l 428 486 l 411 486 l 128 972 l 22 972 l 375 385 z m 419 -261 b 492 -189 461 -261 492 -231 b 419 -117 492 -147 461 -117 b 347 -189 378 -117 347 -147 b 419 -261 347 -231 378 -261 z "},"Ỳ":{"ha":839,"x_min":0,"x_max":0,"o":"m 399 1058 l 485 1058 l 393 1222 l 285 1222 z m 375 0 l 464 0 l 464 385 l 817 972 l 711 972 l 428 486 l 411 486 l 128 972 l 22 972 l 375 385 z "},"Ỷ":{"ha":839,"x_min":0,"x_max":0,"o":"m 393 1025 l 458 1025 l 453 1075 b 571 1183 525 1075 571 1114 b 432 1294 571 1257 508 1294 b 292 1247 376 1294 328 1275 l 328 1192 b 432 1231 357 1214 390 1231 b 501 1178 471 1231 501 1214 b 432 1126 501 1144 474 1126 l 382 1126 z m 375 0 l 464 0 l 464 385 l 817 972 l 711 972 l 428 486 l 411 486 l 128 972 l 22 972 l 375 385 z "},"Ȳ":{"ha":839,"x_min":0,"x_max":0,"o":"m 211 1075 l 628 1075 l 628 1147 l 211 1147 z m 375 0 l 464 0 l 464 385 l 817 972 l 711 972 l 428 486 l 411 486 l 128 972 l 22 972 l 375 385 z "},"Ỹ":{"ha":839,"x_min":0,"x_max":0,"o":"m 253 1060 l 293 1125 b 336 1156 304 1143 317 1156 b 394 1115 356 1156 368 1144 b 504 1053 432 1075 461 1053 b 597 1111 551 1053 579 1081 l 642 1185 l 586 1218 l 544 1151 b 503 1122 533 1133 522 1122 b 444 1163 483 1122 471 1133 b 335 1225 407 1203 378 1225 b 242 1167 288 1225 260 1197 l 197 1093 z m 375 0 l 464 0 l 464 385 l 817 972 l 711 972 l 428 486 l 411 486 l 128 972 l 22 972 l 375 385 z "},"Ẓ":{"ha":803,"x_min":0,"x_max":0,"o":"m 72 0 l 736 0 l 736 81 l 156 81 l 156 94 l 722 850 l 722 972 l 89 972 l 89 892 l 639 892 l 639 878 l 72 122 z m 394 -261 b 467 -189 436 -261 467 -231 b 394 -117 467 -147 436 -117 b 322 -189 353 -117 322 -147 b 394 -261 322 -231 353 -261 z "},"ắ":{"ha":797,"x_min":0,"x_max":0,"o":"m 332 997 l 418 997 l 546 1181 l 440 1181 z m 392 769 b 583 947 504 769 583 833 l 583 956 l 506 956 l 506 947 b 392 836 506 882 467 836 b 276 947 315 836 276 882 l 276 956 l 199 956 l 199 947 b 392 769 199 833 278 769 z m 329 -19 b 565 106 468 -19 529 43 l 579 106 l 579 96 b 672 0 579 36 615 0 l 761 0 l 761 72 l 696 72 b 657 114 671 72 657 86 l 657 442 b 389 694 657 600 558 694 b 97 482 221 694 129 600 l 178 458 b 389 619 201 556 269 619 b 574 446 510 619 574 554 l 574 392 l 326 392 b 76 190 186 392 76 325 b 329 -19 76 56 186 -19 z m 335 56 b 160 192 232 56 160 104 b 328 319 160 278 232 319 l 574 319 l 574 303 b 335 56 574 146 478 56 z "},"ặ":{"ha":797,"x_min":0,"x_max":0,"o":"m 392 769 b 583 947 504 769 583 833 l 583 956 l 506 956 l 506 947 b 392 836 506 882 467 836 b 276 947 315 836 276 882 l 276 956 l 199 956 l 199 947 b 392 769 199 833 278 769 z m 329 -19 b 565 106 468 -19 529 43 l 579 106 l 579 96 b 672 0 579 36 615 0 l 761 0 l 761 72 l 696 72 b 657 114 671 72 657 86 l 657 442 b 389 694 657 600 558 694 b 97 482 221 694 129 600 l 178 458 b 389 619 201 556 269 619 b 574 446 510 619 574 554 l 574 392 l 326 392 b 76 190 186 392 76 325 b 329 -19 76 56 186 -19 z m 335 56 b 160 192 232 56 160 104 b 328 319 160 278 232 319 l 574 319 l 574 303 b 335 56 574 146 478 56 z m 399 -261 b 471 -189 440 -261 471 -231 b 399 -117 471 -147 440 -117 b 326 -189 357 -117 326 -147 b 399 -261 326 -231 357 -261 z "},"ằ":{"ha":797,"x_min":0,"x_max":0,"o":"m 364 997 l 450 997 l 343 1181 l 236 1181 z m 392 769 b 583 947 504 769 583 833 l 583 956 l 506 956 l 506 947 b 392 836 506 882 467 836 b 276 947 315 836 276 882 l 276 956 l 199 956 l 199 947 b 392 769 199 833 278 769 z m 329 -19 b 565 106 468 -19 529 43 l 579 106 l 579 96 b 672 0 579 36 615 0 l 761 0 l 761 72 l 696 72 b 657 114 671 72 657 86 l 657 442 b 389 694 657 600 558 694 b 97 482 221 694 129 600 l 178 458 b 389 619 201 556 269 619 b 574 446 510 619 574 554 l 574 392 l 326 392 b 76 190 186 392 76 325 b 329 -19 76 56 186 -19 z m 335 56 b 160 192 232 56 160 104 b 328 319 160 278 232 319 l 574 319 l 574 303 b 335 56 574 146 478 56 z "},"ẳ":{"ha":797,"x_min":0,"x_max":0,"o":"m 360 978 l 425 978 l 419 1028 b 538 1136 492 1028 538 1067 b 399 1247 538 1210 475 1247 b 258 1200 343 1247 294 1228 l 294 1144 b 399 1183 324 1167 357 1183 b 468 1131 438 1183 468 1167 b 399 1079 468 1097 440 1079 l 349 1079 z m 392 769 b 583 947 504 769 583 833 l 583 956 l 506 956 l 506 947 b 392 836 506 882 467 836 b 276 947 315 836 276 882 l 276 956 l 199 956 l 199 947 b 392 769 199 833 278 769 z m 329 -19 b 565 106 468 -19 529 43 l 579 106 l 579 96 b 672 0 579 36 615 0 l 761 0 l 761 72 l 696 72 b 657 114 671 72 657 86 l 657 442 b 389 694 657 600 558 694 b 97 482 221 694 129 600 l 178 458 b 389 619 201 556 269 619 b 574 446 510 619 574 554 l 574 392 l 326 392 b 76 190 186 392 76 325 b 329 -19 76 56 186 -19 z m 335 56 b 160 192 232 56 160 104 b 328 319 160 278 232 319 l 574 319 l 574 303 b 335 56 574 146 478 56 z "},"ẵ":{"ha":797,"x_min":0,"x_max":0,"o":"m 239 1011 l 278 1082 b 315 1108 288 1099 297 1108 b 375 1058 335 1108 350 1088 b 472 1004 408 1018 433 1004 b 561 1061 514 1004 543 1028 l 603 1139 l 544 1171 l 506 1100 b 468 1074 496 1083 486 1074 b 408 1124 449 1074 433 1094 b 311 1178 375 1164 350 1178 b 222 1121 269 1178 240 1154 l 181 1043 z m 392 769 b 583 947 504 769 583 833 l 583 956 l 506 956 l 506 947 b 392 836 506 882 467 836 b 276 947 315 836 276 882 l 276 956 l 199 956 l 199 947 b 392 769 199 833 278 769 z m 329 -19 b 565 106 468 -19 529 43 l 579 106 l 579 96 b 672 0 579 36 615 0 l 761 0 l 761 72 l 696 72 b 657 114 671 72 657 86 l 657 442 b 389 694 657 600 558 694 b 97 482 221 694 129 600 l 178 458 b 389 619 201 556 269 619 b 574 446 510 619 574 554 l 574 392 l 326 392 b 76 190 186 392 76 325 b 329 -19 76 56 186 -19 z m 335 56 b 160 192 232 56 160 104 b 328 319 160 278 232 319 l 574 319 l 574 303 b 335 56 574 146 478 56 z "},"ǎ":{"ha":797,"x_min":0,"x_max":0,"o":"m 339 772 l 444 772 l 619 956 l 517 956 l 400 833 l 383 833 l 267 956 l 164 956 z m 329 -19 b 565 106 468 -19 529 43 l 579 106 l 579 96 b 672 0 579 36 615 0 l 761 0 l 761 72 l 696 72 b 657 114 671 72 657 86 l 657 442 b 389 694 657 600 558 694 b 97 482 221 694 129 600 l 178 458 b 389 619 201 556 269 619 b 574 446 510 619 574 554 l 574 392 l 326 392 b 76 190 186 392 76 325 b 329 -19 76 56 186 -19 z m 335 56 b 160 192 232 56 160 104 b 328 319 160 278 232 319 l 574 319 l 574 303 b 335 56 574 146 478 56 z "},"ấ":{"ha":797,"x_min":0,"x_max":0,"o":"m 574 922 l 653 922 l 754 1119 l 657 1119 z m 164 772 l 267 772 l 383 894 l 400 894 l 517 772 l 619 772 l 444 956 l 339 956 z m 329 -19 b 565 106 468 -19 529 43 l 579 106 l 579 96 b 672 0 579 36 615 0 l 761 0 l 761 72 l 696 72 b 657 114 671 72 657 86 l 657 442 b 389 694 657 600 558 694 b 97 482 221 694 129 600 l 178 458 b 389 619 201 556 269 619 b 574 446 510 619 574 554 l 574 392 l 326 392 b 76 190 186 392 76 325 b 329 -19 76 56 186 -19 z m 335 56 b 160 192 232 56 160 104 b 328 319 160 278 232 319 l 574 319 l 574 303 b 335 56 574 146 478 56 z "},"ậ":{"ha":797,"x_min":0,"x_max":0,"o":"m 164 772 l 267 772 l 383 894 l 400 894 l 517 772 l 619 772 l 444 956 l 339 956 z m 329 -19 b 565 106 468 -19 529 43 l 579 106 l 579 96 b 672 0 579 36 615 0 l 761 0 l 761 72 l 696 72 b 657 114 671 72 657 86 l 657 442 b 389 694 657 600 558 694 b 97 482 221 694 129 600 l 178 458 b 389 619 201 556 269 619 b 574 446 510 619 574 554 l 574 392 l 326 392 b 76 190 186 392 76 325 b 329 -19 76 56 186 -19 z m 335 56 b 160 192 232 56 160 104 b 328 319 160 278 232 319 l 574 319 l 574 303 b 335 56 574 146 478 56 z m 399 -261 b 471 -189 440 -261 471 -231 b 399 -117 471 -147 440 -117 b 326 -189 357 -117 326 -147 b 399 -261 326 -231 357 -261 z "},"ầ":{"ha":797,"x_min":0,"x_max":0,"o":"m 610 922 l 689 922 l 597 1119 l 500 1119 z m 164 772 l 267 772 l 383 894 l 400 894 l 517 772 l 619 772 l 444 956 l 339 956 z m 329 -19 b 565 106 468 -19 529 43 l 579 106 l 579 96 b 672 0 579 36 615 0 l 761 0 l 761 72 l 696 72 b 657 114 671 72 657 86 l 657 442 b 389 694 657 600 558 694 b 97 482 221 694 129 600 l 178 458 b 389 619 201 556 269 619 b 574 446 510 619 574 554 l 574 392 l 326 392 b 76 190 186 392 76 325 b 329 -19 76 56 186 -19 z m 335 56 b 160 192 232 56 160 104 b 328 319 160 278 232 319 l 574 319 l 574 303 b 335 56 574 146 478 56 z "},"ẩ":{"ha":797,"x_min":0,"x_max":0,"o":"m 567 917 l 632 917 l 626 967 b 744 1075 699 967 744 1006 b 606 1186 744 1149 682 1186 b 465 1139 550 1186 501 1167 l 501 1083 b 606 1122 531 1106 564 1122 b 675 1069 644 1122 675 1106 b 606 1018 675 1036 647 1018 l 556 1018 z m 164 772 l 267 772 l 383 894 l 400 894 l 517 772 l 619 772 l 444 956 l 339 956 z m 329 -19 b 565 106 468 -19 529 43 l 579 106 l 579 96 b 672 0 579 36 615 0 l 761 0 l 761 72 l 696 72 b 657 114 671 72 657 86 l 657 442 b 389 694 657 600 558 694 b 97 482 221 694 129 600 l 178 458 b 389 619 201 556 269 619 b 574 446 510 619 574 554 l 574 392 l 326 392 b 76 190 186 392 76 325 b 329 -19 76 56 186 -19 z m 335 56 b 160 192 232 56 160 104 b 328 319 160 278 232 319 l 574 319 l 574 303 b 335 56 574 146 478 56 z "},"ẫ":{"ha":797,"x_min":0,"x_max":0,"o":"m 239 1019 l 278 1090 b 315 1117 288 1107 297 1117 b 375 1067 335 1117 350 1096 b 472 1013 408 1026 433 1013 b 561 1069 514 1013 543 1036 l 603 1147 l 544 1179 l 506 1108 b 468 1082 496 1092 486 1082 b 408 1132 449 1082 433 1103 b 311 1186 375 1172 350 1186 b 222 1129 269 1186 240 1163 l 181 1051 z m 164 772 l 267 772 l 383 894 l 400 894 l 517 772 l 619 772 l 444 956 l 339 956 z m 329 -19 b 565 106 468 -19 529 43 l 579 106 l 579 96 b 672 0 579 36 615 0 l 761 0 l 761 72 l 696 72 b 657 114 671 72 657 86 l 657 442 b 389 694 657 600 558 694 b 97 482 221 694 129 600 l 178 458 b 389 619 201 556 269 619 b 574 446 510 619 574 554 l 574 392 l 326 392 b 76 190 186 392 76 325 b 329 -19 76 56 186 -19 z m 335 56 b 160 192 232 56 160 104 b 328 319 160 278 232 319 l 574 319 l 574 303 b 335 56 574 146 478 56 z "},"ȁ":{"ha":797,"x_min":0,"x_max":0,"o":"m 278 772 l 360 772 l 260 956 l 161 956 z m 474 772 l 554 772 l 468 956 l 372 956 z m 329 -19 b 565 106 468 -19 529 43 l 579 106 l 579 96 b 672 0 579 36 615 0 l 761 0 l 761 72 l 696 72 b 657 114 671 72 657 86 l 657 442 b 389 694 657 600 558 694 b 97 482 221 694 129 600 l 178 458 b 389 619 201 556 269 619 b 574 446 510 619 574 554 l 574 392 l 326 392 b 76 190 186 392 76 325 b 329 -19 76 56 186 -19 z m 335 56 b 160 192 232 56 160 104 b 328 319 160 278 232 319 l 574 319 l 574 303 b 335 56 574 146 478 56 z "},"ạ":{"ha":797,"x_min":0,"x_max":0,"o":"m 329 -19 b 565 106 468 -19 529 43 l 579 106 l 579 96 b 672 0 579 36 615 0 l 761 0 l 761 72 l 696 72 b 657 114 671 72 657 86 l 657 442 b 389 694 657 600 558 694 b 97 482 221 694 129 600 l 178 458 b 389 619 201 556 269 619 b 574 446 510 619 574 554 l 574 392 l 326 392 b 76 190 186 392 76 325 b 329 -19 76 56 186 -19 z m 335 56 b 160 192 232 56 160 104 b 328 319 160 278 232 319 l 574 319 l 574 303 b 335 56 574 146 478 56 z m 399 -261 b 471 -189 440 -261 471 -231 b 399 -117 471 -147 440 -117 b 326 -189 357 -117 326 -147 b 399 -261 326 -231 357 -261 z "},"ǽ":{"ha":1318,"x_min":0,"x_max":0,"o":"m 604 772 l 690 772 l 818 956 l 713 956 z m 346 -19 b 626 153 507 -19 590 61 l 642 153 b 931 -19 696 49 797 -19 b 1217 165 1093 -19 1167 68 l 1144 203 b 929 56 1108 124 1050 56 b 675 315 782 56 683 154 l 1231 315 l 1231 365 b 918 694 1231 569 1104 694 b 656 551 806 694 711 639 l 642 551 b 396 694 607 639 521 694 b 96 485 225 694 128 600 l 174 461 b 396 619 200 557 274 619 b 590 446 517 619 590 554 l 590 386 l 336 386 b 76 188 188 386 76 322 b 346 -19 76 53 190 -19 z m 675 386 b 918 618 690 531 785 618 b 1146 386 1051 618 1140 538 z m 349 51 b 158 189 239 51 158 103 b 338 315 158 274 236 315 l 590 315 l 590 301 b 349 51 590 143 492 51 z "},"ả":{"ha":797,"x_min":0,"x_max":0,"o":"m 365 761 l 431 761 l 425 811 b 543 919 497 811 543 850 b 404 1031 543 993 481 1031 b 264 983 349 1031 300 1011 l 300 928 b 404 967 329 950 363 967 b 474 914 443 967 474 950 b 404 863 474 881 446 863 l 354 863 z m 329 -19 b 565 106 468 -19 529 43 l 579 106 l 579 96 b 672 0 579 36 615 0 l 761 0 l 761 72 l 696 72 b 657 114 671 72 657 86 l 657 442 b 389 694 657 600 558 694 b 97 482 221 694 129 600 l 178 458 b 389 619 201 556 269 619 b 574 446 510 619 574 554 l 574 392 l 326 392 b 76 190 186 392 76 325 b 329 -19 76 56 186 -19 z m 335 56 b 160 192 232 56 160 104 b 328 319 160 278 232 319 l 574 319 l 574 303 b 335 56 574 146 478 56 z "},"ȃ":{"ha":797,"x_min":0,"x_max":0,"o":"m 199 772 l 276 772 l 276 781 b 392 892 276 846 315 892 b 506 781 467 892 506 846 l 506 772 l 583 772 l 583 781 b 392 958 583 894 504 958 b 199 781 278 958 199 894 z m 329 -19 b 565 106 468 -19 529 43 l 579 106 l 579 96 b 672 0 579 36 615 0 l 761 0 l 761 72 l 696 72 b 657 114 671 72 657 86 l 657 442 b 389 694 657 600 558 694 b 97 482 221 694 129 600 l 178 458 b 389 619 201 556 269 619 b 574 446 510 619 574 554 l 574 392 l 326 392 b 76 190 186 392 76 325 b 329 -19 76 56 186 -19 z m 335 56 b 160 192 232 56 160 104 b 328 319 160 278 232 319 l 574 319 l 574 303 b 335 56 574 146 478 56 z "},"ʼ":{"ha":325,"x_min":0,"x_max":0,"o":"m 103 692 l 138 692 b 242 797 208 692 242 725 l 242 913 b 163 992 242 957 207 992 b 83 915 118 992 83 960 b 163 839 83 871 118 839 l 181 839 l 181 794 b 136 750 181 764 167 750 l 103 750 z "},"ǻ":{"ha":797,"x_min":0,"x_max":0,"o":"m 392 756 b 526 886 468 756 526 808 b 479 989 526 929 508 965 l 569 1124 l 475 1124 l 413 1015 b 392 1017 406 1017 399 1017 b 258 886 317 1017 258 964 b 392 756 258 808 317 756 z m 392 819 b 325 886 351 819 325 847 b 392 953 325 925 351 953 b 460 886 433 953 460 925 b 392 819 460 847 433 819 z m 329 -19 b 565 106 468 -19 529 43 l 579 106 l 579 96 b 672 0 579 36 615 0 l 761 0 l 761 72 l 696 72 b 657 114 671 72 657 86 l 657 442 b 389 694 657 600 558 694 b 97 482 221 694 129 600 l 178 458 b 389 619 201 556 269 619 b 574 446 510 619 574 554 l 574 392 l 326 392 b 76 190 186 392 76 325 b 329 -19 76 56 186 -19 z m 335 56 b 160 192 232 56 160 104 b 328 319 160 278 232 319 l 574 319 l 574 303 b 335 56 574 146 478 56 z "},"฿":{"ha":944,"x_min":0,"x_max":0,"o":"m 67 0 l 472 0 l 472 -161 l 556 -161 l 556 0 l 572 0 b 864 253 738 0 864 94 l 864 267 b 700 483 864 403 772 465 l 700 500 b 864 718 771 521 864 582 l 864 729 b 576 972 864 874 743 972 l 556 972 l 556 1133 l 472 1133 l 472 972 l 67 972 l 67 892 l 206 892 l 206 81 l 67 81 z m 294 531 l 294 892 l 472 892 l 472 531 z m 569 892 b 775 718 697 892 775 822 l 775 704 b 569 531 775 600 697 531 l 556 531 l 556 892 z m 294 81 l 294 450 l 472 450 l 472 81 z m 564 450 b 775 271 703 450 775 381 l 775 260 b 564 81 775 150 703 81 l 556 81 l 556 450 z "},"₿":{"ha":969,"x_min":0,"x_max":0,"o":"m 119 0 l 419 0 l 419 -161 l 497 -161 l 497 0 l 581 0 l 581 -161 l 658 -161 l 658 4 b 889 253 793 25 889 115 l 889 267 b 725 483 889 403 797 465 l 725 500 b 889 718 796 521 889 582 l 889 729 b 658 968 889 857 794 949 l 658 1133 l 581 1133 l 581 972 l 497 972 l 497 1133 l 419 1133 l 419 972 l 119 972 l 119 892 l 258 892 l 258 81 l 119 81 z m 347 531 l 347 892 l 594 892 b 800 718 722 892 800 822 l 800 704 b 594 531 800 600 722 531 z m 347 81 l 347 450 l 589 450 b 800 271 728 450 800 381 l 800 260 b 589 81 800 150 728 81 z "},"̮":{"ha":0,"x_min":0,"x_max":0,"o":"m 276 -289 b 468 -111 389 -289 468 -225 l 468 -103 l 390 -103 l 390 -111 b 276 -222 390 -176 351 -222 b 161 -111 200 -222 161 -176 l 161 -103 l 83 -103 l 83 -111 b 276 -289 83 -225 163 -289 z "},"̆":{"ha":0,"x_min":0,"x_max":0,"o":"m 276 769 b 468 947 389 769 468 833 l 468 956 l 390 956 l 390 947 b 276 836 390 882 351 836 b 161 947 200 836 161 882 l 161 956 l 83 956 l 83 947 b 276 769 83 833 163 769 z "},"̑":{"ha":0,"x_min":0,"x_max":0,"o":"m 83 772 l 161 772 l 161 781 b 276 892 161 846 200 892 b 390 781 351 892 390 846 l 390 772 l 468 772 l 468 781 b 276 958 468 894 389 958 b 83 781 163 958 83 894 z "},"ƀ":{"ha":897,"x_min":0,"x_max":0,"o":"m 483 -19 b 808 329 664 -19 808 114 l 808 346 b 483 694 808 560 665 694 b 222 557 335 694 258 625 l 206 557 l 206 786 l 457 786 l 457 847 l 206 847 l 206 972 l 122 972 l 122 847 l 11 847 l 11 786 l 122 786 l 122 0 l 203 0 l 203 124 l 219 124 b 483 -19 258 50 335 -19 z m 464 56 b 206 332 311 56 206 160 l 206 343 b 464 619 206 515 311 619 b 722 343 617 619 722 515 l 722 332 b 464 56 722 160 617 56 z "},"∙":{"ha":861,"x_min":0,"x_max":0,"o":"m 431 336 b 583 486 517 336 583 400 b 431 636 583 572 517 636 b 278 486 344 636 278 572 b 431 336 278 400 344 336 z "},"̌":{"ha":0,"x_min":0,"x_max":0,"o":"m 258 772 l 364 772 l 539 956 l 436 956 l 319 833 l 303 833 l 186 956 l 83 956 z "},"ḉ":{"ha":838,"x_min":0,"x_max":0,"o":"m 371 772 l 457 772 l 585 956 l 479 956 z m 436 -281 b 575 -172 513 -281 575 -244 b 457 -67 575 -104 529 -67 l 461 -18 b 754 238 636 -6 731 113 l 672 254 b 431 56 654 143 578 56 b 172 332 283 56 172 163 l 172 343 b 431 619 172 513 283 619 b 667 421 578 619 653 528 l 749 438 b 431 694 729 568 625 694 b 89 344 233 694 89 560 l 89 331 b 396 -18 89 128 217 -3 l 386 -118 l 436 -118 b 506 -167 478 -118 506 -135 b 436 -217 506 -201 475 -217 b 332 -178 394 -217 361 -200 l 296 -233 b 436 -281 332 -261 381 -281 z "},"₵":{"ha":890,"x_min":0,"x_max":0,"o":"m 419 -161 l 503 -161 l 503 -18 b 813 335 703 -3 813 129 l 813 353 l 724 353 l 724 332 b 503 63 724 185 654 78 l 503 910 b 724 640 654 894 724 788 l 724 631 l 813 631 l 813 638 b 503 990 813 843 703 975 l 503 1133 l 419 1133 l 419 990 b 89 596 217 974 89 839 l 89 376 b 419 -18 89 133 217 -1 z m 178 374 l 178 599 b 419 908 178 781 267 892 l 419 64 b 178 374 267 81 178 192 z "},"̧":{"ha":0,"x_min":0,"x_max":0,"o":"m 224 -281 b 363 -172 300 -281 363 -244 b 244 -67 363 -104 317 -67 l 254 31 l 189 31 l 174 -118 l 224 -118 b 293 -167 265 -118 293 -135 b 224 -217 293 -201 263 -217 b 119 -178 182 -217 149 -200 l 83 -233 b 224 -281 119 -261 168 -281 z "},"̂":{"ha":0,"x_min":0,"x_max":0,"o":"m 83 772 l 186 772 l 303 894 l 319 894 l 436 772 l 539 772 l 364 956 l 258 956 z "},"₡":{"ha":890,"x_min":0,"x_max":0,"o":"m 213 -161 l 294 -161 l 322 1 b 401 -15 347 -7 374 -12 l 376 -161 l 458 -161 l 483 -19 b 813 335 696 -11 813 122 l 813 353 l 724 353 l 724 332 b 497 63 724 182 651 75 l 633 861 b 724 640 694 813 724 735 l 724 631 l 813 631 l 813 638 b 649 951 813 785 756 896 l 681 1133 l 599 1133 l 572 979 b 492 990 547 986 521 989 l 517 1133 l 435 1133 l 410 989 b 89 596 213 968 89 835 l 89 376 b 246 36 89 214 147 99 z m 336 85 l 478 911 b 558 899 508 910 535 906 l 415 64 b 336 85 386 68 360 75 z m 178 374 l 178 599 b 396 906 178 771 257 879 l 263 133 b 178 374 208 186 178 268 z "},"̦":{"ha":0,"x_min":0,"x_max":0,"o":"m 94 -347 l 129 -347 b 222 -254 193 -347 222 -317 l 222 -168 b 153 -92 222 -121 192 -92 b 83 -160 113 -92 83 -121 b 153 -228 83 -200 114 -228 l 167 -228 l 167 -253 b 124 -294 167 -283 154 -294 l 94 -294 z "},"̒":{"ha":0,"x_min":0,"x_max":0,"o":"m 211 1038 l 176 1038 b 83 944 113 1038 83 1007 l 83 857 b 153 781 83 810 114 781 b 222 849 193 781 222 810 b 153 917 222 889 192 917 l 139 917 l 139 943 b 182 985 139 974 151 985 l 211 985 z "},"ʻ":{"ha":325,"x_min":0,"x_max":0,"o":"m 222 992 l 188 992 b 83 886 117 992 83 958 l 83 771 b 163 692 83 726 118 692 b 242 768 207 692 242 724 b 163 844 242 813 207 844 l 144 844 l 144 889 b 189 933 144 919 158 933 l 222 933 z "},"⁒":{"ha":967,"x_min":0,"x_max":0,"o":"m 122 -19 l 906 943 l 844 992 l 61 29 z m 229 775 b 340 883 292 775 340 821 b 229 992 340 946 292 992 b 118 883 167 992 118 946 b 229 775 118 821 167 775 z m 768 -19 b 879 89 831 -19 879 26 b 768 197 879 151 831 197 b 657 89 706 197 657 151 b 768 -19 657 26 706 -19 z "},"̏":{"ha":0,"x_min":0,"x_max":0,"o":"m 200 772 l 282 772 l 182 956 l 83 956 z m 396 772 l 476 772 l 390 956 l 294 956 z "},"ḍ":{"ha":897,"x_min":0,"x_max":0,"o":"m 414 -19 b 678 124 563 -19 639 50 l 694 124 l 694 0 l 775 0 l 775 972 l 692 972 l 692 557 l 675 557 b 414 694 639 625 563 694 b 89 346 232 694 89 560 l 89 329 b 414 -19 89 114 233 -19 z m 433 56 b 175 332 281 56 175 160 l 175 343 b 433 619 175 515 281 619 b 692 343 586 619 692 515 l 692 332 b 433 56 692 160 586 56 z m 439 -261 b 511 -189 481 -261 511 -231 b 439 -117 511 -147 481 -117 b 367 -189 397 -117 367 -147 b 439 -261 367 -231 397 -261 z "},"̤":{"ha":0,"x_min":0,"x_max":0,"o":"m 404 -258 b 475 -187 446 -258 475 -229 b 404 -117 475 -146 446 -117 b 333 -187 363 -117 333 -146 b 404 -258 333 -229 363 -258 z m 154 -258 b 225 -187 196 -258 225 -229 b 154 -117 225 -146 196 -117 b 83 -187 113 -117 83 -146 b 154 -258 83 -229 113 -258 z "},"̈":{"ha":0,"x_min":0,"x_max":0,"o":"m 404 792 b 475 863 446 792 475 821 b 404 933 475 904 446 933 b 333 863 363 933 333 904 b 404 792 333 821 363 792 z m 154 792 b 225 863 196 792 225 821 b 154 933 225 904 196 933 b 83 863 113 933 83 904 b 154 792 83 821 113 792 z "},"∕":{"ha":524,"x_min":0,"x_max":0,"o":"m 8 -194 l 93 -194 l 521 1108 l 436 1108 z "},"ḏ":{"ha":897,"x_min":0,"x_max":0,"o":"m 414 -19 b 678 124 563 -19 639 50 l 694 124 l 694 0 l 775 0 l 775 972 l 692 972 l 692 557 l 675 557 b 414 694 639 625 563 694 b 89 346 232 694 89 560 l 89 329 b 414 -19 89 114 233 -19 z m 433 56 b 175 332 281 56 175 160 l 175 343 b 433 619 175 515 281 619 b 692 343 586 619 692 515 l 692 332 b 433 56 692 160 586 56 z m 231 -200 l 647 -200 l 647 -128 l 231 -128 z "},"₫":{"ha":1000,"x_min":0,"x_max":0,"o":"m 414 -19 b 678 124 563 -19 639 50 l 694 124 l 694 0 l 775 0 l 775 786 l 886 786 l 886 847 l 775 847 l 775 972 l 692 972 l 692 847 l 440 847 l 440 786 l 692 786 l 692 557 l 675 557 b 414 694 639 625 563 694 b 89 346 232 694 89 560 l 89 329 b 414 -19 89 114 233 -19 z m 433 56 b 175 332 281 56 175 160 l 175 343 b 433 619 175 515 281 619 b 692 343 586 619 692 515 l 692 332 b 433 56 692 160 586 56 z m 142 -153 l 775 -153 l 775 -92 l 142 -92 z "},"̇":{"ha":0,"x_min":0,"x_max":0,"o":"m 156 792 b 228 864 197 792 228 822 b 156 936 228 906 197 936 b 83 864 114 936 83 906 b 156 792 83 822 114 792 z "},"̣":{"ha":0,"x_min":0,"x_max":0,"o":"m 156 -261 b 228 -189 197 -261 228 -231 b 156 -117 228 -147 197 -117 b 83 -189 114 -117 83 -147 b 156 -261 83 -231 114 -261 z "},"ʺ":{"ha":478,"x_min":0,"x_max":0,"o":"m 285 632 l 351 632 l 408 972 l 318 972 z m 78 632 l 143 632 l 189 972 l 99 972 z "},"↓":{"ha":861,"x_min":0,"x_max":0,"o":"m 403 -11 l 458 -11 l 792 322 l 738 376 l 510 149 l 479 106 l 465 110 l 471 163 l 471 972 l 390 972 l 390 163 l 396 110 l 382 106 l 351 149 l 124 376 l 69 322 z "},"ǆ":{"ha":1622,"x_min":0,"x_max":0,"o":"m 414 -19 b 678 124 563 -19 639 50 l 694 124 l 694 0 l 775 0 l 775 972 l 692 972 l 692 557 l 675 557 b 414 694 639 625 563 694 b 89 346 232 694 89 560 l 89 329 b 414 -19 89 114 233 -19 z m 1196 772 l 1301 772 l 1476 956 l 1374 956 l 1257 833 l 1240 833 l 1124 956 l 1021 956 z m 986 0 l 1536 0 l 1536 75 l 1069 75 l 1069 89 l 1525 561 l 1525 675 l 1000 675 l 1000 600 l 1440 600 l 1440 586 l 986 114 z m 433 56 b 175 332 281 56 175 160 l 175 343 b 433 619 175 515 281 619 b 692 343 586 619 692 515 l 692 332 b 433 56 692 160 586 56 z "},"ḝ":{"ha":831,"x_min":0,"x_max":0,"o":"m 424 769 b 615 947 536 769 615 833 l 615 956 l 538 956 l 538 947 b 424 836 538 882 499 836 b 308 947 347 836 308 882 l 308 956 l 231 956 l 231 947 b 424 769 231 833 310 769 z m 439 -281 b 578 -172 515 -281 578 -244 b 460 -67 578 -104 532 -67 l 464 -18 b 735 171 622 -7 694 85 l 660 204 b 433 56 622 121 560 56 b 172 319 285 56 178 151 l 747 319 l 747 364 b 424 694 747 569 613 694 b 89 346 229 694 89 553 l 89 329 b 399 -18 89 133 210 -3 l 389 -118 l 439 -118 b 508 -167 481 -118 508 -135 b 439 -217 508 -201 478 -217 b 335 -178 397 -217 364 -200 l 299 -233 b 439 -281 335 -261 383 -281 z m 174 392 b 424 619 193 538 289 619 b 663 392 560 619 656 538 z "},"ế":{"ha":831,"x_min":0,"x_max":0,"o":"m 606 922 l 685 922 l 786 1119 l 689 1119 z m 196 772 l 299 772 l 415 894 l 432 894 l 549 772 l 651 772 l 476 956 l 371 956 z m 433 -19 b 735 171 613 -19 692 79 l 660 204 b 433 56 622 121 560 56 b 172 319 285 56 178 151 l 747 319 l 747 364 b 424 694 747 569 613 694 b 89 346 229 694 89 553 l 89 329 b 433 -19 89 122 225 -19 z m 174 392 b 424 619 193 538 289 619 b 663 392 560 619 656 538 z "},"ệ":{"ha":831,"x_min":0,"x_max":0,"o":"m 196 772 l 299 772 l 415 894 l 432 894 l 549 772 l 651 772 l 476 956 l 371 956 z m 433 -19 b 735 171 613 -19 692 79 l 660 204 b 433 56 622 121 560 56 b 172 319 285 56 178 151 l 747 319 l 747 364 b 424 694 747 569 613 694 b 89 346 229 694 89 553 l 89 329 b 433 -19 89 122 225 -19 z m 174 392 b 424 619 193 538 289 619 b 663 392 560 619 656 538 z m 433 -261 b 506 -189 475 -261 506 -231 b 433 -117 506 -147 475 -117 b 361 -189 392 -117 361 -147 b 433 -261 361 -231 392 -261 z "},"ề":{"ha":831,"x_min":0,"x_max":0,"o":"m 642 922 l 721 922 l 629 1119 l 532 1119 z m 196 772 l 299 772 l 415 894 l 432 894 l 549 772 l 651 772 l 476 956 l 371 956 z m 433 -19 b 735 171 613 -19 692 79 l 660 204 b 433 56 622 121 560 56 b 172 319 285 56 178 151 l 747 319 l 747 364 b 424 694 747 569 613 694 b 89 346 229 694 89 553 l 89 329 b 433 -19 89 122 225 -19 z m 174 392 b 424 619 193 538 289 619 b 663 392 560 619 656 538 z "},"ể":{"ha":831,"x_min":0,"x_max":0,"o":"m 599 917 l 664 917 l 658 967 b 776 1075 731 967 776 1006 b 638 1186 776 1149 714 1186 b 497 1139 582 1186 533 1167 l 533 1083 b 638 1122 563 1106 596 1122 b 707 1069 676 1122 707 1106 b 638 1018 707 1036 679 1018 l 588 1018 z m 196 772 l 299 772 l 415 894 l 432 894 l 549 772 l 651 772 l 476 956 l 371 956 z m 433 -19 b 735 171 613 -19 692 79 l 660 204 b 433 56 622 121 560 56 b 172 319 285 56 178 151 l 747 319 l 747 364 b 424 694 747 569 613 694 b 89 346 229 694 89 553 l 89 329 b 433 -19 89 122 225 -19 z m 174 392 b 424 619 193 538 289 619 b 663 392 560 619 656 538 z "},"ễ":{"ha":831,"x_min":0,"x_max":0,"o":"m 271 1019 l 310 1090 b 347 1117 319 1107 329 1117 b 407 1067 367 1117 382 1096 b 504 1013 440 1026 465 1013 b 593 1069 546 1013 575 1036 l 635 1147 l 576 1179 l 538 1108 b 500 1082 528 1092 518 1082 b 440 1132 481 1082 465 1103 b 343 1186 407 1172 382 1186 b 254 1129 301 1186 272 1163 l 213 1051 z m 196 772 l 299 772 l 415 894 l 432 894 l 549 772 l 651 772 l 476 956 l 371 956 z m 433 -19 b 735 171 613 -19 692 79 l 660 204 b 433 56 622 121 560 56 b 172 319 285 56 178 151 l 747 319 l 747 364 b 424 694 747 569 613 694 b 89 346 229 694 89 553 l 89 329 b 433 -19 89 122 225 -19 z m 174 392 b 424 619 193 538 289 619 b 663 392 560 619 656 538 z "},"ȅ":{"ha":831,"x_min":0,"x_max":0,"o":"m 310 772 l 392 772 l 292 956 l 193 956 z m 506 772 l 586 772 l 500 956 l 404 956 z m 433 -19 b 735 171 613 -19 692 79 l 660 204 b 433 56 622 121 560 56 b 172 319 285 56 178 151 l 747 319 l 747 364 b 424 694 747 569 613 694 b 89 346 229 694 89 553 l 89 329 b 433 -19 89 122 225 -19 z m 174 392 b 424 619 193 538 289 619 b 663 392 560 619 656 538 z "},"ẹ":{"ha":831,"x_min":0,"x_max":0,"o":"m 433 -19 b 735 171 613 -19 692 79 l 660 204 b 433 56 622 121 560 56 b 172 319 285 56 178 151 l 747 319 l 747 364 b 424 694 747 569 613 694 b 89 346 229 694 89 553 l 89 329 b 433 -19 89 122 225 -19 z m 174 392 b 424 619 193 538 289 619 b 663 392 560 619 656 538 z m 433 -261 b 506 -189 475 -261 506 -231 b 433 -117 506 -147 475 -117 b 361 -189 392 -117 361 -147 b 433 -261 361 -231 392 -261 z "},"ẻ":{"ha":831,"x_min":0,"x_max":0,"o":"m 397 761 l 463 761 l 457 811 b 575 919 529 811 575 850 b 436 1031 575 993 513 1031 b 296 983 381 1031 332 1011 l 332 928 b 436 967 361 950 394 967 b 506 914 475 967 506 950 b 436 863 506 881 478 863 l 386 863 z m 433 -19 b 735 171 613 -19 692 79 l 660 204 b 433 56 622 121 560 56 b 172 319 285 56 178 151 l 747 319 l 747 364 b 424 694 747 569 613 694 b 89 346 229 694 89 553 l 89 329 b 433 -19 89 122 225 -19 z m 174 392 b 424 619 193 538 289 619 b 663 392 560 619 656 538 z "},"₈":{"ha":550,"x_min":0,"x_max":0,"o":"m 275 -297 b 494 -153 414 -297 494 -237 b 394 -37 494 -76 438 -47 l 394 -21 b 486 90 433 -11 486 21 b 275 228 486 175 401 228 b 64 90 149 228 64 175 b 156 -21 64 21 117 -11 l 156 -37 b 56 -153 113 -47 56 -76 b 275 -297 56 -237 136 -297 z m 275 0 b 133 83 188 0 133 31 b 275 167 133 136 188 167 b 417 83 363 167 417 136 b 275 0 417 31 363 0 z m 275 -236 b 125 -149 182 -236 125 -207 b 275 -61 125 -90 182 -61 b 425 -149 368 -61 425 -90 b 275 -236 425 -207 368 -236 z "},"⁸":{"ha":550,"x_min":0,"x_max":0,"o":"m 275 467 b 494 611 414 467 494 526 b 394 726 494 688 438 717 l 394 743 b 486 854 433 753 486 785 b 275 992 486 939 401 992 b 64 854 149 992 64 939 b 156 743 64 785 117 753 l 156 726 b 56 611 113 717 56 688 b 275 467 56 526 136 467 z m 275 764 b 133 847 188 764 133 794 b 275 931 133 900 188 931 b 417 847 363 931 417 900 b 275 764 417 794 363 764 z m 275 528 b 125 615 182 528 125 557 b 275 703 125 674 182 703 b 425 615 368 703 425 674 b 275 528 425 557 368 528 z "},"ȇ":{"ha":831,"x_min":0,"x_max":0,"o":"m 231 772 l 308 772 l 308 781 b 424 892 308 846 347 892 b 538 781 499 892 538 846 l 538 772 l 615 772 l 615 781 b 424 958 615 894 536 958 b 231 781 310 958 231 894 z m 433 -19 b 735 171 613 -19 692 79 l 660 204 b 433 56 622 121 560 56 b 172 319 285 56 178 151 l 747 319 l 747 364 b 424 694 747 569 613 694 b 89 346 229 694 89 553 l 89 329 b 433 -19 89 122 225 -19 z m 174 392 b 424 619 193 538 289 619 b 663 392 560 619 656 538 z "},"ḗ":{"ha":831,"x_min":0,"x_max":0,"o":"m 364 972 l 450 972 l 578 1156 l 472 1156 z m 215 803 l 632 803 l 632 875 l 215 875 z m 433 -19 b 735 171 613 -19 692 79 l 660 204 b 433 56 622 121 560 56 b 172 319 285 56 178 151 l 747 319 l 747 364 b 424 694 747 569 613 694 b 89 346 229 694 89 553 l 89 329 b 433 -19 89 122 225 -19 z m 174 392 b 424 619 193 538 289 619 b 663 392 560 619 656 538 z "},"ḕ":{"ha":831,"x_min":0,"x_max":0,"o":"m 397 989 l 483 989 l 376 1172 l 269 1172 z m 215 803 l 632 803 l 632 875 l 215 875 z m 433 -19 b 735 171 613 -19 692 79 l 660 204 b 433 56 622 121 560 56 b 172 319 285 56 178 151 l 747 319 l 747 364 b 424 694 747 569 613 694 b 89 346 229 694 89 553 l 89 329 b 433 -19 89 122 225 -19 z m 174 392 b 424 619 193 538 289 619 b 663 392 560 619 656 538 z "},"∅":{"ha":889,"x_min":0,"x_max":0,"o":"m 281 -133 l 336 -6 b 444 -19 371 -15 407 -19 b 803 331 653 -19 803 125 l 803 344 b 625 653 803 483 733 594 l 679 776 l 608 808 l 553 681 b 444 694 518 690 482 694 b 86 344 236 694 86 550 l 86 331 b 264 22 86 192 156 81 l 210 -101 z m 167 331 l 167 344 b 444 619 167 504 285 619 b 522 610 471 619 497 617 l 294 93 b 167 331 217 138 167 221 z m 444 56 b 367 64 418 56 392 58 l 594 582 b 722 344 672 536 722 453 l 722 331 b 444 56 722 167 604 56 z "}}}
